<svg width="40" height="40" viewBox="0 0 40 40" fill="none" xmlns="http://www.w3.org/2000/svg">
<g clip-path="url(#clip0_95_14360)">
<path d="M20.9956 14.6028H0.869907C0.333591 15.6143 0.04981 16.7436 0.0433655 17.892H11.3542V39.9951H14.5993V31.3509C15.7405 32.3759 17.1094 33.1058 18.5892 33.4784C20.0689 33.851 21.6157 33.8552 23.0974 33.4905C24.5791 33.1259 25.9518 32.4034 27.0983 31.3846C28.2448 30.3657 29.1311 29.0808 29.6815 27.6396C30.2319 26.1983 30.4302 24.6435 30.2593 23.1078C30.0884 21.5721 29.5534 20.101 28.7001 18.8203C27.8468 17.5395 26.7004 16.487 25.3588 15.7526C24.0172 15.0182 22.5202 14.6237 20.9956 14.6028ZM20.8665 30.3299C19.6673 30.3294 18.4953 29.9685 17.4985 29.2929C16.5018 28.6173 15.725 27.6572 15.2666 26.5342C14.8081 25.4111 14.6885 24.1755 14.9229 22.9835C15.1573 21.7915 15.7352 20.6968 16.5834 19.8377C17.4316 18.9786 18.5121 18.3938 19.6883 18.1571C20.8645 17.9205 22.0835 18.0427 23.1911 18.5082C24.2988 18.9738 25.2454 19.7618 25.9112 20.7726C26.577 21.7834 26.9321 22.9717 26.9316 24.1871C26.9298 25.8153 26.291 27.3762 25.1553 28.5278C24.0197 29.6793 22.4799 30.3274 20.8735 30.3299H20.8665Z" fill="#3DAE72"/>
<path d="M17.2066 23.3272L21.2509 29.2179L32.3605 21.9497L28.0837 15.9493L17.2066 23.3272Z" fill="#3DAE72"/>
<path d="M34.5626 6.83875C37.3632 13.7598 35.7935 20.4588 30.7081 23.03L27.0282 16.5981C33.8886 12.1145 33.6291 9.22854 32.1987 6.43785L34.5626 6.83875Z" fill="url(#paint0_linear_95_14360)"/>
<path fill-rule="evenodd" clip-rule="evenodd" d="M18.313 23.1459L21.846 28.2919L31.2587 22.1338L27.5259 16.8967L18.313 23.1459ZM30.6639 22.0218L21.9596 27.7164L18.8974 23.2562L27.4222 17.4738L30.6639 22.0218Z" fill="white"/>
<circle cx="2.05764" cy="2.05764" r="2.05764" transform="matrix(-0.520939 0.853594 0.853594 0.520939 23.9697 19.8015)" fill="white"/>
<mask id="path-6-inside-1_95_14360" fill="white">
<path fill-rule="evenodd" clip-rule="evenodd" d="M24.3686 22.5575L24.1843 22.6639L24.3743 22.9931L24.5586 22.8866L24.9451 23.5411C25.151 23.7944 25.5437 23.8538 25.8687 23.6661C26.225 23.4604 26.3649 23.0358 26.1813 22.7177C26.1303 22.6294 26.0597 22.5586 25.9767 22.5067L25.3942 22.843C25.5468 22.7553 25.734 22.7944 25.8126 22.9306C25.8914 23.0669 25.8314 23.2489 25.6787 23.337C25.526 23.4252 25.3384 23.3861 25.2597 23.2498L25.2122 23.1675L24.9592 22.7292L24.9272 22.6738L25.6644 22.2482L25.4744 21.9191L24.7372 22.3447L24.4997 21.9333C24.3685 21.7061 24.0558 21.641 23.8014 21.7879C23.5469 21.9349 23.4469 22.2381 23.5781 22.4654L23.5791 22.467L23.6256 22.5476L23.9942 22.3348L23.9467 22.2525C23.9205 22.2071 23.9405 22.1464 23.9914 22.1171C24.0423 22.0877 24.1048 22.1007 24.131 22.1461L24.3686 22.5575Z"/>
</mask>
<path d="M24.3686 22.5575L24.9871 23.6289L26.0585 23.0103L25.4399 21.939L24.3686 22.5575ZM24.1843 22.6639L23.5657 21.5926L22.4944 22.2111L23.1129 23.2825L24.1843 22.6639ZM24.3743 22.9931L23.3029 23.6116L23.9215 24.6829L24.9928 24.0644L24.3743 22.9931ZM24.5586 22.8866L25.6237 22.2575L25.0008 21.2029L23.94 21.8153L24.5586 22.8866ZM24.9451 23.5411L23.88 24.1702L23.9269 24.2497L23.9852 24.3213L24.9451 23.5411ZM25.9767 22.5067L26.6319 21.4575L26.0017 21.0639L25.3581 21.4354L25.9767 22.5067ZM25.3942 22.843L24.7757 21.7717L26.0109 23.9154L25.3942 22.843ZM25.2597 23.2498L26.3311 22.6312L26.331 22.6312L25.2597 23.2498ZM25.2122 23.1675L24.1409 23.786L24.1409 23.7861L25.2122 23.1675ZM24.9592 22.7292L26.0305 22.1107L26.0305 22.1106L24.9592 22.7292ZM24.9272 22.6738L24.3087 21.6025L23.2373 22.2211L23.8559 23.2924L24.9272 22.6738ZM25.6644 22.2482L26.2829 23.3195L27.3543 22.701L26.7357 21.6297L25.6644 22.2482ZM25.4744 21.9191L26.5457 21.3005L25.9272 20.2292L24.8559 20.8477L25.4744 21.9191ZM24.7372 22.3447L23.6658 22.9632L24.2844 24.0346L25.3557 23.416L24.7372 22.3447ZM24.4997 21.9333L25.571 21.3148L25.571 21.3148L24.4997 21.9333ZM23.5781 22.4654L22.5068 23.0839L22.5082 23.0863L23.5781 22.4654ZM23.5791 22.467L24.6504 21.8485L24.649 21.8461L23.5791 22.467ZM23.6256 22.5476L22.5543 23.1662L23.1728 24.2375L24.2442 23.619L23.6256 22.5476ZM23.9942 22.3348L24.6128 23.4061L25.6841 22.7876L25.0656 21.7163L23.9942 22.3348ZM24.131 22.1461L23.0597 22.7647L23.0597 22.7647L24.131 22.1461ZM24.8028 23.7353L24.9871 23.6289L23.75 21.4862L23.5657 21.5926L24.8028 23.7353ZM25.4456 22.3745L25.2556 22.0454L23.1129 23.2825L23.3029 23.6116L25.4456 22.3745ZM23.94 21.8153L23.7557 21.9217L24.9928 24.0644L25.1771 23.958L23.94 21.8153ZM23.9852 24.3213C24.6318 25.117 25.7192 25.1809 26.4872 24.7375L25.2502 22.5948C25.3683 22.5266 25.6702 22.4718 25.9051 22.7609L23.9852 24.3213ZM26.4872 24.7375C27.3178 24.2579 27.8419 23.1199 27.2526 22.0992L25.1099 23.3363C25.0067 23.1574 25.0112 22.9723 25.0525 22.8469C25.0929 22.7243 25.1702 22.641 25.2502 22.5948L26.4872 24.7375ZM27.2526 22.0992C27.0957 21.8275 26.879 21.6117 26.6319 21.4575L25.3214 23.556C25.2404 23.5054 25.1648 23.4313 25.1099 23.3363L27.2526 22.0992ZM25.3581 21.4354L24.7757 21.7717L26.0127 23.9143L26.5952 23.5781L25.3581 21.4354ZM26.0109 23.9154C25.6893 24.1004 25.0678 24.1146 24.7413 23.5491L26.884 22.312C26.4002 21.4741 25.4043 21.4102 24.7775 21.7707L26.0109 23.9154ZM24.7413 23.5491C24.4144 22.9828 24.7386 22.4514 25.0602 22.2657L26.2972 24.4083C26.9242 24.0464 27.3683 23.151 26.884 22.312L24.7413 23.5491ZM25.0602 22.2657C25.3818 22.08 26.0041 22.065 26.3311 22.6312L24.1884 23.8683C24.6728 24.7072 25.6703 24.7703 26.2972 24.4083L25.0602 22.2657ZM26.331 22.6312L26.2835 22.5489L24.1409 23.7861L24.1884 23.8683L26.331 22.6312ZM23.8559 23.2924L23.8879 23.3479L26.0305 22.1106L25.9985 22.0552L23.8559 23.2924ZM25.0459 21.1769L24.3087 21.6025L25.5457 23.7452L26.2829 23.3195L25.0459 21.1769ZM24.4031 22.5376L24.5931 22.8667L26.7357 21.6297L26.5457 21.3005L24.4031 22.5376ZM25.3557 23.416L26.0929 22.9904L24.8559 20.8477L24.1186 21.2734L25.3557 23.416ZM23.4283 22.5518L23.6658 22.9632L25.8085 21.7262L25.571 21.3148L23.4283 22.5518ZM24.4199 22.8593C24.2001 22.9862 23.7028 23.0272 23.4283 22.5518L25.571 21.3148C25.0341 20.3849 23.9116 20.2959 23.1828 20.7166L24.4199 22.8593ZM24.6494 21.8468C24.9239 22.3222 24.6397 22.7323 24.4199 22.8593L23.1828 20.7166C22.4541 21.1374 21.97 22.1541 22.5068 23.0839L24.6494 21.8468ZM24.649 21.8461L24.6481 21.8445L22.5082 23.0863L22.5091 23.0879L24.649 21.8461ZM24.6969 21.9291L24.6504 21.8485L22.5077 23.0855L22.5543 23.1662L24.6969 21.9291ZM22.8754 22.8711L22.9229 22.9534L25.0656 21.7163L25.018 21.634L22.8754 22.8711ZM23.3728 21.0457C22.8476 21.349 22.4435 22.123 22.8754 22.8711L25.018 21.634C25.3975 22.2912 25.0333 22.9439 24.6099 23.1884L23.3728 21.0457ZM25.2024 21.5276C24.7705 20.7796 23.898 20.7425 23.3728 21.0457L24.6099 23.1884C24.1865 23.4328 23.4391 23.4218 23.0597 22.7647L25.2024 21.5276ZM25.4399 21.939L25.2023 21.5276L23.0597 22.7647L23.2973 23.1761L25.4399 21.939ZM26.2836 22.549L26.0305 22.1107L23.8879 23.3478L24.1409 23.786L26.2836 22.549ZM23.3757 21.2635L23.0071 21.4763L24.2442 23.619L24.6128 23.4061L23.3757 21.2635ZM26.0103 22.912L25.6237 22.2575L23.4934 23.5158L23.88 24.1702L26.0103 22.912Z" fill="#3DAE72" mask="url(#path-6-inside-1_95_14360)"/>
<path d="M34.8541 -0.878838C37.9867 6.07014 38.8481 11.1955 30.2373 16.3634L28.3851 8.55821C34.6397 3.9092 34.1208 1.55287 32.5702 -1.24399L34.8541 -0.878838Z" fill="url(#paint1_linear_95_14360)"/>
<path d="M18.3391 16.126L22.6288 21.8404L33.4212 14.1091L28.8945 8.29485L18.3391 16.126Z" fill="#1B3F1E"/>
<path fill-rule="evenodd" clip-rule="evenodd" d="M19.4363 15.8984L23.1837 20.8904L32.3277 14.34L28.3769 9.26535L19.4363 15.8984ZM31.7287 14.2533L23.2729 20.3107L20.0249 15.9839L28.2977 9.8463L31.7287 14.2533Z" fill="white"/>
<circle cx="2.05764" cy="2.05764" r="2.05764" transform="matrix(-0.484392 0.874851 0.874851 0.484392 24.9471 12.3176)" fill="white"/>
<mask id="path-12-inside-2_95_14360" fill="white">
<path fill-rule="evenodd" clip-rule="evenodd" d="M25.346 14.9274L25.1617 15.0338L25.3517 15.3629L25.536 15.2565L25.9226 15.911C26.1284 16.1643 26.5212 16.2236 26.8461 16.036C27.2024 15.8303 27.3423 15.4057 27.1587 15.0876C27.1077 14.9993 27.0371 14.9284 26.9541 14.8766L26.3716 15.2129C26.5242 15.1251 26.7114 15.1643 26.7901 15.3004C26.8688 15.4368 26.8088 15.6187 26.6561 15.7069C26.5034 15.795 26.3159 15.756 26.2371 15.6197L26.1896 15.5374L25.9366 15.0991L25.9046 15.0437L26.6418 14.6181L26.4518 14.2889L25.7146 14.7146L25.4771 14.3032C25.3459 14.076 25.0332 14.0109 24.7788 14.1578C24.5243 14.3047 24.4244 14.608 24.5555 14.8352L24.5565 14.8369L24.603 14.9175L24.9716 14.7047L24.9241 14.6224C24.8979 14.577 24.9179 14.5163 24.9688 14.4869C25.0197 14.4575 25.0822 14.4706 25.1084 14.516L25.346 14.9274Z"/>
</mask>
<path d="M25.346 14.9274L25.9645 15.9987L27.0359 15.3802L26.4173 14.3088L25.346 14.9274ZM25.1617 15.0338L24.5431 13.9625L23.4718 14.581L24.0903 15.6523L25.1617 15.0338ZM25.3517 15.3629L24.2804 15.9815L24.8989 17.0528L25.9702 16.4343L25.3517 15.3629ZM25.536 15.2565L26.6011 14.6274L25.9782 13.5728L24.9175 14.1852L25.536 15.2565ZM25.9226 15.911L24.8574 16.5401L24.9044 16.6196L24.9626 16.6912L25.9226 15.911ZM26.9541 14.8766L27.6093 13.8273L26.9791 13.4337L26.3356 13.8053L26.9541 14.8766ZM26.3716 15.2129L25.7531 14.1416L26.9884 16.2853L26.3716 15.2129ZM26.2371 15.6197L27.3085 15.0011L27.3085 15.0011L26.2371 15.6197ZM26.1896 15.5374L25.1183 16.1559L25.1183 16.1559L26.1896 15.5374ZM25.9366 15.0991L27.0079 14.4806L27.0079 14.4805L25.9366 15.0991ZM25.9046 15.0437L25.2861 13.9724L24.2147 14.5909L24.8333 15.6623L25.9046 15.0437ZM26.6418 14.6181L27.2604 15.6894L28.3317 15.0709L27.7132 13.9995L26.6418 14.6181ZM26.4518 14.2889L27.5231 13.6704L26.9046 12.5991L25.8333 13.2176L26.4518 14.2889ZM25.7146 14.7146L24.6433 15.3331L25.2618 16.4044L26.3331 15.7859L25.7146 14.7146ZM25.4771 14.3032L26.5484 13.6846L26.5484 13.6846L25.4771 14.3032ZM24.5555 14.8352L23.4842 15.4538L23.4856 15.4561L24.5555 14.8352ZM24.5565 14.8369L25.6278 14.2184L25.6264 14.216L24.5565 14.8369ZM24.603 14.9175L23.5317 15.536L24.1502 16.6074L25.2216 15.9888L24.603 14.9175ZM24.9716 14.7047L25.5902 15.776L26.6615 15.1575L26.043 14.0862L24.9716 14.7047ZM25.1084 14.516L24.0371 15.1345L24.0371 15.1346L25.1084 14.516ZM25.7802 16.1051L25.9645 15.9987L24.7274 13.8561L24.5431 13.9625L25.7802 16.1051ZM26.423 14.7444L26.233 14.4153L24.0903 15.6523L24.2804 15.9815L26.423 14.7444ZM24.9175 14.1852L24.7332 14.2916L25.9702 16.4343L26.1545 16.3278L24.9175 14.1852ZM24.9626 16.6912C25.6093 17.4869 26.6966 17.5508 27.4647 17.1073L26.2276 14.9647C26.3457 14.8965 26.6476 14.8417 26.8826 15.1308L24.9626 16.6912ZM27.4647 17.1073C28.2952 16.6278 28.8193 15.4898 28.23 14.4691L26.0873 15.7061C25.9841 15.5273 25.9886 15.3422 26.03 15.2168C26.0704 15.0942 26.1477 15.0108 26.2276 14.9647L27.4647 17.1073ZM28.23 14.4691C28.0732 14.1974 27.8564 13.9816 27.6093 13.8273L26.2988 15.9259C26.2178 15.8753 26.1422 15.8011 26.0873 15.7061L28.23 14.4691ZM26.3356 13.8053L25.7531 14.1416L26.9902 16.2842L27.5726 15.9479L26.3356 13.8053ZM26.9884 16.2853C26.6667 16.4702 26.0453 16.4845 25.7187 15.919L27.8614 14.6819C27.3776 13.844 26.3817 13.78 25.7549 14.1405L26.9884 16.2853ZM25.7187 15.919C25.3918 15.3527 25.716 14.8212 26.0376 14.6356L27.2746 16.7782C27.9016 16.4162 28.3457 15.5208 27.8614 14.6819L25.7187 15.919ZM26.0376 14.6356C26.3592 14.4499 26.9815 14.4348 27.3085 15.0011L25.1658 16.2382C25.6502 17.0771 26.6477 17.1402 27.2746 16.7782L26.0376 14.6356ZM27.3085 15.0011L27.2609 14.9188L25.1183 16.1559L25.1658 16.2382L27.3085 15.0011ZM24.8333 15.6623L24.8653 15.7177L27.0079 14.4805L26.9759 14.4251L24.8333 15.6623ZM26.0233 13.5467L25.2861 13.9724L26.5231 16.115L27.2604 15.6894L26.0233 13.5467ZM25.3805 14.9075L25.5705 15.2366L27.7132 13.9995L27.5231 13.6704L25.3805 14.9075ZM26.3331 15.7859L27.0703 15.3603L25.8333 13.2176L25.0961 13.6433L26.3331 15.7859ZM24.4057 14.9217L24.6433 15.3331L26.7859 14.096L26.5484 13.6846L24.4057 14.9217ZM25.3973 15.2291C25.1775 15.356 24.6802 15.3971 24.4057 14.9217L26.5484 13.6846C26.0116 12.7548 24.889 12.6657 24.1602 13.0865L25.3973 15.2291ZM25.6269 14.2167C25.9013 14.6921 25.6171 15.1022 25.3973 15.2291L24.1602 13.0865C23.4315 13.5072 22.9474 14.5239 23.4842 15.4538L25.6269 14.2167ZM25.6264 14.216L25.6255 14.2143L23.4856 15.4561L23.4865 15.4578L25.6264 14.216ZM25.6744 14.299L25.6278 14.2184L23.4852 15.4554L23.5317 15.536L25.6744 14.299ZM23.8528 15.2409L23.9003 15.3232L26.043 14.0862L25.9955 14.0039L23.8528 15.2409ZM24.3503 13.4156C23.8251 13.7188 23.4209 14.4929 23.8528 15.2409L25.9955 14.0039C26.3749 14.661 26.0107 15.3138 25.5873 15.5583L24.3503 13.4156ZM26.1798 13.8975C25.7479 13.1494 24.8754 13.1124 24.3503 13.4156L25.5873 15.5583C25.1639 15.8027 24.4165 15.7917 24.0371 15.1345L26.1798 13.8975ZM26.4173 14.3088L26.1797 13.8974L24.0371 15.1346L24.2747 15.546L26.4173 14.3088ZM27.261 14.9189L27.0079 14.4806L24.8653 15.7176L25.1183 16.1559L27.261 14.9189ZM24.3531 13.6334L23.9845 13.8462L25.2216 15.9888L25.5902 15.776L24.3531 13.6334ZM26.9877 15.2819L26.6011 14.6274L24.4709 15.8856L24.8574 16.5401L26.9877 15.2819Z" fill="#1B3F1E" mask="url(#path-12-inside-2_95_14360)"/>
</g>
<defs>
<linearGradient id="paint0_linear_95_14360" x1="27.7831" y1="20.3578" x2="34.2943" y2="11.2009" gradientUnits="userSpaceOnUse">
<stop stop-color="#3DAE72"/>
<stop offset="1" stop-color="#3DAE72" stop-opacity="0"/>
</linearGradient>
<linearGradient id="paint1_linear_95_14360" x1="29.275" y1="12.9028" x2="35.5237" y2="3.98164" gradientUnits="userSpaceOnUse">
<stop stop-color="#1B3F1E"/>
<stop offset="1" stop-color="#1B3F1E" stop-opacity="0"/>
</linearGradient>
<clipPath id="clip0_95_14360">
<rect width="40" height="40" fill="white"/>
</clipPath>
</defs>
</svg>
