<svg width="40" height="40" viewBox="0 0 40 40" fill="none" xmlns="http://www.w3.org/2000/svg">
<g clip-path="url(#clip0_95_14402)">
<path d="M0 24.8107C0.0922685 24.7251 0.1909 24.6462 0.275215 24.5524C1.28858 23.424 1.35857 21.7149 0.443843 20.4992C0.424753 20.4746 0.407254 20.4482 0.38021 20.4104C7.83646 13.9408 15.2927 7.46959 22.7474 1C23.7782 2.37189 25.8225 2.57586 27.119 1.4063C27.391 1.74023 27.6615 2.07415 27.9399 2.4163C27.6519 2.69101 27.5072 3.02493 27.5358 3.42795C27.5565 3.71746 27.6726 3.96749 27.8699 4.17475C28.2214 4.54322 28.8578 4.69785 29.4289 4.25207C29.7105 4.59915 29.9936 4.94788 30.2752 5.29497C29.7821 5.92827 29.7455 6.50565 30.1543 6.99749C30.4963 7.40873 31.1709 7.60283 31.7722 7.13895C32.0538 7.48604 32.3369 7.83477 32.6169 8.18021C32.1285 8.7872 32.084 9.3728 32.4833 9.86628C32.8826 10.3598 33.4505 10.4173 34.1139 10.0242C34.3875 10.3631 34.6643 10.7019 34.9443 11.049C34.6023 11.3418 34.3334 11.6807 34.1394 12.0804C33.9469 12.4752 33.8435 12.8963 33.8164 13.3651C33.6064 12.995 33.5635 12.5985 33.4569 12.207C32.4849 12.4752 31.5177 12.7433 30.552 13.0098C30.5425 13.0016 30.5329 12.995 30.5218 12.9868C30.6204 12.6824 30.7127 12.3748 30.8209 12.0755C30.8559 11.9784 30.8495 11.9192 30.7843 11.8386C29.0614 9.71988 27.3401 7.5979 25.6204 5.47591C25.5711 5.41505 25.5266 5.3986 25.4518 5.41505C24.3048 5.67001 23.188 5.56803 22.1015 5.10909C22.0267 5.07783 21.979 5.08441 21.917 5.1387C16.9249 9.47478 11.9313 13.8076 6.93764 18.142C6.16927 18.8099 5.40089 19.4777 4.62933 20.1423C4.57525 20.1883 4.50684 20.2196 4.44003 20.2443C4.36367 20.2739 4.28094 20.292 4.18867 20.3183C4.22844 20.4696 4.26503 20.6144 4.30321 20.7591C4.54025 21.654 4.39071 22.4682 3.81801 23.1854C3.48711 23.6 3.06077 23.8648 2.56125 24.0063C2.39421 24.054 2.22717 24.1 2.049 24.1494C2.21444 24.7926 2.3783 25.4259 2.55011 26.0871C2.02832 25.5394 1.47789 25.4769 0.873369 25.893C0.750875 25.7433 0.629971 25.592 0.505886 25.4423C0.338848 25.24 0.168629 25.036 0 24.832C0 24.8255 0 24.8172 0 24.8107Z" fill="#3DAE72"/>
<path d="M38.1228 20.0781C37.4022 20.3282 37.1747 21.0141 37.3099 21.5438C37.4706 22.1656 37.9621 22.4683 38.7241 22.4041C38.8371 22.8367 38.95 23.271 39.0646 23.7151C39.0216 23.7332 38.9835 23.7497 38.9469 23.7661C38.3917 23.9948 38.0974 24.6083 38.2596 25.2005C38.4203 25.7911 38.985 26.1562 39.5721 26.051C39.6182 26.0427 39.6643 26.0197 39.685 26.097C39.7868 26.5033 39.8934 26.908 40.0032 27.3274C39.1903 27.5561 38.5539 28.0315 38.126 28.7799C37.6996 29.5267 37.5994 30.3278 37.8015 31.1816C28.4012 33.7872 19.0041 36.3911 9.59274 38.9984C9.3748 38.1562 8.91982 37.4949 8.19758 37.0491C7.47375 36.6017 6.69742 36.4931 5.86223 36.7053C5.75724 36.3006 5.65224 35.8976 5.54566 35.488C5.89405 35.3729 6.15017 35.1558 6.29812 34.8136C6.40471 34.5669 6.42857 34.3086 6.36335 34.0454C6.2838 33.723 6.10563 33.4763 5.83042 33.3052C5.55838 33.1358 5.26408 33.1045 4.9475 33.1736C4.83296 32.7311 4.72001 32.2952 4.60388 31.8527C4.96182 31.7326 5.22272 31.5073 5.36748 31.1503C5.47089 30.892 5.4852 30.6289 5.40725 30.3607C5.23385 29.7554 4.76137 29.4741 4.00254 29.5317C3.89119 29.0991 3.77824 28.6648 3.66211 28.2174C4.05027 28.0858 4.3223 27.8324 4.45434 27.4344C4.53707 27.181 4.53388 26.9261 4.44957 26.6728C4.25549 26.0937 3.78142 25.824 3.06077 25.8947C2.94464 25.4489 2.82851 24.9998 2.71078 24.5458C3.51098 24.3024 4.12822 23.8253 4.54343 23.0851C4.95864 22.3449 5.0525 21.5537 4.85364 20.7082C14.2571 18.1026 23.6557 15.497 33.0624 12.8914C33.2851 13.75 33.7496 14.4146 34.4877 14.8604C35.2259 15.3045 36.015 15.3966 36.8501 15.168C36.9615 15.5957 37.0697 16.0135 37.181 16.4445C36.7913 16.5793 36.5145 16.8343 36.384 17.2423C36.3013 17.5005 36.3108 17.7588 36.3999 18.0137C36.5988 18.5763 37.0585 18.8296 37.7808 18.7671C37.8937 19.2014 38.0067 19.6357 38.1212 20.0781H38.1228ZM6.76583 25.4933C6.77696 25.5344 6.78333 25.5575 6.78969 25.5822C6.94877 26.199 7.10945 26.8159 7.26853 27.4327C7.80942 29.5235 8.35189 31.6142 8.89278 33.7049C8.91187 33.7773 8.94209 33.8102 9.01368 33.8283C10.14 34.1063 11.0961 34.687 11.8756 35.5736C11.9201 35.6246 11.9599 35.6328 12.0204 35.6147C12.1938 35.5621 12.3688 35.5177 12.5437 35.4683C15.552 34.6343 18.5587 33.802 21.567 32.968C23.7289 32.3692 25.8925 31.7688 28.0544 31.17C30.0557 30.6157 32.0569 30.0614 34.0598 29.5086C34.1537 29.4823 34.1919 29.4379 34.2157 29.3425C34.4846 28.2009 35.0366 27.232 35.8718 26.4359C35.9243 26.3849 35.937 26.3421 35.9179 26.2681C35.2211 23.5852 34.5259 20.9023 33.8323 18.2177C33.8101 18.1338 33.7751 18.096 33.6923 18.0762C32.5501 17.8032 31.5797 17.2209 30.7859 16.3277C30.7302 16.2652 30.6825 16.2668 30.6125 16.2865C28.8753 16.7685 27.1397 17.2488 25.4025 17.7308C21.8613 18.7112 18.3217 19.6932 14.7805 20.6753C12.7076 21.2494 10.6363 21.8234 8.56347 22.3959C8.49507 22.4156 8.46325 22.4469 8.44416 22.5193C8.37416 22.7742 8.30894 23.0325 8.21826 23.2792C7.91759 24.0984 7.45148 24.8057 6.83742 25.4078C6.80878 25.4358 6.78651 25.4703 6.76583 25.4933Z" fill="#1B3F1E"/>
<path d="M5.14636 20.032C5.17181 20.009 5.19567 19.9843 5.22113 19.9613C10.7859 15.1317 16.3522 10.3005 21.9154 5.46766C22.0108 5.38541 22.0824 5.37061 22.1985 5.41666C23.231 5.81639 24.2921 5.90357 25.3754 5.68973C25.4391 5.67657 25.4757 5.69302 25.517 5.74236C27.1858 7.80184 28.8562 9.85968 30.5266 11.9159C30.5695 11.9701 30.5759 12.0129 30.5552 12.0804C30.4613 12.388 30.3723 12.6972 30.2879 13.0081C30.272 13.069 30.2482 13.0953 30.1893 13.1117C28.6398 13.5394 27.0904 13.9688 25.5425 14.4014C25.4645 14.4228 25.4248 14.4014 25.377 14.3422C24.2316 12.9259 23.083 11.5129 21.9361 10.0982C21.909 10.0653 21.882 10.0324 21.8454 9.98963C21.8072 10.0209 21.7738 10.0472 21.7404 10.0752C18.8562 12.5771 15.972 15.0807 13.0878 17.5827C13.0671 17.6008 13.0433 17.6173 13.0242 17.6386C12.7824 17.9051 12.4769 18.0269 12.1397 18.119C9.85683 18.7408 7.57875 19.3774 5.29749 20.009C5.24817 20.0222 5.20045 20.0353 5.15113 20.0485C5.14795 20.0436 5.14636 20.037 5.14318 20.032H5.14636ZM26.6529 9.50108C26.6052 9.5274 26.5749 9.54385 26.5463 9.56194C26.3506 9.68696 26.155 9.80704 25.9625 9.93699C25.8877 9.98798 25.8272 9.99621 25.7445 9.95508C25.5377 9.8531 25.3261 9.76098 25.1161 9.66722C25.0843 9.65241 25.0493 9.64254 25 9.62445C25.0111 9.68038 25.0191 9.71492 25.027 9.74782C25.0811 9.97811 25.132 10.2084 25.1925 10.4371C25.2148 10.5209 25.2036 10.5818 25.1432 10.6476C24.9825 10.822 24.8314 11.0046 24.6771 11.1839C24.6548 11.2102 24.6357 11.2365 24.6055 11.2776C24.6643 11.2842 24.7041 11.2924 24.7439 11.2957C24.973 11.3138 25.2004 11.3319 25.4295 11.3451C25.4995 11.3484 25.5441 11.3714 25.5775 11.4372C25.6554 11.5852 25.7397 11.73 25.8225 11.8747C25.8781 11.9734 25.9338 12.0705 26.0006 12.1889C26.0261 12.133 26.042 12.0985 26.0563 12.0639C26.1438 11.8451 26.2345 11.628 26.314 11.4059C26.3443 11.3204 26.392 11.2842 26.4763 11.2678C26.7117 11.22 26.944 11.1658 27.1779 11.1115C27.2033 11.1065 27.2256 11.095 27.2638 11.0819C27.224 11.0457 27.1969 11.0177 27.1683 10.993C26.9886 10.8351 26.8056 10.6805 26.6306 10.5177C26.5972 10.4864 26.5733 10.4222 26.5749 10.3745C26.5797 10.2347 26.5988 10.0965 26.6115 9.95673C26.6242 9.81197 26.6386 9.66722 26.6529 9.50437V9.50108Z" fill="#3DAE72"/>
<path d="M25.1877 14.4985C24.6564 14.6465 24.1473 14.7896 23.6367 14.9245C23.6048 14.9327 23.5476 14.8982 23.5205 14.8669C23.0544 14.2961 22.5899 13.7237 22.1254 13.1512C21.9026 12.8765 21.6799 12.6018 21.4461 12.314C21.6338 12.1511 21.8167 11.9899 22.0092 11.8238C21.8915 11.679 21.7801 11.5425 21.6624 11.3961C21.1311 11.8583 20.6061 12.314 20.0716 12.7762C20.1909 12.9226 20.3007 13.0591 20.4184 13.2039C20.6093 13.0394 20.7906 12.8815 20.9831 12.7153C21.6322 13.5148 22.2765 14.3093 22.9303 15.1153C22.8905 15.1301 22.8603 15.1416 22.8285 15.1499C22.1238 15.3456 21.419 15.5364 20.7175 15.7388C20.6061 15.7717 20.5345 15.7568 20.4757 15.6565C20.4486 15.6121 20.4104 15.5743 20.3707 15.5216C20.5584 15.3588 20.7413 15.1992 20.9322 15.0331C20.8352 14.913 20.7413 14.7978 20.6395 14.6712C20.4502 14.834 20.2657 14.9936 20.0732 15.1581C19.7916 14.811 19.5164 14.4705 19.2332 14.1218C19.4957 13.8931 19.7534 13.6694 20.0223 13.4358C19.9236 13.3141 19.8298 13.1973 19.728 13.0739C19.308 13.4375 18.8975 13.7944 18.476 14.1612C18.9596 14.7584 19.4384 15.3473 19.9284 15.9526C19.3621 16.1105 18.8101 16.2618 18.2485 16.4181C18.1339 15.8325 18.0226 15.2568 17.9065 14.6547C17.7983 14.7485 17.706 14.8258 17.6169 14.9064C17.5231 14.9903 17.3878 15.061 17.3528 15.168C17.3194 15.2699 17.3894 15.4081 17.4181 15.5298C17.4912 15.8506 17.566 16.173 17.6392 16.4938C17.644 16.5185 17.6472 16.5415 17.6551 16.5793C17.5835 16.5991 17.5151 16.627 17.4451 16.6353C17.4149 16.6385 17.3719 16.604 17.3481 16.576C17.1429 16.3276 16.9408 16.076 16.7372 15.8259C16.7149 15.798 16.6911 15.7733 16.6608 15.7371C16.5097 15.8687 16.3618 15.997 16.2011 16.1368C16.3856 16.3655 16.567 16.5908 16.7579 16.8261C16.7149 16.8392 16.6847 16.8524 16.6529 16.8606C16.3745 16.9379 16.0961 17.0152 15.8177 17.0909C15.7827 17.1008 15.7397 17.1106 15.7063 17.0991C15.3325 16.9659 15.0286 17.1106 14.7423 17.3426C14.6898 17.3853 14.6262 17.4199 14.5609 17.438C14.1425 17.5581 13.7226 17.6716 13.3042 17.7884C13.2851 17.7933 13.2644 17.7982 13.2342 17.7851C16.0913 15.3061 18.9485 12.8255 21.8151 10.3384C22.9383 11.7218 24.0566 13.1019 25.1877 14.4952V14.4985Z" fill="#3DAE72"/>
<path d="M2.75851 26.5641C2.90487 26.5246 3.05123 26.4835 3.19758 26.4457C3.56666 26.3519 3.90391 26.5822 3.96596 26.9671C4.01527 27.2764 3.82755 27.5807 3.52848 27.6712C3.35985 27.7222 3.18804 27.7666 3.0035 27.8192C3.08463 28.1383 3.16577 28.4509 3.24531 28.7634C3.23576 28.7684 3.22622 28.7749 3.21667 28.7799C2.93669 28.4344 2.65511 28.0873 2.34808 27.709C2.38467 27.686 2.42444 27.6728 2.44989 27.6449C2.69806 27.3784 2.80146 27.0576 2.76965 26.6908C2.76487 26.6398 2.7776 26.5707 2.69329 26.5608C2.68215 26.5608 2.67102 26.5197 2.66465 26.4967C2.64079 26.4079 2.61693 26.3174 2.61534 26.217C2.66147 26.3289 2.7076 26.4408 2.75692 26.5625L2.75851 26.5641Z" fill="#3DAE72"/>
<path d="M7.03786 25.5723C7.06013 25.5443 7.084 25.5081 7.11422 25.4769C7.66624 24.911 8.09418 24.258 8.38689 23.5128C8.48552 23.2611 8.56347 22.9996 8.63983 22.738C8.6637 22.6558 8.69869 22.6163 8.77983 22.5933C10.2625 22.1853 11.7451 21.7741 13.2262 21.3628C17.1158 20.2854 21.0054 19.208 24.895 18.1289C26.7754 17.6074 28.6573 17.086 30.5377 16.5629C30.6109 16.5431 30.6538 16.5547 30.7079 16.6122C31.4858 17.4413 32.4165 18.0022 33.4998 18.2851C33.5778 18.3049 33.6112 18.3427 33.6319 18.4217C34.2937 20.9878 34.9586 23.5539 35.6268 26.1184C35.6586 26.2368 35.6395 26.3076 35.5536 26.3964C34.7964 27.1662 34.2793 28.0841 34.0089 29.1468C33.9866 29.2339 33.95 29.2734 33.8641 29.2964C29.4241 30.5252 24.9857 31.7556 20.5457 32.9861C17.7458 33.7625 14.9459 34.5373 12.1476 35.3153C12.0458 35.3433 11.987 35.3252 11.9154 35.2479C11.1645 34.4484 10.2673 33.9056 9.22526 33.621C9.14572 33.5996 9.10595 33.5651 9.08527 33.4796C8.41234 30.8723 7.73624 28.2651 7.06013 25.6578C7.05377 25.6331 7.04741 25.6085 7.03786 25.569V25.5723ZM28.5635 20.644C23.223 22.1245 17.8937 23.6016 12.5501 25.0821C13.0735 27.1054 13.5953 29.1155 14.1171 31.1306C14.168 31.1174 14.2014 31.1108 14.2348 31.101C15.867 30.6486 17.5008 30.1962 19.133 29.7439C22.7601 28.7388 26.3888 27.7337 30.0159 26.7303C30.105 26.7056 30.1304 26.6777 30.1034 26.5773C29.6198 24.7202 29.1394 22.8614 28.6573 21.0043C28.6271 20.8875 28.5953 20.7707 28.5619 20.644H28.5635ZM31.5781 21.6918C31.5654 21.7395 31.5574 21.7708 31.5511 21.8021C31.5033 22.0488 31.4524 22.2939 31.4095 22.5406C31.3968 22.6097 31.3697 22.6459 31.3077 22.6722C31.077 22.7709 30.8479 22.8746 30.6188 22.9782C30.5966 22.9881 30.5759 23.0045 30.5441 23.0242C30.5854 23.0506 30.6157 23.0703 30.6443 23.0868C30.8463 23.2052 31.0484 23.3253 31.2536 23.4371C31.3236 23.475 31.3554 23.5227 31.3586 23.6033C31.3633 23.7135 31.3761 23.8253 31.3856 23.9356C31.4015 24.1017 31.4158 24.2662 31.4349 24.4554C31.4827 24.4126 31.5097 24.3879 31.5367 24.3616C31.7101 24.1955 31.8851 24.0326 32.0554 23.8632C32.1047 23.8155 32.1476 23.804 32.2129 23.8204C32.4451 23.8796 32.679 23.9306 32.9128 23.9849C32.9478 23.9931 32.9828 23.9981 33.0369 24.0079C32.9128 23.7283 32.7951 23.4733 32.6869 23.2134C32.6694 23.1706 32.6726 23.0999 32.6949 23.0588C32.811 22.8433 32.9367 22.6311 33.0592 22.4189C33.0767 22.3877 33.0926 22.3531 33.118 22.3038C33.056 22.3087 33.0146 22.312 32.9733 22.3169C32.7426 22.3449 32.5119 22.3696 32.2813 22.4025C32.2128 22.4123 32.1731 22.3909 32.1301 22.3399C31.9774 22.1541 31.8199 21.9715 31.664 21.7889C31.6401 21.7609 31.6131 21.733 31.5781 21.6935V21.6918ZM10.245 30.3262C10.2959 30.2801 10.3245 30.2555 10.3532 30.2291C10.525 30.0663 10.6968 29.9051 10.8654 29.7389C10.9163 29.6879 10.964 29.6781 11.0325 29.6945C11.2711 29.7554 11.5129 29.808 11.7531 29.8623C11.7786 29.8672 11.804 29.8689 11.8454 29.8738C11.7404 29.6369 11.6513 29.4099 11.5399 29.1961C11.4699 29.0596 11.4667 28.9527 11.5558 28.826C11.6497 28.6927 11.7213 28.5447 11.8024 28.4016C11.8422 28.3309 11.882 28.2618 11.9281 28.1779C11.8899 28.1779 11.8708 28.1762 11.8517 28.1779C11.6036 28.2075 11.3554 28.2371 11.1072 28.27C11.034 28.2799 10.9847 28.2651 10.937 28.2042C10.7827 28.015 10.622 27.8308 10.4661 27.6433C10.4438 27.617 10.4359 27.5791 10.4216 27.5462C10.4073 27.5577 10.3929 27.5692 10.3786 27.5808C10.3261 27.8505 10.272 28.1203 10.2227 28.3917C10.2084 28.4707 10.1814 28.5184 10.1034 28.5463C9.99204 28.5875 9.88546 28.6401 9.77728 28.6895C9.63888 28.752 9.49888 28.8145 9.34298 28.8852C9.38912 28.9148 9.41616 28.9346 9.44639 28.951C9.6182 29.0513 9.78842 29.1583 9.965 29.2487C10.1018 29.3178 10.1941 29.4001 10.175 29.5712C10.1702 29.6205 10.1829 29.6715 10.1877 29.7208C10.2052 29.9133 10.2227 30.1041 10.2434 30.3229L10.245 30.3262Z" fill="#1B3F1E"/>
<path d="M14.2905 30.8263C13.8085 28.9691 13.3312 27.1219 12.8492 25.2598C18.0337 23.8237 23.2071 22.3893 28.3948 20.9517C28.8753 22.8088 29.3541 24.6561 29.8361 26.5182C24.6516 27.9542 19.4798 29.3886 14.2905 30.8263ZM24.2953 27.2518C24.2587 27.2008 24.238 27.1679 24.2141 27.1383C23.713 26.459 23.2103 25.7812 22.7076 25.1035C22.6662 25.0476 22.6519 24.9982 22.6694 24.9275C22.7983 24.3945 22.9224 23.8616 23.048 23.3286C23.0592 23.2793 23.0671 23.2283 23.0783 23.1608C22.854 23.2233 22.6519 23.2826 22.4467 23.3335C22.3783 23.35 22.3528 23.3878 22.3385 23.4553C22.2653 23.8418 22.1874 24.2284 22.111 24.615C22.0681 24.8337 22.0235 25.0542 21.979 25.2729C21.971 25.2729 21.9631 25.2729 21.9535 25.2729C21.8088 24.7153 21.664 24.1577 21.5161 23.5918C21.3443 23.6395 21.1868 23.6872 21.0293 23.725C20.9545 23.7431 20.9354 23.7695 20.9561 23.8501C21.2997 25.166 21.6401 26.4836 21.9822 27.7996C21.9885 27.8259 22.0013 27.8506 22.014 27.8835C22.1779 27.8374 22.3338 27.7914 22.4928 27.7535C22.5676 27.7354 22.5867 27.7075 22.566 27.6285C22.4801 27.311 22.4197 26.9837 22.3115 26.6744C22.2001 26.3553 22.329 26.074 22.3703 25.7516C22.4085 25.8043 22.4324 25.8339 22.4547 25.8651C22.8078 26.3668 23.161 26.8702 23.5157 27.3703C23.538 27.4015 23.5889 27.4426 23.6176 27.4361C23.8387 27.3818 24.0582 27.3176 24.2968 27.2518H24.2953ZM20.5202 25.3026C20.4788 24.9834 20.2736 24.5788 20.0589 24.3764C19.9173 24.2432 19.7486 24.1725 19.5593 24.1626C19.2857 24.1478 19.028 24.212 18.7878 24.3452C18.4919 24.508 18.3217 24.7663 18.3026 25.1101C18.2914 25.3091 18.2883 25.518 18.3328 25.7089C18.4744 26.3158 18.6335 26.9179 18.7973 27.5183C18.8641 27.765 18.985 27.9888 19.1537 28.1812C19.3064 28.3572 19.4973 28.4559 19.7248 28.479C19.9809 28.5036 20.2227 28.4444 20.4534 28.3375C20.7461 28.201 20.9275 27.9723 20.9815 27.64C21.0197 27.4097 21.0006 27.1827 20.9545 26.9557C20.9322 26.8422 20.9004 26.7287 20.8718 26.607C20.6681 26.6646 20.4836 26.7156 20.2895 26.7699C20.3054 26.8324 20.3198 26.8801 20.3277 26.9278C20.3563 27.0972 20.3961 27.265 20.4073 27.4361C20.4232 27.6828 20.3086 27.8522 20.1066 27.9213C19.8775 28.0003 19.6739 27.9394 19.545 27.7223C19.4623 27.5841 19.3923 27.4295 19.3493 27.2732C19.1966 26.7172 19.0519 26.1596 18.915 25.5986C18.8769 25.444 18.8625 25.2795 18.8641 25.12C18.8657 24.9078 19.02 24.7597 19.2618 24.7021C19.4909 24.6479 19.6596 24.7104 19.7566 24.9111C19.8234 25.0476 19.8648 25.1973 19.9157 25.342C19.9284 25.3782 19.9395 25.4144 19.9523 25.4555C20.1464 25.4013 20.3293 25.3503 20.5186 25.2976L20.5202 25.3026ZM25.385 22.5292C25.3595 22.5325 25.3452 22.5308 25.3325 22.5341C24.8505 22.6673 24.3668 22.8022 23.8848 22.9338C23.8005 22.9569 23.8164 23.0029 23.8323 23.0621C24.1712 24.3682 24.51 25.6743 24.8473 26.982C24.868 27.0659 24.895 27.0906 24.9825 27.0659C25.3102 26.9689 25.6395 26.8817 25.9672 26.7912C26.1279 26.7468 26.287 26.7008 26.4572 26.6531C26.4174 26.4984 26.3793 26.3553 26.3395 26.2007C26.0022 26.2928 25.6761 26.3816 25.3436 26.4738C25.2164 25.9819 25.0923 25.5049 24.9682 25.0213C25.2084 24.9538 25.4375 24.8897 25.6777 24.8222C25.6363 24.6643 25.5982 24.5179 25.56 24.3682C25.3118 24.4357 25.0827 24.4982 24.8489 24.5623C24.7343 24.1165 24.623 23.6889 24.5116 23.2562C24.8505 23.1608 25.1734 23.0704 25.5059 22.9782C25.4645 22.8203 25.4263 22.6772 25.3882 22.5325L25.385 22.5292ZM15.2688 25.903C15.4693 25.847 15.6602 25.7944 15.8511 25.7401C15.98 25.7039 15.98 25.7056 15.945 25.5674C15.9195 25.4671 15.8877 25.3667 15.8686 25.2664C15.8527 25.1792 15.8161 25.1693 15.7397 25.1923C15.1368 25.3618 14.5323 25.5279 13.9294 25.6957C13.9007 25.7039 13.8721 25.7171 13.8371 25.7286C13.8848 25.9079 13.9294 26.079 13.9755 26.2583C14.2173 26.1925 14.448 26.13 14.685 26.0642C14.9968 27.2666 15.3054 28.4576 15.6172 29.6567C15.8161 29.6008 16.0022 29.5498 16.2011 29.4939C15.8909 28.2947 15.5838 27.1071 15.2704 25.9013L15.2688 25.903ZM27.2526 22.5818C27.4483 22.5275 27.6312 22.4749 27.8142 22.4239C27.9892 22.3745 27.9621 22.3959 27.9208 22.2249C27.8985 22.1311 27.8667 22.039 27.8492 21.9436C27.8333 21.8547 27.7967 21.8482 27.7187 21.8695C27.1667 22.0258 26.6131 22.1771 26.0595 22.3301C25.98 22.3515 25.902 22.3762 25.8161 22.4025C25.8638 22.5851 25.9084 22.7578 25.9561 22.9355C26.1995 22.8697 26.4286 22.8072 26.6656 22.7414C26.9774 23.9438 27.286 25.1331 27.5978 26.3339C27.7983 26.278 27.9844 26.227 28.1817 26.1727C27.8699 24.9703 27.5628 23.7793 27.251 22.5802L27.2526 22.5818ZM16.5192 24.9769C16.8788 26.3635 17.2335 27.7338 17.5915 29.1106C17.7951 29.053 17.9812 29.0004 18.1737 28.9461C17.8158 27.5627 17.461 26.1958 17.1031 24.814C16.9042 24.8683 16.7181 24.9193 16.5192 24.9752V24.9769Z" fill="#1B3F1E"/>
</g>
<defs>
<clipPath id="clip0_95_14402">
<rect width="40" height="38" fill="white" transform="translate(0 1)"/>
</clipPath>
</defs>
</svg>
