<svg width="40" height="40" viewBox="0 0 40 40" fill="none" xmlns="http://www.w3.org/2000/svg">
<g clip-path="url(#clip0_95_14413)">
<path fill-rule="evenodd" clip-rule="evenodd" d="M37 2C38.6569 2 40 3.34315 40 5V26.124C38.6353 23.6646 36.012 22 33 22C28.5817 22 25 25.5817 25 30H3C1.34315 30 0 28.6569 0 27V5C0 3.34315 1.34315 2 3 2H37ZM8.98851 10.4277C9.28246 10.236 9.69369 10.086 10.0959 10.0239C10.3655 9.98233 10.7817 9.99609 11.0788 10.0565C12.0398 10.2518 12.7239 10.8747 12.9318 11.7439C12.9806 11.9481 12.9864 12.6456 12.9408 12.8371C12.9212 12.9196 12.9372 13.0065 12.985 13.0765L13.0297 13.1421C13.0955 13.2386 13.173 13.3764 13.2018 13.4484C13.2671 13.6113 13.2882 13.8878 13.248 14.0531C13.1777 14.3417 12.932 14.6651 12.6122 14.8898C12.4693 14.9902 12.454 15.0109 12.2927 15.3196C11.8114 16.241 11.2761 16.7679 10.7431 16.845C10.5713 16.8698 10.2488 16.8578 10.1318 16.8222C9.90693 16.7538 9.70951 16.6291 9.48404 16.4131C9.17169 16.1138 8.84617 15.6373 8.61146 15.1358C8.55786 15.0213 8.52097 14.9787 8.41478 14.9087C8.11583 14.7117 7.86546 14.4072 7.77936 14.1359C7.73782 14.005 7.73075 13.9375 7.74069 13.7661C7.755 13.5192 7.80103 13.3914 7.96096 13.1548C8.03462 13.0459 8.06676 12.9141 8.05154 12.7835L8.04552 12.7318C8.00492 12.3832 8.02613 11.8904 8.09198 11.6525C8.15411 11.428 8.30064 11.1295 8.44019 10.943C8.5609 10.7818 8.82235 10.536 8.98851 10.4277ZM8.57375 16.5632C8.76492 16.4917 8.95907 16.4187 9.00522 16.401C9.12773 16.3539 9.13465 16.3562 9.23499 16.4753C9.36604 16.631 9.59572 16.8371 9.74247 16.9309C10.166 17.2013 10.6437 17.2376 11.0807 17.0324C11.2837 16.937 11.6243 16.6565 11.7738 16.4613C11.8133 16.4097 11.8573 16.3672 11.8714 16.3669C11.8856 16.3666 12.0755 16.4324 12.2934 16.513C13.5128 16.9641 14.3186 17.3922 14.8817 17.8881C15.5246 18.4542 15.8828 19.1311 15.9823 19.9674C16.0112 20.2106 16.0029 20.9239 15.9706 20.9739C15.9581 20.9933 14.5466 21 10.4932 21H5.14021C5.07851 21 5.02619 20.9546 5.01744 20.8936C4.98379 20.6585 5.00131 20.0232 5.0488 19.7574C5.19324 18.9488 5.58319 18.3115 6.26866 17.7639C6.8107 17.3308 7.54747 16.9471 8.57375 16.5632ZM23.9999 11C23.4476 11 22.9999 11.4477 22.9999 12C22.9999 12.5523 23.4476 13 23.9999 13H33.9999C34.5522 13 34.9999 12.5523 34.9999 12C34.9999 11.4477 34.5522 11 33.9999 11H23.9999ZM22.9999 16C22.9999 15.4477 23.4476 15 23.9999 15H33.9999C34.5522 15 34.9999 15.4477 34.9999 16C34.9999 16.5523 34.5522 17 33.9999 17H23.9999C23.4476 17 22.9999 16.5523 22.9999 16ZM23.9999 19C23.4476 19 22.9999 19.4477 22.9999 20C22.9999 20.5523 23.4476 21 23.9999 21H33.9999C34.5522 21 34.9999 20.5523 34.9999 20C34.9999 19.4477 34.5522 19 33.9999 19H23.9999Z" fill="#3DAE72"/>
<path d="M0 5C0 3.34315 1.34315 2 3 2H37C38.6569 2 40 3.34315 40 5V5.96501H0V5Z" fill="#1B3F1E"/>
<path fill-rule="evenodd" clip-rule="evenodd" d="M33 37C36.866 37 40 33.866 40 30C40 26.134 36.866 23 33 23C29.134 23 26 26.134 26 30C26 33.866 29.134 37 33 37ZM33 26L36 30H34V34H32V30H30L33 26Z" fill="url(#paint0_linear_95_14413)"/>
</g>
<defs>
<linearGradient id="paint0_linear_95_14413" x1="33" y1="37" x2="33" y2="23" gradientUnits="userSpaceOnUse">
<stop stop-color="#BB904E"/>
<stop offset="1" stop-color="#F7F3B2"/>
</linearGradient>
<clipPath id="clip0_95_14413">
<rect width="40" height="40" fill="white"/>
</clipPath>
</defs>
</svg>
