<svg width="40" height="40" viewBox="0 0 40 40" fill="none" xmlns="http://www.w3.org/2000/svg">
<g clip-path="url(#clip0_95_14330)">
<path d="M20.9638 14H0.356422C-0.192728 15.0358 -0.4833 16.1921 -0.489899 17.3679H11.0917V40H14.4144V31.1489C15.5829 32.1984 16.9845 32.9459 18.4997 33.3274C20.0149 33.7089 21.5987 33.7131 23.1158 33.3398C24.633 32.9664 26.0385 32.2266 27.2125 31.1834C28.3864 30.1402 29.2939 28.8245 29.8575 27.3488C30.4211 25.8731 30.6241 24.281 30.4491 22.7085C30.2741 21.1361 29.7264 19.6298 28.8526 18.3184C27.9789 17.007 26.8051 15.9293 25.4314 15.1773C24.0576 14.4254 22.5249 14.0214 20.9638 14ZM20.8315 30.1035C19.6037 30.103 18.4036 29.7335 17.383 29.0417C16.3624 28.3499 15.567 27.3668 15.0976 26.2169C14.6282 25.067 14.5057 23.8018 14.7457 22.5813C14.9857 21.3608 15.5774 20.2399 16.4459 19.3602C17.3145 18.4806 18.4209 17.8817 19.6252 17.6394C20.8295 17.3971 22.0776 17.5222 23.2118 17.9989C24.346 18.4756 25.3152 19.2824 25.9969 20.3174C26.6787 21.3525 27.0423 22.5692 27.0418 23.8137C27.0399 25.4808 26.3858 27.0791 25.223 28.2582C24.0602 29.4373 22.4835 30.1009 20.8387 30.1035H20.8315Z" fill="#3DAE72"/>
<path d="M21.0025 30.852C17.795 23.7367 16.9129 18.4887 25.7298 13.1971L27.6263 21.1891C21.2221 25.9494 21.7533 28.3621 23.3411 31.2259L21.0025 30.852Z" fill="url(#paint0_linear_95_14330)"/>
<path d="M39.0723 6.0668L34.9312 0.0351785L23.5557 7.4773L27.935 13.6213L39.0723 6.0668Z" fill="#3DAE72"/>
<path d="M21.301 22.9499C18.4333 15.8633 20.0406 9.00395 25.2477 6.37115L29.0157 12.957C21.9911 17.548 22.2568 20.5029 23.7214 23.3604L21.301 22.9499Z" fill="url(#paint1_linear_95_14330)"/>
<path fill-rule="evenodd" clip-rule="evenodd" d="M37.9394 6.25235L34.3218 0.983222L24.6839 7.28862L28.506 12.6511L37.9394 6.25235ZM25.2929 7.4033L34.2055 1.57247L37.341 6.1394L28.6122 12.0602L25.2929 7.4033Z" fill="white"/>
<circle cx="2.10689" cy="2.10689" r="2.10689" transform="matrix(0.520939 -0.853594 -0.853594 -0.520939 32.1474 9.677)" fill="white"/>
<path d="M37.9128 13.4403L33.5204 7.58907L22.4697 15.5054L27.1047 21.4588L37.9128 13.4403Z" fill="#1B3F1E"/>
<path fill-rule="evenodd" clip-rule="evenodd" d="M36.7892 13.6734L32.9521 8.56188L23.5893 15.269L27.6347 20.4652L36.7892 13.6734ZM24.2027 15.3579L32.8608 9.15552L36.1865 13.5858L27.7158 19.8703L24.2027 15.3579Z" fill="white"/>
<circle cx="2.10689" cy="2.10689" r="2.10689" transform="matrix(0.484392 -0.874851 -0.874851 -0.484392 31.1466 17.3398)" fill="white"/>
<mask id="path-10-inside-1_95_14330" fill="white">
<path fill-rule="evenodd" clip-rule="evenodd" d="M30.5895 6.64669L30.4068 6.7654L30.6188 7.09172L30.8015 6.97301L31.2319 7.62145C31.4561 7.8694 31.8608 7.90897 32.183 7.69966C32.5363 7.4702 32.6565 7.02851 32.4517 6.71312C32.3948 6.62553 32.3188 6.5569 32.2311 6.50836L31.6536 6.88351C31.8049 6.78558 31.9985 6.81552 32.0862 6.95053C32.174 7.0857 32.1224 7.275 31.9711 7.37334C31.8197 7.47168 31.6258 7.44183 31.538 7.30666L31.485 7.22508L31.2027 6.79055L31.167 6.7356L31.8979 6.26077L31.686 5.93444L30.955 6.40927L30.69 6.00137C30.5437 5.77609 30.2205 5.72634 29.9682 5.89024C29.7159 6.05414 29.63 6.36964 29.7763 6.59492L29.7774 6.59656L29.8293 6.67649L30.1948 6.43908L30.1418 6.35751C30.1125 6.31245 30.1297 6.24935 30.1802 6.21657C30.2306 6.18379 30.2953 6.19374 30.3245 6.2388L30.5895 6.64669Z"/>
</mask>
<path d="M30.5895 6.64669L31.2582 7.67608L32.2876 7.00736L31.6189 5.97796L30.5895 6.64669ZM30.4068 6.7654L29.7381 5.73601L28.7087 6.4047L29.3774 7.43409L30.4068 6.7654ZM30.6188 7.09172L29.5894 7.76042L30.2581 8.7898L31.2875 8.12111L30.6188 7.09172ZM30.8015 6.97301L31.8242 6.29414L31.152 5.28154L30.1328 5.94363L30.8015 6.97301ZM31.2319 7.62145L30.2092 8.30033L30.2599 8.37662L30.3213 8.44456L31.2319 7.62145ZM32.2311 6.50836L32.8258 5.43451L32.1808 5.0773L31.5624 5.47897L32.2311 6.50836ZM31.6536 6.88351L30.9849 5.85412L32.3206 7.91402L31.6536 6.88351ZM31.538 7.30666L32.5673 6.63796L32.5673 6.63794L31.538 7.30666ZM31.485 7.22508L30.4556 7.89377L30.4556 7.8938L31.485 7.22508ZM31.2027 6.79055L32.2321 6.12186L32.232 6.12178L31.2027 6.79055ZM31.167 6.7356L30.4983 5.70621L29.4688 6.37495L30.1376 7.40436L31.167 6.7356ZM31.8979 6.26077L32.5666 7.29015L33.596 6.62146L32.9273 5.59207L31.8979 6.26077ZM31.686 5.93444L32.7154 5.26575L32.0467 4.23636L31.0173 4.90505L31.686 5.93444ZM30.955 6.40927L29.9256 7.07797L30.5943 8.10735L31.6237 7.43866L30.955 6.40927ZM30.69 6.00137L31.7194 5.33268L31.7194 5.33267L30.69 6.00137ZM29.7763 6.59492L28.7469 7.26361L28.7484 7.26588L29.7763 6.59492ZM29.7774 6.59656L30.8068 5.92786L30.8053 5.92559L29.7774 6.59656ZM29.8293 6.67649L28.7999 7.34519L29.4686 8.37457L30.498 7.70588L29.8293 6.67649ZM30.1948 6.43908L30.8635 7.46847L31.8929 6.79978L31.2242 5.77039L30.1948 6.43908ZM30.3245 6.2388L29.2952 6.90749L29.2952 6.90752L30.3245 6.2388ZM31.0755 7.79479L31.2582 7.67608L29.9208 5.6173L29.7381 5.73601L31.0755 7.79479ZM31.6482 6.42303L31.4362 6.09671L29.3774 7.43409L29.5894 7.76042L31.6482 6.42303ZM30.1328 5.94363L29.9501 6.06234L31.2875 8.12111L31.4702 8.0024L30.1328 5.94363ZM30.3213 8.44456C31.0105 9.20702 32.1037 9.21493 32.8517 8.72905L31.5143 6.67028C31.6179 6.60301 31.9016 6.53177 32.1426 6.79834L30.3213 8.44456ZM32.8517 8.72905C33.6607 8.20355 34.1245 7.03492 33.481 6.04443L31.4223 7.38181C31.3138 7.21481 31.3093 7.03701 31.3422 6.91612C31.3744 6.79805 31.443 6.71663 31.5143 6.67028L32.8517 8.72905ZM33.481 6.04443C33.3097 5.78069 33.0813 5.57602 32.8258 5.43451L31.6364 7.58221C31.5562 7.53778 31.4798 7.47038 31.4223 7.38181L33.481 6.04443ZM31.5624 5.47897L30.9849 5.85412L32.3223 7.9129L32.8998 7.53775L31.5624 5.47897ZM32.3206 7.91402C32.0162 8.11104 31.4071 8.15848 31.0568 7.61923L33.1156 6.28184C32.5899 5.47257 31.5937 5.46013 30.9866 5.853L32.3206 7.91402ZM31.0568 7.61923C30.706 7.07929 30.998 6.54165 31.3024 6.34395L32.6397 8.40273C33.2469 8.00835 33.6419 7.09211 33.1156 6.28184L31.0568 7.61923ZM31.3024 6.34395C31.6067 6.14625 32.2166 6.09803 32.5673 6.63796L30.5086 7.97536C31.0349 8.78562 32.0326 8.7971 32.6397 8.40273L31.3024 6.34395ZM32.5673 6.63794L32.5143 6.55636L30.4556 7.8938L30.5086 7.97538L32.5673 6.63794ZM30.1376 7.40436L30.1733 7.45931L32.232 6.12178L32.1963 6.06683L30.1376 7.40436ZM31.2293 5.23138L30.4983 5.70621L31.8357 7.76498L32.5666 7.29015L31.2293 5.23138ZM30.6566 6.60313L30.8686 6.92946L32.9273 5.59207L32.7154 5.26575L30.6566 6.60313ZM31.6237 7.43866L32.3547 6.96383L31.0173 4.90505L30.2863 5.37989L31.6237 7.43866ZM29.6606 6.67006L29.9256 7.07797L31.9844 5.74058L31.7194 5.33268L29.6606 6.67006ZM30.6369 6.91963C30.4335 7.05176 29.9529 7.1199 29.6606 6.67007L31.7194 5.33267C31.1345 4.43228 30.0075 4.40092 29.2995 4.86085L30.6369 6.91963ZM30.8057 5.92622C31.0979 6.37605 30.8403 6.78749 30.6369 6.91963L29.2995 4.86085C28.5915 5.32079 28.162 6.36322 28.7469 7.26361L30.8057 5.92622ZM30.8053 5.92559L30.8042 5.92395L28.7484 7.26588L28.7495 7.26752L30.8053 5.92559ZM30.8587 6.0078L30.8068 5.92787L28.748 7.26525L28.7999 7.34519L30.8587 6.0078ZM29.1124 7.0262L29.1654 7.10778L31.2242 5.77039L31.1712 5.68881L29.1124 7.0262ZM29.5115 5.18718C29.0053 5.51601 28.6446 6.30605 29.1124 7.0262L31.1712 5.68881C31.5805 6.31885 31.2541 6.98269 30.8489 7.24596L29.5115 5.18718ZM31.3539 5.5701C30.8861 4.84994 30.0177 4.85836 29.5115 5.18718L30.8489 7.24596C30.4436 7.50922 29.7044 7.53754 29.2952 6.90749L31.3539 5.5701ZM31.6189 5.97796L31.3539 5.57007L29.2952 6.90752L29.5602 7.31542L31.6189 5.97796ZM32.5144 6.55639L32.2321 6.12186L30.1733 7.45923L30.4556 7.89377L32.5144 6.55639ZM29.5261 5.4097L29.1606 5.64711L30.498 7.70588L30.8635 7.46847L29.5261 5.4097ZM32.2546 6.94258L31.8242 6.29414L29.7788 7.65189L30.2092 8.30033L32.2546 6.94258Z" fill="#3DAE72" mask="url(#path-10-inside-1_95_14330)"/>
<mask id="path-12-inside-2_95_14330" fill="white">
<path fill-rule="evenodd" clip-rule="evenodd" d="M29.5887 14.4597L29.406 14.5784L29.618 14.9047L29.8007 14.786L30.2312 15.4344C30.4553 15.6824 30.86 15.722 31.1822 15.5127C31.5355 15.2832 31.6557 14.8415 31.4509 14.5261C31.394 14.4385 31.318 14.3699 31.2303 14.3213L30.6528 14.6965C30.8041 14.5986 30.9977 14.6285 31.0854 14.7635C31.1732 14.8987 31.1216 15.088 30.9703 15.1863C30.8189 15.2847 30.625 15.2548 30.5372 15.1196L30.4842 15.0381L30.2019 14.6035L30.1662 14.5486L30.8972 14.0738L30.6852 13.7474L29.9542 14.2223L29.6892 13.8144C29.5429 13.5891 29.2197 13.5393 28.9674 13.7032C28.7151 13.8671 28.6292 14.1826 28.7755 14.4079L28.7766 14.4095L28.8285 14.4895L29.194 14.2521L29.141 14.1705C29.1117 14.1254 29.1289 14.0623 29.1794 14.0296C29.2298 13.9968 29.2945 14.0067 29.3237 14.0518L29.5887 14.4597Z"/>
</mask>
<path d="M29.5887 14.4597L30.2574 15.4891L31.2869 14.8204L30.6181 13.791L29.5887 14.4597ZM29.406 14.5784L28.7373 13.549L27.7079 14.2177L28.3766 15.2471L29.406 14.5784ZM29.618 14.9047L28.5886 15.5734L29.2573 16.6028L30.2867 15.9341L29.618 14.9047ZM29.8007 14.786L30.8234 14.1071L30.1512 13.0945L29.132 13.7566L29.8007 14.786ZM30.2312 15.4344L29.2085 16.1133L29.2591 16.1896L29.3205 16.2575L30.2312 15.4344ZM31.2303 14.3213L31.825 13.2475L31.18 12.8903L30.5616 13.292L31.2303 14.3213ZM30.6528 14.6965L29.9841 13.6671L31.3198 15.727L30.6528 14.6965ZM30.5372 15.1196L31.5665 14.451L31.5665 14.4509L30.5372 15.1196ZM30.4842 15.0381L29.4548 15.7068L29.4548 15.7068L30.4842 15.0381ZM30.2019 14.6035L31.2313 13.9348L31.2312 13.9348L30.2019 14.6035ZM30.1662 14.5486L29.4975 13.5192L28.468 14.1879L29.1369 15.2173L30.1662 14.5486ZM30.8972 14.0738L31.5658 15.1031L32.5952 14.4344L31.9265 13.4051L30.8972 14.0738ZM30.6852 13.7474L31.7146 13.0787L31.0459 12.0494L30.0165 12.718L30.6852 13.7474ZM29.9542 14.2223L28.9248 14.891L29.5935 15.9203L30.6229 15.2517L29.9542 14.2223ZM29.6892 13.8144L30.7186 13.1457L30.7186 13.1457L29.6892 13.8144ZM28.7755 14.4079L27.7461 15.0766L27.7476 15.0789L28.7755 14.4079ZM28.7766 14.4095L29.806 13.7409L29.8045 13.7386L28.7766 14.4095ZM28.8285 14.4895L27.7991 15.1582L28.4678 16.1876L29.4972 15.5189L28.8285 14.4895ZM29.194 14.2521L29.8627 15.2815L30.8921 14.6128L30.2234 13.5834L29.194 14.2521ZM29.3237 14.0518L28.2944 14.7205L28.2944 14.7205L29.3237 14.0518ZM30.0747 15.6078L30.2574 15.4891L28.92 13.4303L28.7373 13.549L30.0747 15.6078ZM30.6474 14.236L30.4354 13.9097L28.3766 15.2471L28.5886 15.5734L30.6474 14.236ZM29.132 13.7566L28.9493 13.8753L30.2867 15.9341L30.4694 15.8154L29.132 13.7566ZM29.3205 16.2575C30.0097 17.02 31.103 17.0279 31.8509 16.542L30.5135 14.4833C30.6171 14.416 30.9009 14.3448 31.1418 14.6113L29.3205 16.2575ZM31.8509 16.542C32.6599 16.0165 33.1237 14.8479 32.4802 13.8574L30.4215 15.1948C30.313 15.0278 30.3085 14.85 30.3414 14.7291C30.3736 14.611 30.4422 14.5296 30.5135 14.4833L31.8509 16.542ZM32.4802 13.8574C32.3089 13.5937 32.0805 13.389 31.825 13.2475L30.6356 15.3952C30.5554 15.3508 30.479 15.2834 30.4215 15.1948L32.4802 13.8574ZM30.5616 13.292L29.9841 13.6671L31.3215 15.7259L31.899 15.3507L30.5616 13.292ZM31.3198 15.727C31.0154 15.924 30.4063 15.9715 30.056 15.4322L32.1148 14.0948C31.5891 13.2856 30.5929 13.2731 29.9859 13.666L31.3198 15.727ZM30.056 15.4322C29.7053 14.8923 29.9972 14.3546 30.3016 14.1569L31.639 16.2157C32.2461 15.8213 32.6411 14.9051 32.1148 14.0948L30.056 15.4322ZM30.3016 14.1569C30.6059 13.9592 31.2158 13.911 31.5665 14.451L29.5078 15.7883C30.0341 16.5986 31.0318 16.6101 31.639 16.2157L30.3016 14.1569ZM31.5665 14.4509L31.5135 14.3693L29.4548 15.7068L29.5078 15.7884L31.5665 14.4509ZM29.1369 15.2173L29.1726 15.2723L31.2312 13.9348L31.1955 13.8798L29.1369 15.2173ZM30.2285 13.0444L29.4975 13.5192L30.8349 15.578L31.5658 15.1031L30.2285 13.0444ZM29.6558 14.4161L29.8678 14.7424L31.9265 13.4051L31.7146 13.0787L29.6558 14.4161ZM30.6229 15.2517L31.3539 14.7768L30.0165 12.718L29.2855 13.1929L30.6229 15.2517ZM28.6599 14.4831L28.9248 14.891L30.9836 13.5536L30.7186 13.1457L28.6599 14.4831ZM29.6361 14.7326C29.4327 14.8647 28.9521 14.9329 28.6599 14.4831L30.7186 13.1457C30.1337 12.2453 29.0067 12.2139 28.2987 12.6738L29.6361 14.7326ZM29.8049 13.7392C30.0971 14.189 29.8395 14.6005 29.6361 14.7326L28.2987 12.6738C27.5907 13.1338 27.1613 14.1762 27.7461 15.0766L29.8049 13.7392ZM29.8045 13.7386L29.8034 13.7369L27.7476 15.0789L27.7487 15.0805L29.8045 13.7386ZM29.8579 13.8208L29.806 13.7409L27.7472 15.0782L27.7991 15.1582L29.8579 13.8208ZM28.1116 14.8392L28.1646 14.9208L30.2234 13.5834L30.1704 13.5018L28.1116 14.8392ZM28.5107 13.0002C28.0045 13.329 27.6438 14.119 28.1116 14.8392L30.1704 13.5018C30.5797 14.1318 30.2534 14.7957 29.8481 15.0589L28.5107 13.0002ZM30.3531 13.3831C29.8853 12.6629 29.0169 12.6714 28.5107 13.0002L29.8481 15.0589C29.4428 15.3222 28.7036 15.3505 28.2944 14.7205L30.3531 13.3831ZM30.6181 13.791L30.3531 13.3831L28.2944 14.7205L28.5594 15.1284L30.6181 13.791ZM31.5136 14.3694L31.2313 13.9348L29.1725 15.2722L29.4548 15.7068L31.5136 14.3694ZM28.5253 13.2227L28.1598 13.4601L29.4972 15.5189L29.8627 15.2815L28.5253 13.2227ZM31.2539 14.7556L30.8234 14.1071L28.778 15.4649L29.2085 16.1133L31.2539 14.7556Z" fill="#1B3F1E" mask="url(#path-12-inside-2_95_14330)"/>
</g>
<defs>
<linearGradient id="paint0_linear_95_14330" x1="26.7151" y1="16.7405" x2="20.3169" y2="25.8752" gradientUnits="userSpaceOnUse">
<stop stop-color="#1B3F1E"/>
<stop offset="1" stop-color="#1B3F1E" stop-opacity="0"/>
</linearGradient>
<linearGradient id="paint1_linear_95_14330" x1="28.2427" y1="9.10732" x2="21.5757" y2="18.4834" gradientUnits="userSpaceOnUse">
<stop stop-color="#3DAE72"/>
<stop offset="1" stop-color="#3DAE72" stop-opacity="0"/>
</linearGradient>
<clipPath id="clip0_95_14330">
<rect width="40" height="40" fill="white"/>
</clipPath>
</defs>
</svg>
