<svg width="40" height="40" viewBox="0 0 40 40" fill="none" xmlns="http://www.w3.org/2000/svg">
<circle cx="25.5" cy="28.5" r="2.5" fill="#D7BD7C"/>
<rect x="7" y="4" width="26" height="32" fill="#1B3F1E" fill-opacity="0.1"/>
<path fill-rule="evenodd" clip-rule="evenodd" d="M33 4H7V36H33V34H9V6H31V34H33V4Z" fill="#3DAE72"/>
<rect x="11" y="9" width="9" height="2" rx="1" fill="#1B3F1E"/>
<rect x="11" y="13" width="9" height="2" rx="1" fill="#1B3F1E"/>
<rect x="11" y="17" width="9" height="2" rx="1" fill="#1B3F1E"/>
<path fill-rule="evenodd" clip-rule="evenodd" d="M24.1 12.5714H23.4V14H24.1V16.8571H24.1248C24.2947 18.0687 25.3157 19 26.55 19C27.9031 19 29 17.8807 29 16.5C29 16.1166 28.9154 15.7533 28.7642 15.4286L26.552 15.4286C27.131 15.4297 27.6 15.9089 27.6 16.5C27.6 17.0917 27.1299 17.5714 26.55 17.5714C25.9701 17.5714 25.5 17.0917 25.5 16.5L25.5 16.1429L25.5 14.2406L25.5 14H28.3V12.5714H25.5V10.7857C25.5 9.79949 24.7165 9 23.75 9C22.7835 9 22 9.79949 22 10.7857L22 10.7929V11.1429H23.4V10.7857C23.4 10.5885 23.5567 10.4286 23.75 10.4286C23.9433 10.4286 24.1 10.5885 24.1 10.7857L24.1 12.5714Z" fill="#1B3F1E"/>
<path d="M12 23V27.7955H13.3636V32L17 26.2665H14.8182L17 23H12Z" fill="#D7BD7C"/>
<path d="M25.5 32C24.574 32 23.7592 31.6619 23.0557 30.9856C22.3519 30.309 22 29.3936 22 28.2395C22 27.5134 22.2625 26.7261 22.7875 25.8777C23.3125 25.0293 24.1073 24.1121 25.1719 23.1261C25.2156 23.0879 25.2667 23.0573 25.325 23.0344C25.3833 23.0115 25.4417 23 25.5 23C25.5583 23 25.6167 23.0115 25.675 23.0344C25.7333 23.0573 25.7844 23.0879 25.8281 23.1261C26.8927 24.1121 27.6875 25.0293 28.2125 25.8777C28.7375 26.7261 29 27.5134 29 28.2395C29 29.3936 28.6481 30.309 27.9443 30.9856C27.2408 31.6619 26.426 32 25.5 32ZM25.6203 30.6242C25.7078 30.6166 25.7826 30.5803 25.8447 30.5155C25.9066 30.4504 25.9375 30.372 25.9375 30.2803C25.9375 30.1732 25.9047 30.0873 25.8391 30.0225C25.7734 29.9574 25.6896 29.9287 25.5875 29.9363C25.2885 29.9592 24.9714 29.8733 24.6359 29.6786C24.3005 29.4835 24.0891 29.1299 24.0016 28.6178C23.987 28.5338 23.9486 28.465 23.8865 28.4115C23.8247 28.358 23.7536 28.3312 23.6734 28.3312C23.5714 28.3312 23.4875 28.3713 23.4219 28.4514C23.3563 28.5318 23.3344 28.6255 23.3562 28.7325C23.4802 29.428 23.7719 29.9248 24.2313 30.2229C24.6906 30.521 25.1536 30.6548 25.6203 30.6242Z" fill="#1B3F1E"/>
</svg>
