<svg width="40" height="40" viewBox="0 0 40 40" fill="none" xmlns="http://www.w3.org/2000/svg">
<path d="M6.13149 10.5L20 3.13235L33.8685 10.5L20 17.8676L6.13149 10.5Z" fill="#1B3F1E" fill-opacity="0.1" stroke="#3DAE72" stroke-width="2"/>
<path fill-rule="evenodd" clip-rule="evenodd" d="M12 16.75V20.75L20 25L28 20.75V16.75L20 21L12 16.75Z" fill="#D7BD7C"/>
<path d="M30 28.6667H30.6667L30.6667 28L30.6666 25.5C30.6666 25.5 30.6666 25.5 30.6666 25.5C30.6666 24.8557 30.1443 24.3333 29.4999 24.3333C28.9122 24.3333 28.426 24.768 28.3451 25.3333H27.6741C27.7583 24.3989 28.5437 23.6667 29.5 23.6667C30.5125 23.6667 31.3333 24.4875 31.3333 25.5V28V28.6667H32H35.3333V29.3333H32H31.3333L31.3333 30L31.3334 30.3368V30.3368L31.3334 33V33L31.3334 33.5C31.3334 34.6966 32.3034 35.6667 33.5 35.6667C34.6966 35.6667 35.6667 34.6966 35.6667 33.5C35.6667 33.2047 35.6076 32.9232 35.5006 32.6667L36.209 32.6667C36.2898 32.9296 36.3333 33.2093 36.3333 33.5C36.3333 35.0648 35.0648 36.3333 33.5 36.3333C32.0732 36.3333 30.8917 35.2781 30.6954 33.9056L30.6667 33.7048V30V29.3333H30H29.6667V28.6667H30Z" stroke="#3DAE72" stroke-width="1.33333"/>
<path fill-rule="evenodd" clip-rule="evenodd" d="M32 14L30 15V22.0354C30.7788 22.1468 31.4749 22.5146 32 23.0505V14Z" fill="#3DAE72"/>
<circle cx="20" cy="9" r="2" fill="#3DAE72"/>
<path d="M32 12.62L20.5 8L20 9.62L30 13.7L32 12.62Z" fill="#3DAE72"/>
<path fill-rule="evenodd" clip-rule="evenodd" d="M26 31H3V37C3 37.5523 3.44772 38 4 38H26V36H6C5.44772 36 5 35.5523 5 35V34C5 33.4477 5.44772 33 6 33H26V31Z" fill="#1B3F1E"/>
<path d="M6 27H23L26 31H3L6 27Z" fill="#1B3F1E"/>
<rect x="5" y="33" width="21" height="3" fill="#1B3F1E" fill-opacity="0.1"/>
</svg>
