<svg width="40" height="40" viewBox="0 0 40 40" fill="none" xmlns="http://www.w3.org/2000/svg">
<g clip-path="url(#clip0_95_14244)">
<path d="M10.108 14.5193C10.0695 14.5238 10.0611 14.5615 10.0434 14.5878C9.51554 15.3643 8.98765 16.1409 8.45976 16.9162C7.84753 17.8161 7.23426 18.716 6.62203 19.617C6.02125 20.4997 5.42256 21.3847 4.82178 22.2675C4.05233 23.3991 3.28184 24.5297 2.51239 25.6602C2.04072 26.3534 1.56906 27.0466 1.09947 27.742C1.05574 27.8071 1.00993 27.8368 0.933921 27.8357C0.650713 27.8311 0.368546 27.8345 0.0853382 27.8334C0.0593081 27.8334 0.0249483 27.8471 0.00828902 27.8197C-0.0146175 27.7831 0.0187011 27.7569 0.0364016 27.7306C0.365423 27.211 0.694444 26.6914 1.02451 26.173C1.76272 25.0116 2.50094 23.8502 3.23915 22.6877C4.0565 21.4019 4.87384 20.1172 5.69015 18.8313C6.34715 17.7967 7.00415 16.7609 7.66115 15.7263C7.95477 15.2638 8.25047 14.8013 8.54305 14.3377C8.67737 14.1242 8.76379 13.8935 8.75442 13.6274C8.74296 13.3259 8.60344 13.1101 8.38583 12.9434C8.2359 12.828 8.06722 12.7595 7.88917 12.7184C7.78505 12.6944 7.7861 12.6933 7.78505 12.5757C7.78505 12.4809 7.78714 12.3861 7.78297 12.2913C7.77985 12.2274 7.8038 12.2057 7.85898 12.2091C7.89022 12.2114 7.92145 12.2091 7.95373 12.2091C9.42287 12.2091 10.892 12.2091 12.3612 12.2091C12.3851 12.2091 12.408 12.2091 12.432 12.2091C12.4778 12.2079 12.4955 12.2342 12.4934 12.281C12.4934 12.3073 12.4934 12.3324 12.4934 12.3587C12.4934 17.4667 12.4934 22.5735 12.4934 27.6815C12.4934 27.6986 12.4934 27.7158 12.4934 27.7329C12.4903 27.8277 12.4871 27.8334 12.3966 27.8334C11.674 27.8334 10.9514 27.8334 10.2288 27.8334C10.1309 27.8334 10.1288 27.8288 10.1267 27.726C10.1267 27.6963 10.1267 27.6655 10.1267 27.6358C10.1267 25.3188 10.1267 23.0017 10.1267 20.6847C10.1267 20.663 10.1267 20.6413 10.1267 20.6196C10.1267 20.4929 10.1257 20.4929 10.0091 20.4929C9.08656 20.4929 8.16301 20.4929 7.2405 20.4929C7.09578 20.4929 7.09578 20.4929 7.16554 20.3501C7.33525 20.0052 7.50809 19.6627 7.67469 19.3166C7.71217 19.239 7.7559 19.2082 7.8392 19.2093C8.54618 19.2139 9.25315 19.2116 9.96013 19.2116C9.9872 19.2116 10.0153 19.2116 10.0424 19.2116C10.1236 19.2082 10.1236 19.2082 10.1267 19.1134C10.1267 19.0962 10.1267 19.0791 10.1267 19.062C10.1267 17.5843 10.1267 16.1077 10.1267 14.63C10.1267 14.5935 10.1403 14.5524 10.1111 14.5193H10.108Z" fill="#002395"/>
<path d="M24.7338 12.242C24.5433 12.3688 24.358 12.5046 24.1768 12.6474C23.8988 12.8655 23.6343 13.1019 23.3855 13.3588C23.3261 13.4205 23.2678 13.4445 23.1876 13.4445C21.7893 13.4422 20.391 13.4433 18.9926 13.4433C18.4116 13.4433 17.8296 13.4433 17.2486 13.4433C17.2174 13.4433 17.1861 13.4433 17.1539 13.4433C17.1164 13.4433 17.0956 13.465 17.0956 13.5073C17.0956 13.5415 17.0956 13.5758 17.0956 13.6101C17.0956 15.4361 17.0956 17.262 17.0956 19.088C17.0956 19.1916 17.1424 19.2434 17.2361 19.2434C18.344 19.2434 19.4508 19.2434 20.5586 19.2434C20.7783 19.2434 20.7356 19.2296 20.7273 19.4318C20.7137 19.7549 20.7075 20.077 20.719 20.4002C20.7231 20.5258 20.7231 20.5269 20.6065 20.5269C19.507 20.5269 18.4075 20.5269 17.3069 20.5269C17.2559 20.5269 17.2049 20.5269 17.1539 20.5269C17.1101 20.5269 17.0883 20.5486 17.0935 20.5989C17.0956 20.624 17.0935 20.6502 17.0935 20.6765C17.0935 23.0152 17.0935 25.3528 17.0935 27.6916C17.0935 27.7178 17.0935 27.743 17.0935 27.7692C17.0935 27.8103 17.0747 27.8332 17.0362 27.8332C17.0123 27.8332 16.9894 27.8332 16.9654 27.8332C16.2626 27.8332 15.5598 27.8332 14.8559 27.8332C14.8361 27.8332 14.8164 27.832 14.7966 27.8332C14.7476 27.8366 14.7226 27.8138 14.7258 27.7578C14.7268 27.7361 14.7258 27.7144 14.7258 27.6927C14.7258 23.2619 14.7258 18.83 14.7258 14.3992C14.7258 14.2005 14.7185 14.0029 14.6706 13.8099C14.5529 13.3326 14.2676 13.0231 13.8595 12.8392C13.7106 12.7719 13.5555 12.7239 13.3972 12.6954C13.3378 12.6851 13.316 12.66 13.317 12.596C13.3191 12.4932 13.3191 12.3893 13.317 12.2865C13.317 12.2329 13.3347 12.2066 13.3857 12.2089C13.4284 12.2112 13.4722 12.2089 13.5149 12.2089C17.183 12.2089 20.8512 12.2089 24.5204 12.2089C24.5891 12.2089 24.6578 12.2089 24.7266 12.2089L24.7307 12.2409L24.7338 12.242Z" fill="#002395"/>
<path d="M33.8611 25.8132C33.9058 25.9422 33.9121 26.0632 33.9371 26.1797C33.9506 26.2402 33.9027 26.2619 33.8704 26.2893C33.6487 26.4812 33.4165 26.6593 33.1749 26.8204C32.4825 27.2829 31.7401 27.6152 30.9488 27.807C30.3095 27.9623 29.6608 28.0286 29.007 27.9874C28.4416 27.952 27.8856 27.8515 27.34 27.6768C26.381 27.3696 25.5158 26.8706 24.7474 26.1729C23.6729 25.1965 22.9097 23.9803 22.463 22.5289C22.1725 21.5845 22.0517 20.6115 22.0944 19.618C22.1433 18.4635 22.4068 17.3684 22.8899 16.3383C23.2887 15.4875 23.8103 14.7373 24.4527 14.0921C25.1191 13.4229 25.874 12.9056 26.7174 12.5447C27.2317 12.3243 27.7606 12.1679 28.3052 12.0822C28.9653 11.9783 29.6265 11.9692 30.2897 12.0628C30.6875 12.1188 31.0779 12.2124 31.4632 12.3312C31.5454 12.3563 31.5923 12.3985 31.5985 12.4933C31.6027 12.5493 31.6162 12.603 31.6246 12.6589C31.635 12.7309 31.6287 12.7389 31.5569 12.7343C31.4944 12.7297 31.4319 12.7251 31.3695 12.7183C30.9728 12.6715 30.5771 12.6966 30.1825 12.7468C29.4661 12.8382 28.7862 13.062 28.1396 13.4126C27.3837 13.8226 26.7288 14.3753 26.1739 15.0707C25.5783 15.8164 25.1472 16.6626 24.8817 17.6105C24.7443 18.1015 24.661 18.6028 24.6235 19.1156C24.5933 19.5301 24.5985 19.9423 24.636 20.3534C24.6839 20.8765 24.7849 21.3892 24.9411 21.8882C25.2722 22.94 25.799 23.8558 26.5268 24.6324C27.2015 25.3518 27.9845 25.8794 28.8727 26.2197C29.3339 26.3967 29.8087 26.5143 30.2939 26.5657C31.4319 26.6868 32.5231 26.4926 33.5643 25.9685C33.6143 25.9433 33.6643 25.9194 33.7143 25.8931C33.7601 25.8691 33.8048 25.844 33.8621 25.8132H33.8611Z" fill="#002395"/>
<path d="M32.3086 15.0033C32.2909 15.1905 32.2753 15.3698 32.2576 15.5491C32.2295 15.8266 32.2003 16.1041 32.1712 16.3816C32.1545 16.5392 32.1347 16.6968 32.1212 16.8555C32.115 16.9263 32.0733 16.9469 32.0223 16.9651C31.788 17.0496 31.5537 17.1341 31.3195 17.2198C30.877 17.3831 30.4397 17.5601 30.0065 17.7497C29.9066 17.7931 29.8378 17.7953 29.7452 17.7165C29.2746 17.3157 28.7966 16.9263 28.3208 16.5335C28.2313 16.4593 28.2313 16.4581 28.2635 16.3451C28.4218 15.7832 28.5874 15.2236 28.7675 14.6687C28.7987 14.5716 28.8508 14.5236 28.932 14.4882C29.4037 14.2884 29.8847 14.1205 30.3751 13.9801C30.4397 13.9618 30.5073 13.9538 30.5688 13.9264C30.6469 13.8921 30.7125 13.9127 30.7822 13.9504C31.281 14.2222 31.762 14.5305 32.2326 14.8559C32.2868 14.8936 32.3305 14.9313 32.3097 15.0033H32.3086Z" fill="#FFC72C"/>
<path d="M31.3007 17.6914C31.2966 17.6401 31.2987 17.5864 31.2872 17.5373C31.2716 17.4688 31.3018 17.4436 31.3528 17.4254C31.914 17.221 32.4721 17.0051 33.0385 16.8178C33.1031 16.7961 33.1426 16.7996 33.1905 16.8601C33.5914 17.3728 33.9704 17.9038 34.3369 18.4463C34.3723 18.4988 34.3629 18.5388 34.339 18.5867C34.1755 18.9145 34.0141 19.2445 33.8486 19.5723C33.7288 19.8098 33.6049 20.0439 33.481 20.278C33.4196 20.3922 33.4206 20.3739 33.3363 20.3488C32.9771 20.2403 32.6179 20.1375 32.2576 20.0325C32.0192 19.9628 31.7807 19.8943 31.5423 19.8246C31.4278 19.7915 31.4278 19.7892 31.4205 19.6602C31.3851 19.0549 31.357 18.4497 31.307 17.8467C31.3028 17.7954 31.307 17.744 31.307 17.6926C31.3059 17.6926 31.3039 17.6926 31.3028 17.6926L31.3007 17.6914Z" fill="#FFC72C"/>
<path d="M35.755 24.1173C36.0247 23.7849 36.2517 23.4195 36.4516 23.0335C36.6744 22.6019 36.8504 22.1474 36.9857 21.6735C37.1086 21.2407 37.1898 20.7987 37.2314 20.3488C37.2679 19.9594 37.272 19.5677 37.2471 19.176C37.2137 18.6416 37.1273 18.1185 36.9857 17.6069C36.7525 16.7665 36.386 16.0013 35.8883 15.3127C35.5728 14.8754 35.2146 14.4837 34.8127 14.1422C34.2307 13.6478 33.5903 13.2721 32.8875 13.0265C32.873 13.022 32.8563 13.0231 32.8469 12.9946C32.8615 12.974 32.8844 12.9809 32.9031 12.9866C33.5924 13.1796 34.2432 13.4708 34.8481 13.883C35.2938 14.1868 35.7019 14.5408 36.0705 14.9496C36.2527 15.1517 36.4245 15.3641 36.5765 15.5948C36.6078 15.6416 36.6369 15.7159 36.6963 15.7056C36.7671 15.6942 36.7619 15.6062 36.7723 15.5468C36.8295 15.2431 36.8545 14.9348 36.8806 14.6264C36.9024 14.3695 36.917 14.1114 36.9347 13.8545C36.9347 13.8499 36.9347 13.8453 36.9347 13.8419C36.9378 13.8076 36.9399 13.7654 36.9784 13.762C37.0222 13.7574 37.0388 13.7985 37.0419 13.8385C37.0513 13.9538 37.0576 14.0703 37.069 14.1856C37.1117 14.6481 37.1627 15.1083 37.2398 15.5651C37.2804 15.8061 37.3043 15.8198 37.5042 15.6999C37.8312 15.5034 38.1404 15.2751 38.4507 15.0478C38.5777 14.9542 38.7027 14.8582 38.8297 14.7635C38.8495 14.7486 38.8693 14.7361 38.8901 14.7235C38.9078 14.7132 38.9276 14.7064 38.9442 14.7246C38.964 14.7475 38.9567 14.7737 38.9411 14.7943C38.887 14.8617 38.8307 14.929 38.7755 14.9953C38.4726 15.3573 38.1873 15.733 37.9145 16.1224C37.8645 16.1943 37.8156 16.2674 37.7718 16.3439C37.7208 16.433 37.7395 16.4798 37.8333 16.4958C37.9957 16.5221 38.1592 16.5483 38.3237 16.5666C38.6433 16.6032 38.964 16.6363 39.2837 16.6682C39.4909 16.6888 39.6981 16.7036 39.9053 16.7219C39.9427 16.7253 39.9979 16.7128 40.001 16.7676C40.0031 16.8201 39.95 16.8224 39.9105 16.8258C39.4325 16.8647 38.9598 16.9446 38.4861 17.0154C38.3507 17.036 38.2164 17.0691 38.0821 17.1045C37.9218 17.1456 37.9113 17.1821 38.003 17.326C38.1196 17.5099 38.2518 17.68 38.3893 17.8456C38.5496 18.0409 38.7152 18.2305 38.8755 18.4257C38.9015 18.4577 38.9619 18.4908 38.9234 18.5388C38.8859 18.5856 38.8453 18.5285 38.813 18.5022C38.4517 18.2053 38.0821 17.9221 37.7 17.6583C37.6583 17.6298 37.6115 17.575 37.5636 17.6126C37.5167 17.6492 37.5448 17.7177 37.5553 17.7691C37.675 18.3938 37.6896 19.023 37.6479 19.6568C37.6104 20.222 37.5105 20.7713 37.3522 21.3092C37.1002 22.1668 36.714 22.9433 36.1954 23.6422C36.0611 23.8226 35.9216 23.9962 35.7727 24.1606C35.7352 24.1606 35.7373 24.1424 35.755 24.1161V24.1173Z" fill="#FFC72C"/>
<path d="M26.6424 17.1286C26.608 17.1275 26.5945 17.1035 26.5789 17.0864C26.3925 16.8831 26.2082 16.6787 26.0208 16.4754C25.9791 16.4309 25.9719 16.3909 25.9906 16.327C26.0676 16.0655 26.153 15.8074 26.2509 15.5539C26.2957 15.4397 26.3758 15.3552 26.4477 15.2672C26.7392 14.911 27.0641 14.5946 27.416 14.3103C27.4691 14.268 27.5149 14.2612 27.5784 14.2897C27.8762 14.4233 28.1626 14.5844 28.4426 14.7568C28.4999 14.7922 28.5062 14.8299 28.4843 14.8938C28.3302 15.3301 28.199 15.7766 28.0793 16.2254C28.0616 16.2904 28.0303 16.3281 27.9772 16.3555C27.8575 16.4183 27.7377 16.4823 27.619 16.5485C27.3181 16.7164 27.0203 16.8877 26.7319 17.0807C26.7028 17.1001 26.6736 17.1252 26.6434 17.1275L26.6424 17.1286Z" fill="#FFC72C"/>
<path d="M34.6076 16.3029C34.5993 16.3851 34.6326 16.4811 34.592 16.5427C34.5514 16.6055 34.4577 16.5953 34.3869 16.6147C34.1318 16.6832 33.8767 16.7483 33.6226 16.8202C33.5372 16.8442 33.4769 16.8294 33.4154 16.754C33.1572 16.4411 32.8813 16.1476 32.6002 15.8598C32.5356 15.7936 32.5065 15.7319 32.5189 15.6257C32.546 15.3916 32.5564 15.1552 32.5668 14.9189C32.57 14.8435 32.5929 14.8149 32.6595 14.8012C32.9448 14.743 33.2301 14.687 33.5175 14.6528C33.5768 14.6459 33.6226 14.6642 33.6695 14.7007C33.9475 14.9177 34.2119 15.1541 34.4764 15.3905C34.5129 15.4225 34.5441 15.4567 34.5483 15.5173C34.566 15.7788 34.5878 16.0391 34.6086 16.3006L34.6076 16.3029Z" fill="#FFC72C"/>
<path d="M24.9681 20.0178C25.0035 20.0201 25.0171 20.0418 25.0337 20.0601C25.4523 20.4974 25.9167 20.8709 26.3842 21.2409C26.4321 21.2785 26.4779 21.3197 26.5268 21.3539C26.5862 21.395 26.6059 21.4498 26.6049 21.5264C26.5976 22.0425 26.5945 22.5587 26.5903 23.0748C26.5903 23.1822 26.5862 23.2895 26.5882 23.398C26.5893 23.4563 26.5695 23.4951 26.5258 23.5259C26.4498 23.5796 26.3737 23.6321 26.3019 23.6926C26.2571 23.7303 26.2269 23.7235 26.1915 23.6812C26.0957 23.567 26.0166 23.438 25.9385 23.3101C25.546 22.6729 25.2794 21.9729 25.1097 21.2294C25.0275 20.8709 24.9692 20.5066 24.9567 20.1354C24.9556 20.0978 24.9431 20.0589 24.9671 20.0178H24.9681Z" fill="#FFC72C"/>
<path d="M30.9863 13.0347C31.8661 13.0507 32.7012 13.2733 33.4956 13.6856C33.6018 13.7404 33.7039 13.8055 33.8101 13.8614C33.8559 13.8854 33.884 13.9197 33.8996 13.9734C33.9371 14.0955 33.9704 14.2189 33.9912 14.3468C34.0016 14.4107 33.9902 14.4301 33.9308 14.4336C33.7465 14.445 33.5633 14.4553 33.379 14.4747C33.0698 14.5055 32.7647 14.5569 32.4607 14.6197C32.3669 14.6391 32.2899 14.6277 32.2056 14.5706C31.7589 14.2668 31.306 13.9756 30.8249 13.7404C30.7853 13.721 30.7468 13.7016 30.7073 13.6822C30.6198 13.6399 30.6146 13.6319 30.6437 13.5394C30.6844 13.4138 30.7239 13.2882 30.7697 13.1649C30.8176 13.0335 30.8208 13.0347 30.9509 13.0358C30.9624 13.0358 30.9749 13.0358 30.9863 13.0358V13.0347Z" fill="#FFC72C"/>
<path d="M27.6284 19.3896C27.6263 19.1029 27.6274 19.1041 27.8158 19.0104C28.073 18.8837 28.3291 18.7546 28.5863 18.6267C28.6186 18.6107 28.653 18.6005 28.6831 18.5799C28.7435 18.5399 28.7831 18.5639 28.8216 18.6199C28.9018 18.7364 28.9841 18.8517 29.0663 18.967C29.2225 19.1874 29.3787 19.4078 29.5349 19.6294C29.5942 19.7139 29.5932 19.7139 29.5453 19.7972C29.3464 20.1421 29.1486 20.4881 28.9507 20.8341C28.9382 20.8558 28.9257 20.8775 28.9133 20.8992C28.8841 20.9552 28.8497 20.9723 28.7873 20.9483C28.6175 20.8832 28.4437 20.8307 28.2719 20.7702C28.1115 20.7142 27.9522 20.6537 27.7929 20.5955C27.6846 20.5555 27.6794 20.5486 27.6732 20.423C27.6576 20.0576 27.6419 19.6933 27.6284 19.3896Z" fill="#FFC72C"/>
<path d="M27.5295 18.8826C27.492 18.8883 27.4733 18.8654 27.4535 18.8449C27.263 18.6462 27.0735 18.4463 26.8829 18.2476C26.8506 18.2145 26.8433 18.1803 26.8538 18.1323C26.9246 17.8068 26.9943 17.4802 27.062 17.1536C27.0724 17.1045 27.0995 17.0806 27.1349 17.06C27.3941 16.907 27.6576 16.7642 27.922 16.6226C27.9678 16.5986 28.0001 16.6078 28.0387 16.6409C28.2386 16.8145 28.4395 16.9858 28.6425 17.1559C28.6873 17.1936 28.704 17.2301 28.6904 17.2975C28.6228 17.6413 28.5603 17.9873 28.4989 18.3333C28.4905 18.379 28.478 18.4132 28.4374 18.4338C28.148 18.5777 27.8596 18.7215 27.5701 18.8654C27.5555 18.8723 27.541 18.878 27.5316 18.8826H27.5295Z" fill="#FFC72C"/>
<path d="M30.6281 13.0562C30.6416 13.1156 30.6125 13.1442 30.5958 13.1761C30.5136 13.3429 30.4324 13.5096 30.3657 13.6832C30.3386 13.754 30.2928 13.7905 30.2304 13.8099C30.1137 13.8465 29.9971 13.8819 29.8816 13.9218C29.4515 14.0692 29.0257 14.2325 28.6113 14.4266C28.502 14.478 28.4114 14.4837 28.301 14.422C28.1094 14.3147 27.9064 14.2336 27.7002 14.1617C27.6857 14.1559 27.669 14.1548 27.6555 14.1205C28.5561 13.4616 29.5525 13.1282 30.6281 13.054V13.0562Z" fill="#FFC72C"/>
<path d="M25.4981 18.3367C25.5231 18.1803 25.547 18.0238 25.5751 17.8685C25.596 17.7555 25.623 17.6435 25.647 17.5305C25.6605 17.47 25.6865 17.4209 25.7386 17.3889C25.8865 17.2998 26.0343 17.2119 26.178 17.116C26.2311 17.0817 26.2613 17.0954 26.2988 17.1388C26.43 17.2861 26.5632 17.4323 26.6976 17.5773C26.7298 17.6127 26.7465 17.6458 26.7361 17.7018C26.6882 17.9667 26.6455 18.2328 26.6018 18.4989C26.5945 18.5423 26.5705 18.5663 26.5372 18.5845C26.3581 18.6804 26.178 18.7752 25.9989 18.8723C25.9604 18.8929 25.9312 18.8814 25.9042 18.8517C25.7802 18.7193 25.6574 18.5868 25.5335 18.4566C25.5012 18.4224 25.496 18.3835 25.4981 18.339V18.3367Z" fill="#FFC72C"/>
<path d="M34.5566 21.9135C34.5077 21.9214 34.4889 21.8952 34.4785 21.8438C34.4316 21.596 34.3837 21.3493 34.3306 21.1027C34.3192 21.0478 34.3296 21.0136 34.365 20.9782C34.542 20.8023 34.719 20.6265 34.895 20.4495C34.9283 20.4163 34.9554 20.4198 34.9866 20.4529C35.1272 20.6025 35.2688 20.7509 35.4093 20.9005C35.4312 20.9234 35.4395 20.9462 35.4291 20.9805C35.3552 21.234 35.2958 21.4921 35.2146 21.7422C35.198 21.7924 35.1751 21.8267 35.1272 21.8335C34.9377 21.8609 34.7471 21.8872 34.5566 21.9135Z" fill="#FFC72C"/>
<path d="M24.9327 19.554C24.9442 19.3827 24.9556 19.2239 24.9639 19.0652C24.966 19.0161 24.9858 18.9841 25.0202 18.959C25.1337 18.8756 25.2482 18.7923 25.3627 18.7078C25.4013 18.6792 25.4346 18.6804 25.4669 18.7192C25.5637 18.8322 25.6605 18.9453 25.7573 19.0572C25.7813 19.0846 25.7865 19.1166 25.7855 19.152C25.7782 19.3587 25.7698 19.5642 25.7626 19.7709C25.7615 19.8143 25.7449 19.8452 25.7115 19.8657C25.6022 19.9331 25.4929 20.0005 25.3836 20.069C25.344 20.0941 25.3107 20.0861 25.2753 20.0564C25.1847 19.9811 25.0931 19.9068 25.0004 19.8349C24.9473 19.7938 24.9233 19.7424 24.9306 19.6704C24.9358 19.6282 24.9306 19.5848 24.9306 19.554H24.9327Z" fill="#FFC72C"/>
<path d="M29.5994 17.8857C29.5848 17.9714 29.5578 18.0673 29.5546 18.1644C29.5494 18.3277 29.4713 18.4065 29.336 18.4487C29.2537 18.4738 29.1756 18.5172 29.0986 18.5595C29.0538 18.5846 29.0215 18.5846 28.983 18.5458C28.9008 18.4601 28.8154 18.3791 28.729 18.2968C28.6894 18.2592 28.679 18.2215 28.6915 18.1609C28.7175 18.0399 28.7342 17.9166 28.7498 17.7944C28.7571 17.7361 28.7831 17.703 28.831 17.6813C28.9435 17.6322 29.0559 17.582 29.1673 17.5294C29.211 17.5089 29.2475 17.51 29.286 17.5443C29.3766 17.6265 29.4693 17.7053 29.5609 17.7852C29.5869 17.8081 29.6036 17.8355 29.5973 17.8857H29.5994Z" fill="#FFC72C"/>
<path d="M34.1807 22.5438C34.1901 22.5872 34.163 22.65 34.1047 22.7071C34.0339 22.7757 33.9693 22.8499 33.9048 22.9253C33.8663 22.9709 33.8236 22.9892 33.7684 22.9778C33.6799 22.9595 33.5914 22.9412 33.5029 22.9241C33.4644 22.9161 33.4414 22.8944 33.4342 22.8487C33.4154 22.73 33.3936 22.6124 33.3738 22.4947C33.3665 22.4525 33.3821 22.4205 33.4092 22.3908C33.4987 22.2949 33.5872 22.1967 33.6747 22.0996C33.708 22.0619 33.7455 22.0528 33.7923 22.0654C33.8871 22.0905 33.9829 22.1122 34.0787 22.1327C34.1182 22.1419 34.1411 22.1624 34.1453 22.2081C34.1547 22.3063 34.1651 22.4045 34.1797 22.5438H34.1807Z" fill="#FFC72D"/>
<path d="M25.9448 16.03C25.8938 16.1773 25.8428 16.3246 25.7907 16.4719C25.5856 17.0543 25.4481 17.6572 25.3398 18.2693C25.3534 18.4806 25.2493 18.6131 25.092 18.709C25.0681 18.7238 25.0462 18.7421 25.0233 18.757C25.0181 18.7604 25.0087 18.757 25.0004 18.757C24.9296 18.2967 25.5533 16.4628 25.9448 16.0288V16.03Z" fill="#FFC82E"/>
<path d="M34.8429 15.0683C34.8429 15.0375 34.8627 15.0215 34.9023 15.0364C35.0178 15.0775 35.1334 15.1186 35.248 15.162C35.2823 15.1745 35.3094 15.1974 35.3292 15.2316C35.4145 15.3755 35.5041 15.5171 35.5832 15.6656C35.6072 15.7113 35.6155 15.7467 35.5905 15.7958C35.5541 15.8666 35.526 15.9431 35.4926 16.0162C35.4729 16.0607 35.4479 16.0824 35.401 16.0447C35.2625 15.9328 35.1209 15.8243 34.9814 15.7136C34.9564 15.693 34.9356 15.6679 34.9304 15.6302C34.9023 15.4486 34.8731 15.2659 34.8429 15.0683Z" fill="#FFC72D"/>
<path d="M33.2769 21.2486C33.2769 21.292 33.2749 21.3103 33.2769 21.3263C33.2884 21.4131 33.2603 21.4679 33.1843 21.509C32.9344 21.6449 33.0323 21.6438 32.7865 21.5044C32.7001 21.4553 32.6512 21.3948 32.6637 21.2863C32.6637 21.2818 32.6637 21.2772 32.6637 21.2738C32.6324 21.0385 32.6074 21.0888 32.8271 20.946C32.9146 20.8901 32.9833 20.8889 33.0614 20.9495C33.0801 20.9643 33.101 20.978 33.1228 20.9871C33.2467 21.0374 33.3019 21.131 33.2769 21.2486Z" fill="#FFC72D"/>
<path d="M29.2069 21.5823C29.2131 21.6691 29.1805 21.7284 29.109 21.7604C29.0694 21.7787 29.0288 21.7947 28.9882 21.8118C28.8549 21.8678 28.8539 21.87 28.755 21.7501C28.6956 21.6771 28.6019 21.6188 28.5926 21.5217C28.5842 21.4327 28.655 21.3493 28.6925 21.2648C28.7487 21.138 28.7498 21.1403 28.8695 21.1712C28.9455 21.1906 29.0226 21.2088 29.0996 21.2214C29.1527 21.2305 29.1725 21.2591 29.1756 21.3151C29.1788 21.3619 29.1892 21.4087 29.1944 21.4555C29.1996 21.4978 29.2027 21.5412 29.2069 21.5834V21.5823Z" fill="#FFC72D"/>
<path d="M35.4749 18.1472C35.5593 18.1723 35.6457 18.1986 35.7321 18.226C35.7561 18.234 35.7696 18.2546 35.7759 18.282C35.805 18.4236 35.8342 18.5663 35.8633 18.7079C35.8706 18.7422 35.8571 18.7662 35.8352 18.7867C35.7748 18.8415 35.7144 18.8952 35.6551 18.9512C35.6207 18.9843 35.5926 18.9786 35.5655 18.942C35.4885 18.8392 35.4104 18.7376 35.3323 18.636C35.3125 18.6109 35.3115 18.5846 35.3198 18.5526C35.35 18.4373 35.3792 18.3219 35.4062 18.2055C35.4156 18.1666 35.4354 18.1472 35.4749 18.1472Z" fill="#FFC72D"/>
<path d="M35.4968 20.0542C35.4895 20.1227 35.477 20.1901 35.476 20.2586C35.476 20.3214 35.4541 20.3637 35.4031 20.3922C35.3448 20.4242 35.2896 20.5087 35.2302 20.4847C35.149 20.4516 35.0918 20.3626 35.0314 20.2906C35.0168 20.2735 35.0168 20.2518 35.0189 20.2301C35.0282 20.1319 35.0387 20.0348 35.0501 19.9366C35.0532 19.9103 35.0678 19.8886 35.0876 19.8738C35.1001 19.8635 35.1136 19.8544 35.1272 19.8464C35.3344 19.7151 35.2781 19.6979 35.4572 19.9001C35.4989 19.9469 35.4999 19.9971 35.4968 20.0542Z" fill="#FFC72D"/>
<path d="M35.8321 20.7349C35.8518 20.7315 35.8685 20.7407 35.8799 20.7601C35.9153 20.8217 35.9497 20.8845 35.9841 20.9462C35.9966 20.9691 35.9986 20.9953 35.9914 21.0204C35.9664 21.1107 35.9403 21.2009 35.9153 21.2899C35.9081 21.3162 35.8935 21.3356 35.8727 21.3482C35.8248 21.3779 35.7769 21.4064 35.729 21.4361C35.6957 21.4567 35.6686 21.4475 35.6478 21.4144C35.6124 21.3585 35.578 21.3002 35.5426 21.2443C35.5207 21.2089 35.5197 21.1757 35.5343 21.1358C35.5551 21.0764 35.5707 21.0136 35.5863 20.9519C35.6155 20.8412 35.7279 20.7384 35.8321 20.7327V20.7349Z" fill="#FFC82F"/>
<path d="M35.9414 19.5906C35.8345 19.586 35.7703 19.5247 35.7488 19.4067C35.7363 19.3393 35.7217 19.2731 35.7082 19.2057C35.6977 19.1521 35.7082 19.1098 35.7456 19.0664C35.9102 18.8723 35.907 18.8723 36.0642 19.071C36.1173 19.1384 36.1455 19.2012 36.1153 19.2914C36.0965 19.3462 36.0944 19.409 36.084 19.4672C36.0688 19.5533 36.0212 19.5944 35.9414 19.5906Z" fill="#FFC82F"/>
<path d="M33.2093 21.8779C33.2478 21.8779 33.2717 21.8871 33.2832 21.9213C33.2884 21.9373 33.2988 21.9522 33.303 21.9681C33.3238 22.0412 33.3946 22.1132 33.3644 22.1817C33.3207 22.2799 33.2291 22.3461 33.151 22.4169C33.1354 22.4306 33.1145 22.4329 33.0958 22.4215C33.0854 22.4147 33.076 22.4078 33.0656 22.4009C33.0052 22.3564 32.9011 22.353 32.8855 22.273C32.8678 22.1805 32.9073 22.0801 32.9323 21.9853C32.9406 21.9556 32.9583 21.927 32.9875 21.9248C33.0656 21.9168 33.1416 21.8962 33.2093 21.8779Z" fill="#FFC82E"/>
<path d="M33.9902 14.5546C34.1318 14.4301 34.239 14.4895 34.3504 14.5946C34.492 14.7282 34.5014 14.7362 34.4639 14.936C34.3671 14.9257 34.2755 14.8892 34.1818 14.8606C34.1713 14.8572 34.1578 14.8515 34.1516 14.8424C34.0933 14.7476 34.0287 14.6562 33.9891 14.5546H33.9902Z" fill="#FFC831"/>
<path d="M37.3356 23.8261C37.3314 23.9997 37.1513 24.1253 37.0076 24.0557C36.9451 24.026 36.892 23.9826 36.8493 23.9255C36.792 23.8478 36.7858 23.7588 36.8191 23.6708C36.8524 23.5817 36.9149 23.5246 37.0055 23.5167C37.0357 23.5132 37.0753 23.5075 37.0825 23.5532C37.0898 23.5943 37.0721 23.632 37.0274 23.6331C36.9711 23.6343 36.9253 23.6537 36.9118 23.7176C36.8962 23.7919 36.9222 23.8524 36.9774 23.8969C36.9992 23.9141 37.0232 23.93 37.0461 23.946C37.0909 23.9746 37.1356 23.9769 37.1773 23.9415C37.221 23.9038 37.2439 23.8581 37.2169 23.7953C37.2044 23.7667 37.1971 23.7405 37.2252 23.7142C37.2543 23.6879 37.2814 23.68 37.3043 23.7176C37.3231 23.7496 37.3397 23.785 37.3366 23.8261H37.3356Z" fill="#11319C"/>
<path d="M37.5521 23.3294C37.6052 23.2895 37.6157 23.2438 37.6406 23.2118C37.6594 23.1878 37.6771 23.1833 37.701 23.1992C37.7271 23.2175 37.725 23.2426 37.7114 23.2655C37.6656 23.3454 37.6198 23.4253 37.5709 23.503C37.549 23.5384 37.523 23.5258 37.5063 23.495C37.4699 23.4276 37.4522 23.3534 37.4407 23.2758C37.4345 23.2335 37.4314 23.1901 37.4189 23.149C37.4033 23.0965 37.3637 23.0748 37.3168 23.0873C37.271 23.0999 37.2752 23.1421 37.2846 23.1821C37.2866 23.1901 37.2908 23.1981 37.2918 23.2061C37.296 23.2483 37.2866 23.2906 37.246 23.2963C37.2075 23.3009 37.2013 23.2541 37.1929 23.2232C37.1669 23.1182 37.2262 23.004 37.3168 22.98C37.4074 22.956 37.4886 23.0177 37.5136 23.1319C37.5272 23.1924 37.5365 23.2541 37.5511 23.3306L37.5521 23.3294Z" fill="#14349D"/>
<path d="M36.6869 23.9028C36.7119 23.9005 36.7254 23.9107 36.7348 23.9245C36.7442 23.9393 36.7442 23.9576 36.7327 23.9724C36.7004 24.0158 36.6692 24.0603 36.6348 24.1003C36.5984 24.1414 36.6203 24.1677 36.6484 24.1962C36.6807 24.2294 36.7098 24.2305 36.7369 24.1905C36.7556 24.1631 36.7733 24.1346 36.7931 24.1072C36.8098 24.0843 36.8264 24.0512 36.8587 24.0775C36.8931 24.1049 36.8795 24.1369 36.8566 24.1654C36.8358 24.1917 36.8181 24.2202 36.7973 24.2453C36.7681 24.2796 36.7764 24.3059 36.8056 24.3321C36.8358 24.3595 36.867 24.3858 36.8972 24.4132C36.9191 24.4349 36.9337 24.46 36.9087 24.4909C36.8858 24.5183 36.8618 24.5365 36.8285 24.5057C36.7712 24.4532 36.7129 24.4029 36.6557 24.3504C36.5963 24.2956 36.4964 24.2533 36.4901 24.1791C36.4828 24.0969 36.5776 24.0364 36.6276 23.9656C36.6463 23.9393 36.664 23.9085 36.689 23.9016L36.6869 23.9028Z" fill="#11319C"/>
<path d="M35.1063 17.8365C35.1147 17.7006 35.173 17.6446 35.2698 17.6778C35.3187 17.6949 35.3979 17.8342 35.3916 17.8959C35.3885 17.9256 35.3823 17.9541 35.377 17.9838C35.3625 18.0603 35.2729 18.1083 35.2167 18.0592C35.1532 18.0044 35.0959 17.9381 35.1063 17.8365Z" fill="#FFC830"/>
<path d="M37.9676 22.0699C37.9374 22.1167 37.9613 22.1601 37.9374 22.1944C37.8988 22.2001 37.8811 22.1749 37.8707 22.1407C37.8541 22.0882 37.8395 22.0345 37.8228 21.982C37.8156 21.9591 37.8166 21.9397 37.8322 21.9226C37.851 21.9032 37.8707 21.8963 37.8957 21.91C38.0207 21.9808 38.1456 22.0516 38.2706 22.1236C38.2966 22.1384 38.3143 22.159 38.2955 22.1966C38.2768 22.2343 38.2539 22.2412 38.2195 22.2206C38.1383 22.1704 38.0561 22.1224 37.9676 22.0699Z" fill="#17369E"/>
<path d="M34.8658 16.5416C34.9127 16.5324 34.9502 16.5541 34.9731 16.6089C34.9876 16.6443 35.0064 16.6763 35.0241 16.7094C35.0564 16.7654 35.0147 16.7951 34.9887 16.8305C34.9616 16.8682 34.9314 16.867 34.897 16.8408C34.8304 16.7917 34.7544 16.7551 34.7648 16.6386C34.7731 16.5461 34.77 16.5404 34.8658 16.5416Z" fill="#FFCA36"/>
<path d="M34.6607 14.5271C34.6795 14.534 34.6982 14.5397 34.7159 14.5488C34.8106 14.5956 34.8867 14.6664 34.9345 14.7681C34.9429 14.7864 34.9512 14.8092 34.9345 14.8275C34.9179 14.8457 34.8991 14.8332 34.8804 14.8286C34.7742 14.8023 34.7055 14.719 34.6357 14.6368C34.617 14.6139 34.6149 14.5808 34.6222 14.5511C34.6274 14.5328 34.6409 14.5248 34.6597 14.526L34.6607 14.5271Z" fill="#FFCA38"/>
<path d="M35.755 24.1174C35.7592 24.1334 35.755 24.1528 35.7727 24.162C35.7154 24.2613 35.5905 24.3938 35.4999 24.4463C35.5801 24.3196 35.6644 24.2156 35.755 24.1174Z" fill="#FFE18C"/>
<path d="M34.5035 14.3821C34.4212 14.3901 34.3359 14.341 34.3088 14.2759C34.3036 14.2634 34.3046 14.2519 34.3119 14.2405C34.3234 14.2257 34.34 14.2234 34.3536 14.2303C34.4181 14.2622 34.4702 14.3079 34.5035 14.3821Z" fill="#FFD663"/>
<path d="M36.791 24.572C36.639 24.5149 36.488 24.4555 36.3339 24.4064C36.2746 24.3881 36.2183 24.4715 36.2475 24.532C36.3183 24.6804 36.3933 24.8266 36.4693 24.9728C36.4932 25.0185 36.5203 24.9968 36.5422 24.9659C36.564 24.934 36.5588 24.902 36.539 24.8711C36.5234 24.846 36.5036 24.8163 36.5297 24.7901C36.5859 24.733 36.6057 24.6039 36.7285 24.6702C36.7629 24.6884 36.8139 24.6382 36.8108 24.5971C36.8066 24.5914 36.8014 24.5765 36.792 24.5731L36.791 24.572ZM36.4818 24.693C36.4662 24.7078 36.4495 24.6953 36.4422 24.6827C36.4193 24.6416 36.3818 24.6062 36.3881 24.5423C36.4318 24.5366 36.4578 24.5571 36.4849 24.5697C36.5057 24.5788 36.5349 24.5857 36.5349 24.6153C36.5349 24.6519 36.5047 24.6713 36.4818 24.693Z" fill="#10309B"/>
<path d="M37.8645 22.8053C37.7875 22.7242 37.6969 22.6648 37.5959 22.626C37.5324 22.602 37.4803 22.626 37.4397 22.6808C37.398 22.7356 37.3918 22.7973 37.4178 22.8624C37.4584 22.9629 37.6542 23.0976 37.7718 23.0942C37.8229 23.0885 37.8708 23.0496 37.8999 22.9823C37.9291 22.9149 37.9103 22.8532 37.8645 22.8064V22.8053ZM37.7531 22.9811C37.6594 22.948 37.574 22.8978 37.5084 22.8167C37.4824 22.7836 37.5022 22.7413 37.5428 22.7345C37.5959 22.7265 37.7854 22.8521 37.8031 22.908C37.8052 22.916 37.8062 22.9252 37.8072 22.9343C37.8041 22.9709 37.7833 22.9925 37.7531 22.9811Z" fill="#11319C"/>
<path d="M38.0717 22.4535C38.0009 22.3427 37.8957 22.2822 37.776 22.264C37.7146 22.2548 37.6594 22.2811 37.6365 22.3542C37.5813 22.4284 37.6136 22.4901 37.6583 22.5506C37.6937 22.6088 37.7395 22.6511 37.801 22.6716C37.8697 22.7116 37.9374 22.755 38.0165 22.6979C38.0602 22.6933 38.0831 22.6659 38.0904 22.6214C38.131 22.5597 38.1008 22.5026 38.0707 22.4558L38.0717 22.4535ZM37.9551 22.6077C37.8593 22.5723 37.7697 22.5186 37.7021 22.433C37.6771 22.4021 37.6948 22.3667 37.7333 22.3599C37.7479 22.3576 37.7656 22.3553 37.7791 22.3622C37.8541 22.3976 37.9218 22.4467 37.9894 22.4969C38.0061 22.5095 38.0144 22.5289 38.0155 22.5552C38.0134 22.5928 37.9915 22.6202 37.9551 22.6077Z" fill="#11319C"/>
<path d="M36.1184 24.7579C35.9757 24.7625 35.8206 24.9098 35.8341 25.0434C35.856 25.2535 35.907 25.3483 36.1142 25.3631C36.2496 25.3631 36.3818 25.2238 36.3849 25.0788C36.3881 24.9223 36.2475 24.7533 36.1184 24.7579ZM36.1017 25.2958C35.9955 25.2958 35.8924 25.1827 35.8924 25.0651C35.8924 24.9292 35.982 24.8344 36.1101 24.8367C36.2267 24.8378 36.3277 24.9509 36.3235 25.0765C36.3193 25.193 36.2163 25.2958 36.1028 25.2969L36.1017 25.2958Z" fill="#11319C"/>
<path d="M36.1246 25.2216C36.0465 25.2216 35.9747 25.161 35.9632 25.0823C35.9518 25 36.0018 24.9167 36.0767 24.8961C36.1028 24.8893 36.1361 24.8824 36.1444 24.9224C36.1507 24.9555 36.1246 24.9635 36.0996 24.9669C36.0549 24.9726 36.0184 24.9955 36.033 25.048C36.0465 25.0982 36.083 25.1359 36.134 25.1451C36.1611 25.1496 36.1788 25.1325 36.1881 25.1051C36.1965 25.0811 36.1809 25.0526 36.1996 25.0309C36.2069 25.0217 36.2183 25.0114 36.2277 25.0114C36.236 25.0114 36.2485 25.024 36.2517 25.0331C36.2798 25.1256 36.2163 25.2181 36.1257 25.2204L36.1246 25.2216Z" fill="#11319C"/>
</g>
<defs>
<clipPath id="clip0_95_14244">
<rect width="40" height="16" fill="white" transform="translate(0 12)"/>
</clipPath>
</defs>
</svg>
