<svg width="40" height="40" viewBox="0 0 40 40" fill="none" xmlns="http://www.w3.org/2000/svg">
<rect width="40" height="40" rx="7" fill="white"/>
<g clip-path="url(#clip0_95_13385)">
<mask id="mask0_95_13385" style="mask-type:luminance" maskUnits="userSpaceOnUse" x="0" y="6" width="40" height="28">
<path d="M39.12 6H0V33.31H39.12V6Z" fill="white"/>
</mask>
<g mask="url(#mask0_95_13385)">
<mask id="mask1_95_13385" style="mask-type:luminance" maskUnits="userSpaceOnUse" x="0" y="6" width="40" height="28">
<path d="M39.12 6H0V33.31H39.12V6Z" fill="white"/>
</mask>
<g mask="url(#mask1_95_13385)">
<path d="M17.14 7.14985L16.73 6.58984L15.84 6.14984L15 6.08984H4.56L5.45 8.95985L2.5 20.2199L11.89 20.1899C11.89 20.1899 14.22 20.1299 15.06 18.8299C15.9 17.5299 16.03 15.8798 16.03 15.8798C16.03 15.8798 16.59 14.9398 14.37 13.2798C14.37 13.2798 15.89 13.0298 16.26 12.0298L16.73 10.9598L17.36 8.77985V7.60985L17.15 7.14985H17.14ZM11.63 16.1199L11.38 16.7799L10.91 17.1099L10.44 17.3099H7.84L8.86 13.0198L8.99 13.1098L11.31 14.9498L11.63 15.4498V16.0999V16.1199ZM12.15 11.3898L11.93 11.8298L11.63 12.0698L11.13 11.9298L9.56 10.5898L9.92 9.18985H12.02L12.26 9.42985L12.38 9.67985L12.45 10.0698L12.15 11.3898Z" fill="url(#paint0_linear_95_13385)"/>
<path d="M23.31 20.9199H16.33L17.1 22.0699L15.61 27.9199C15.61 27.9199 14.6 30.8399 17.42 30.6899H21.07C21.07 30.6899 22.82 30.9599 23.46 28.8499C24.09 26.7399 24.94 22.9999 24.94 22.9999C24.94 22.9999 25.55 20.7899 23.31 20.9299V20.9199ZM21.61 23.5199L21.22 25.1799L20.36 28.3799L20.03 28.6799C20.03 28.6799 20.09 28.6199 19.38 28.6699C18.67 28.7199 18.76 28.3199 18.76 28.3199L19.27 26.1699L19.85 23.8899L20.13 23.2399L20.35 23.0299L21.41 23.0099L21.63 23.2399L21.61 23.5199Z" fill="url(#paint1_linear_95_13385)"/>
<path d="M2.40998 20.72L2.02998 21.91H0.729984L1.61998 23.5L0.509984 27.89C0.509984 27.89 -0.490016 30.66 2.64998 30.65C5.78998 30.64 5.95998 30.65 5.95998 30.65L6.65998 27.91L4.54998 27.88L4.40998 27.64L4.38998 27.08L4.97998 25.04H6.65998L7.38998 21.9L5.33998 21.93L2.40998 20.71V20.72Z" fill="url(#paint2_linear_95_13385)"/>
<path d="M4.56 20.8899L8.61 22.0699L8.18 24.4799H11.3L11.55 23.5099C11.55 23.5099 11.65 22.9899 12.47 23.0599C13.29 23.1299 13.06 23.2799 13.06 23.2799L12.93 24.0599L12.62 25.0099L11.71 25.4899L9.48 26.0499L8.23 26.5599L7.46 27.2099L7.15 28.1199L6.74 29.6799L6.41 30.6799H14.3L14.86 28.4799H10.15L10.26 28.1099L11.29 27.5999L13.69 27.0399L15.04 26.5299L15.63 25.7999L16.16 24.0999L16.46 22.5499L16.42 21.6699L16.17 21.2899L15.59 20.9399L14.36 20.9199H4.56V20.8899Z" fill="url(#paint3_linear_95_13385)"/>
<path d="M30.99 6.07007L32.07 7.87007L28.92 20.22H38.22L39.03 17.02L34.32 16.96L37.14 6.07007H30.99Z" fill="url(#paint4_linear_95_13385)"/>
<path d="M18 6.07007L19.09 7.87007L15.95 20.2L20.54 20.22L21.36 17L22.3 17.04L23.79 17L25.44 16.97L26.65 16.77L27.72 16.29L28.45 15.6501L29.11 14.7001L29.58 13.6301L30.39 10.6401L30.78 8.78007V7.56007L30.54 6.84007L29.93 6.41007L29.07 6.14007L28.24 6.07007H18Z" fill="url(#paint5_linear_95_13385)"/>
<path d="M23.89 14.92C25.591 14.92 26.97 13.541 26.97 11.84C26.97 10.139 25.591 8.76001 23.89 8.76001C22.189 8.76001 20.81 10.139 20.81 11.84C20.81 13.541 22.189 14.92 23.89 14.92Z" fill="white"/>
<path d="M28.83 20.29L32 7.89L30.86 6H37.23L34.43 16.95H39.12L38.27 20.28H28.83V20.29ZM31.11 6.14L32.15 7.86L29.01 20.15H38.16L38.94 17.1H34.25L37.05 6.14H31.11Z" fill="url(#paint6_linear_95_13385)"/>
<path d="M27.68 23.23L27.39 23.64L26.83 24.09L26.07 24.56L25.48 24.96L25.18 25.26L24.93 25.63L24.8 25.88L25.66 25.47L26.68 24.95L27.17 24.74L27.55 24.28L27.68 23.89L27.71 23.42L27.68 23.23Z" fill="#C0902E"/>
<path d="M23.97 29.3101L27.13 28.9801L26.9 28.8301L26.63 28.6401L26.37 28.2801L26.28 28.0301L26.45 27.7701L26.74 27.6901L26.95 27.6201L27.34 27.5401L27.82 27.3401L28.19 27.0101L28.45 26.5401L28.16 26.6101L27.76 26.7601L27.58 26.8801L27.38 26.9001L27.2 26.9301L27.13 26.9701L27.06 27.0801V27.3101L26.88 27.2401L26.48 27.1501L26.14 27.0901L26.26 26.8301L26.57 26.4701L27.08 26.2301L27.5 26.0501L28.51 25.7901L29.36 25.6101L29.89 25.4001L30.23 25.1601L30.65 24.7901L30.81 24.5001L30.91 24.2501L30.95 24.1001L30.62 24.2601L30.04 24.4001L28.66 24.8101L28.11 24.9601L27.64 25.1001L27.14 25.2601L26.61 25.4401L26.29 25.5701L25.93 25.7501L25.69 25.9501L25.51 26.2501L25.37 26.8601L25.36 27.6001L25.2 27.8401L24.71 28.1601L24.41 28.3801L24.18 28.5601L24.05 28.7901L23.97 28.9301L23.95 29.2101L23.97 29.3101Z" fill="#C0902E"/>
<path d="M25.22 22.0699L25.18 22.1599L25.45 22.1799L25.76 22.1999L25.96 22.1799L26.35 22.0799L26.61 22.0199H26.87L27.09 22.0499L27.27 22.0899L27.42 22.1599L27.75 22.2699L27.9 22.3899L28.11 22.4899L28.28 22.5899L28.63 22.7299L28.91 22.8699L29.16 22.9399L29.22 22.9199V22.8199L29.13 22.6999L28.83 22.3399L28.7 22.1999L28.53 22.0999L28.32 21.9599L28.19 21.8699L28.14 21.6799V21.5399L28.18 21.4099L28.16 21.3499L28 21.2799L27.8 21.1399C27.8 21.1399 27.61 20.8999 27.58 20.6499C27.55 20.3999 27.47 20.2099 27.47 20.2099L29.75 20.8299L29.93 20.9299L30.09 21.0899L30.2 21.2399L29.98 21.3799L29.72 21.5399L29.63 21.6299L32.59 21.9699V22.1299L31.76 22.2599C31.76 22.2599 32.14 22.4099 33.13 22.4899C34.12 22.5699 34.58 23.0199 34.58 23.0199L33.74 22.8799L33.7 22.9899L34.39 23.2599C34.39 23.2599 35.23 23.4199 35.33 24.0499C35.33 24.0499 35.45 24.3499 35.8 24.5399C36.15 24.7299 36.8 25.1899 36.8 25.1899L37.27 25.4899L37.57 25.6999L37.67 25.8899L37.69 26.0399L37.66 26.1499L36.83 27.4199L36.64 27.7299V27.7899C36.64 27.7899 35.61 26.5399 34.17 26.6699C32.72 26.7999 32.34 27.8499 32.34 27.8499C32.34 27.8499 31.67 29.0399 32.81 30.0799C33.95 31.1199 35.6 30.8199 35.6 30.8199L35.03 32.5699C35.03 32.5699 33.75 31.8799 33.62 32.0599C33.49 32.2399 34.71 33.0899 34.71 33.0899L35 33.2899C35 33.2899 35.89 32.5299 36.02 31.4999C36.15 30.4699 35.92 30.1799 35.92 30.1799L34.63 30.1999C34.63 30.1999 33.13 30.1699 32.74 28.8599C32.6 28.3999 32.93 27.8499 33.12 27.7299C33.31 27.6099 33.35 27.5099 33.35 27.5099C33.35 27.5099 34.03 27.0299 34.83 27.2999C34.83 27.2999 35.18 27.3699 35.51 27.8599C35.84 28.3499 35.91 28.3199 35.91 28.3199L36.16 28.1499L36.54 28.9499L36.73 28.6699L37.63 27.1599L37.79 26.8799C37.79 26.8799 37.91 26.6599 38.1 26.4599C38.29 26.2599 38.37 25.9299 38.37 25.9299C38.37 25.9299 38.48 25.5899 38.17 25.3399C37.86 25.0899 36.95 24.5999 36.95 24.5999L36.34 24.2099C36.34 24.2099 35.77 23.7399 35.67 23.2799C35.57 22.8199 34.58 22.2699 34.58 22.2699L32.93 21.4899L31.09 20.8999L30.02 20.2799C30.02 20.2799 29.61 20.0199 29.1 19.9799L27.47 19.5799L26.77 19.4099L27.08 21.1299V21.1799L25.19 22.0699H25.22Z" fill="#C0902E"/>
<path d="M28.93 30.38C28.93 30.38 29.27 30.15 30.05 30.12C30.05 30.12 30.5 30.02 30.67 29.89H30.15C30.15 29.89 29.3 29.69 28.93 30.39V30.38Z" fill="#C0902E"/>
<path d="M27.3 30.6798C27.3 30.6798 27.67 29.9298 29.12 29.7698C29.12 29.7698 29.66 29.6498 29.72 29.4798C29.78 29.3098 29.8 28.8898 29.8 28.8898C29.8 28.8898 29.75 27.8398 30.36 27.1298L30.67 26.7998C30.67 26.7998 31.32 26.3698 31.44 26.2498C31.56 26.1298 31.97 25.6898 32 25.0698H31.94L30.4 25.9898C30.4 25.9898 28.81 26.8098 28.88 28.2598C28.88 28.2598 28.95 28.6898 28.78 28.9598L28.62 29.0898L28.16 29.2798L27.68 29.6698L27.33 30.2998L27.26 30.6798H27.3Z" fill="#C0902E"/>
<path d="M34.26 25.4099L33.66 25.5999L32.81 25.8799L32.23 26.1299L31.81 26.4899L31.65 26.9499V27.5699L31.74 27.9599L31.97 27.3099L32.62 26.6599L33.4 26.2299L33.81 25.8799L34.19 25.4899L34.26 25.4099Z" fill="#C0902E"/>
<path d="M15.85 20.29L19.02 7.89L17.88 6H28.01C29.43 6 30.29 6.3 30.64 6.92C31 7.55 30.98 8.63 30.57 10.21L29.96 12.6C29.15 15.77 27.65 17.06 24.78 17.07H21.41L20.59 20.29H15.84H15.85ZM18.13 6.14L19.17 7.86L16.03 20.15H20.49L21.31 16.93H24.79C27.62 16.93 29.03 15.71 29.83 12.57L30.44 10.18C30.83 8.65 30.86 7.58 30.52 6.99C30.19 6.42 29.37 6.14 28.01 6.14H18.13Z" fill="url(#paint7_linear_95_13385)"/>
<path d="M7.74999 17.39L8.85999 13.03L10.98 14.58C11.53 15.04 11.87 15.32 11.61 16.32C11.48 16.83 10.9 17.39 10.18 17.39H7.73999H7.74999ZM8.94999 13.27L7.92999 17.25H10.19C10.87 17.25 11.38 16.69 11.48 16.29C11.71 15.37 11.46 15.16 10.89 14.69L10.84 14.65L8.94999 13.27Z" fill="url(#paint8_linear_95_13385)"/>
<path d="M11.45 12.0801C11.32 12.0801 11.2 12.0401 11.09 11.9801L9.47998 10.6101L9.85998 9.11011H11.83C12.07 9.11011 12.25 9.18011 12.37 9.33011C12.55 9.56011 12.56 9.97011 12.41 10.5701L12.14 11.6201C12.1 11.7801 11.93 11.9401 11.72 12.0201C11.63 12.0601 11.54 12.0701 11.45 12.0701V12.0801ZM9.63998 10.5501L11.18 11.8601C11.37 11.9801 11.57 11.9301 11.68 11.8901C11.84 11.8301 11.98 11.7001 12.01 11.5801L12.28 10.5301C12.42 9.98011 12.42 9.60011 12.27 9.41011C12.18 9.30011 12.04 9.24011 11.84 9.24011H9.97998L9.64998 10.5501H9.63998Z" fill="url(#paint9_linear_95_13385)"/>
<path d="M2.39996 20.29L5.29996 8.96L4.46996 6H14.57C15.81 6 16.62 6.27 17.06 6.84C17.47 7.37 17.54 8.14 17.26 9.2L16.9 10.59C16.48 12.24 15.79 13.04 14.55 13.28C14.69 13.42 14.83 13.55 14.96 13.67C15.87 14.52 16.42 15.04 16.04 16.54L15.88 17.15C15.2 19.79 13.56 20.3 10.76 20.3H2.39996V20.29ZM4.64996 6.14L5.43996 8.95V8.97L2.57996 20.15H10.78C13.51 20.15 15.11 19.66 15.76 17.11L15.92 16.5C16.28 15.08 15.78 14.62 14.88 13.77C14.72 13.62 14.55 13.46 14.37 13.28L14.27 13.18L14.41 13.16C15.67 12.95 16.36 12.19 16.78 10.54L17.14 9.15C17.4 8.14 17.34 7.4 16.96 6.91C16.55 6.38 15.77 6.13 14.58 6.13H4.64996V6.14Z" fill="url(#paint10_linear_95_13385)"/>
<path d="M19.23 28.74C18.98 28.74 18.84 28.69 18.76 28.59C18.64 28.43 18.67 28.17 18.76 27.8L19.76 23.87C19.94 23.17 20.12 22.99 20.65 22.99H21.14C21.31 22.99 21.5 23.01 21.6 23.13C21.72 23.28 21.68 23.53 21.59 23.9L20.59 27.83C20.41 28.54 20.22 28.74 19.71 28.74H19.22H19.23ZM21.16 23.12H20.67C20.24 23.12 20.09 23.22 19.92 23.89L18.92 27.82C18.82 28.2 18.81 28.4 18.88 28.49C18.93 28.56 19.04 28.59 19.24 28.59H19.73C20.16 28.59 20.31 28.43 20.48 27.79L21.48 23.86C21.57 23.49 21.59 23.3 21.52 23.21C21.47 23.15 21.37 23.12 21.17 23.12H21.16Z" fill="url(#paint11_linear_95_13385)"/>
<path d="M17.52 30.7501C16.56 30.7501 15.94 30.5201 15.63 30.0601C15.33 29.5901 15.33 28.7601 15.63 27.5701L16.61 23.7401C16.65 23.5801 16.69 23.4301 16.75 23.2601H16.74L17.04 22.0701L16.21 20.8401H23.07C24.06 20.8401 24.66 21.0501 24.9 21.4901C25.15 21.9301 25.14 22.6801 24.86 23.7801L23.79 27.9601C23.5 29.0901 23.14 29.8201 22.7 30.2001C22.27 30.5701 21.55 30.7501 20.57 30.7501H17.53H17.52ZM16.91 23.1301H16.93L16.9 23.2201C16.84 23.4201 16.78 23.6001 16.74 23.7801L15.76 27.6101C15.47 28.7601 15.46 29.5601 15.74 29.9901C16.03 30.4101 16.61 30.6201 17.52 30.6201H20.57C21.51 30.6201 22.2 30.4401 22.61 30.1001C23.03 29.7401 23.37 29.0401 23.66 27.9301L24.73 23.7501C25 22.7001 25.02 21.9701 24.79 21.5701C24.57 21.1801 24.01 20.9901 23.08 20.9901H16.49L17.21 22.0601L16.94 23.1401L16.91 23.1301Z" fill="url(#paint12_linear_95_13385)"/>
<path d="M2.78997 30.7199C1.72997 30.7199 1.02997 30.4899 0.659978 30.0099C0.269978 29.5099 0.219978 28.7199 0.509978 27.5899L1.54997 23.5099L0.619978 21.8399H1.97997L2.36997 20.6299L5.28997 21.8399H7.47997L6.63997 25.1199H5.02997L4.53997 27.0299C4.44997 27.3899 4.44997 27.5799 4.53997 27.6899C4.61997 27.7999 4.80997 27.8399 5.15997 27.8399H6.74997L6.00997 30.7199H2.78997ZM0.849978 21.9799L1.68997 23.4899L0.629978 27.6199C0.349978 28.6999 0.389978 29.4499 0.759978 29.9199C1.09997 30.3599 1.75997 30.5799 2.77997 30.5799H5.88997L6.54997 27.9799H5.13997C4.72997 27.9799 4.51997 27.9199 4.40997 27.7699C4.28997 27.6199 4.28997 27.3899 4.38997 26.9899L4.90997 24.9699H6.51997L7.28997 21.9699H5.24997L2.44997 20.8099L2.07997 21.9799H0.849978Z" fill="url(#paint13_linear_95_13385)"/>
<path d="M6.32 30.7501L6.91 28.4601C7.13 27.6001 7.43 27.0601 7.84 26.7501L7.92 26.6901C8.24 26.4601 8.44 26.3101 8.98 26.1401C9.23 26.0501 9.48 25.9701 9.76 25.8901C9.97 25.8201 10.3 25.7301 10.75 25.6101C11.5 25.4201 12.01 25.2501 12.27 25.1101C12.5 24.9901 12.66 24.7601 12.75 24.4401L12.98 23.5401C13.02 23.3701 13.02 23.2601 12.97 23.1901C12.93 23.1401 12.84 23.1101 12.72 23.1101H12.24C11.88 23.1101 11.67 23.2701 11.58 23.6201L11.34 24.5401H8.08L8.52 22.1101L4.31 20.8901L11.52 20.8401H14.84C15.6 20.8401 16.07 21.0001 16.33 21.3301C16.6 21.6801 16.63 22.2201 16.42 23.0401L15.97 24.7801C15.79 25.4901 15.57 25.9801 15.3 26.2801C15.03 26.5701 14.62 26.8001 14.03 26.9701L12.64 27.3501L11.56 27.6401C10.98 27.8001 10.26 28.0101 10.28 28.2601L10.25 28.3901H14.96L14.36 30.7301H6.32V30.7501ZM12.71 22.9701C12.88 22.9701 13 23.0201 13.07 23.1101C13.15 23.2101 13.16 23.3701 13.11 23.5801L12.88 24.4801C12.79 24.8401 12.6 25.1001 12.33 25.2401C12.06 25.3801 11.54 25.5601 10.77 25.7501C10.32 25.8601 10 25.9501 9.78 26.0201C9.6 26.0701 9.33 26.1501 9.01 26.2601C8.49 26.4301 8.3 26.5601 7.99 26.7901L7.91 26.8501C7.53 27.1301 7.25 27.6501 7.04 28.4801L6.5 30.6001H14.24L14.77 28.5301H10.06L10.13 28.2501C10.13 27.9201 10.68 27.7401 11.52 27.5001L12.61 27.2101L14 26.8301C14.56 26.6601 14.96 26.4501 15.21 26.1801C15.46 25.9001 15.67 25.4301 15.85 24.7401L16.3 23.0001C16.5 22.2301 16.48 21.7201 16.24 21.4101C16.01 21.1201 15.56 20.9701 14.86 20.9701H11.38L5.28 21.0101L8.69 22.0001L8.26 24.3901H11.24L11.45 23.5701C11.55 23.1601 11.82 22.9501 12.24 22.9501H12.72L12.71 22.9701Z" fill="url(#paint14_linear_95_13385)"/>
<path d="M35.01 33.3101H34.99C34.63 33.0601 33.48 32.2801 33.62 32.0501C33.74 31.8601 34.62 32.3201 35.03 32.5401L35.57 30.8501C34.47 30.9301 33.73 30.7701 33.09 30.3201C32.32 29.7701 31.99 29.0001 32.19 28.2201C32.41 27.3801 33 26.8501 33.9 26.6901C34.9 26.5101 35.77 26.8401 36.63 27.7201C36.64 27.7001 36.65 27.6801 36.66 27.6601C36.69 27.6001 36.72 27.5501 36.75 27.5001C36.84 27.3701 36.92 27.2401 37.01 27.1101C37.24 26.7701 37.47 26.4301 37.67 26.0701C37.71 26.0001 37.61 25.7401 37.5 25.6701C37.19 25.4601 36.87 25.2501 36.56 25.0601C36.31 24.9001 36.04 24.7301 35.79 24.5601C35.58 24.4101 35.37 24.2501 35.33 24.0701C35.22 23.6201 34.9 23.4701 34.56 23.3501C34.36 23.2801 34.16 23.2001 33.97 23.1101C33.88 23.0701 33.8 23.0401 33.71 23.0001H33.68L33.74 22.8501L34.48 22.9601C33.99 22.5801 33.46 22.5301 32.91 22.4901C32.54 22.4601 32.15 22.4301 31.77 22.2901L31.67 22.2501L32.58 22.0901V21.9801L29.35 21.6201L29.54 21.5901C29.54 21.5901 29.56 21.5901 29.57 21.5901C29.6 21.5901 29.65 21.5901 29.68 21.5701C29.81 21.4901 29.93 21.4001 30.05 21.3101C30.09 21.2801 30.13 21.2501 30.16 21.2301C30.12 21.1901 30.09 21.1501 30.05 21.1101C29.96 21.0001 29.87 20.8901 29.76 20.8601C29.22 20.6901 28.68 20.5501 28.11 20.4101C27.91 20.3601 27.71 20.3101 27.5 20.2501C27.53 20.3501 27.55 20.4501 27.57 20.5401C27.66 20.9101 27.72 21.2101 28.11 21.3101C28.14 21.3101 28.19 21.3701 28.18 21.4101C28.07 21.8201 28.28 21.9401 28.5 22.0701C28.59 22.1201 28.69 22.1801 28.76 22.2501L29.24 22.8201L29.17 22.9901H29.14C29.03 22.9301 28.91 22.8901 28.79 22.8501C28.53 22.7601 28.27 22.6601 28.05 22.5101C27.33 22.0301 26.7 21.9301 26.01 22.1801C25.83 22.2501 25.62 22.2301 25.41 22.2101C25.32 22.2101 25.22 22.1901 25.13 22.1901H25.1L25.12 22.0501L27.05 21.1401L26.7 19.3701H26.74C26.99 19.4401 27.23 19.5001 27.46 19.5501C28.01 19.6801 28.53 19.8101 29.05 19.9401C29.13 19.9601 29.22 19.9801 29.3 20.0001C29.57 20.0601 29.84 20.1201 30.05 20.2701C30.69 20.7501 31.44 21.0001 32.17 21.2301C32.65 21.3901 33.15 21.5501 33.62 21.7801C33.75 21.8401 33.88 21.9001 34.01 21.9601C34.29 22.0901 34.58 22.2201 34.84 22.4001C35.19 22.6501 35.56 22.9501 35.69 23.3001C35.9 23.8801 36.31 24.1601 36.75 24.4201C36.87 24.4901 36.99 24.5701 37.1 24.6501C37.27 24.7601 37.45 24.8801 37.63 24.9801C38.11 25.2301 38.33 25.4301 38.38 25.6701C38.43 25.9401 38.29 26.2501 37.88 26.7501C37.85 26.7901 37.82 26.8401 37.8 26.8801C37.79 26.9101 37.77 26.9401 37.75 26.9701C37.45 27.4701 37.15 27.9701 36.83 28.5001L36.52 29.0201L36.1 28.2001L35.96 28.3001C35.96 28.3001 35.93 28.3201 35.92 28.3301L35.89 28.3501C35.89 28.3501 35.86 28.3501 35.85 28.3501C35.75 28.2401 35.65 28.1201 35.57 28.0101C35.38 27.7701 35.2 27.5501 34.97 27.4201C34.65 27.2401 34.23 27.2201 33.81 27.3501C33.37 27.4901 33.01 27.7901 32.84 28.1401C32.52 28.8101 32.87 29.5701 33.69 29.9701C33.88 30.0601 34.1 30.1701 34.32 30.1801C34.68 30.2001 35.05 30.2001 35.43 30.1901C35.59 30.1901 35.75 30.1901 35.91 30.1901H35.93V30.2101C36.28 31.2801 35.88 32.5601 34.97 33.3001H34.95L35.01 33.3101ZM33.74 32.0601C33.74 32.0601 33.68 32.0601 33.67 32.0801C33.62 32.1601 33.94 32.5301 35 33.2401C35.88 32.5101 36.26 31.2801 35.94 30.2401C35.78 30.2401 35.63 30.2401 35.48 30.2401C35.09 30.2401 34.73 30.2401 34.37 30.2301C34.14 30.2201 33.92 30.1101 33.72 30.0101C32.87 29.5901 32.51 28.8001 32.84 28.1001C33.01 27.7401 33.39 27.4301 33.84 27.2901C34.27 27.1501 34.71 27.1801 35.04 27.3601C35.28 27.4901 35.46 27.7201 35.65 27.9601C35.74 28.0701 35.82 28.1801 35.92 28.2801L36.16 28.1101L36.57 28.9001L36.83 28.4601C37.15 27.9301 37.45 27.4301 37.75 26.9301C37.77 26.9001 37.78 26.8801 37.79 26.8501C37.82 26.8001 37.84 26.7501 37.88 26.7101C38.28 26.2301 38.42 25.9201 38.37 25.6801C38.32 25.4601 38.11 25.2601 37.65 25.0301C37.46 24.9301 37.28 24.8101 37.11 24.7001C37 24.6201 36.88 24.5501 36.76 24.4801C36.31 24.2101 35.9 23.9201 35.68 23.3301C35.55 22.9901 35.19 22.7001 34.85 22.4601C34.6 22.2801 34.31 22.1501 34.03 22.0301C33.9 21.9701 33.77 21.9101 33.64 21.8501C33.18 21.6201 32.68 21.4601 32.2 21.3001C31.47 21.0601 30.71 20.8101 30.06 20.3301C29.87 20.1801 29.59 20.1301 29.33 20.0701C29.25 20.0501 29.16 20.0301 29.08 20.0101C28.56 19.8801 28.04 19.7501 27.49 19.6201C27.27 19.5701 27.04 19.5101 26.81 19.4601L27.15 21.1901L25.21 22.1001V22.1401C25.29 22.1401 25.37 22.1401 25.45 22.1601C25.65 22.1801 25.85 22.1901 26.02 22.1301C26.73 21.8701 27.38 21.9701 28.11 22.4701C28.33 22.6201 28.59 22.7101 28.84 22.8001C28.95 22.8401 29.06 22.8801 29.16 22.9201L29.19 22.8301L28.73 22.2801C28.67 22.2101 28.58 22.1601 28.49 22.1101C28.27 21.9801 28.02 21.8401 28.14 21.3801C28.14 21.3801 28.12 21.3501 28.11 21.3501C27.69 21.2301 27.62 20.9101 27.53 20.5301C27.5 20.4201 27.48 20.3101 27.44 20.2001V20.1501L27.47 20.1601C27.69 20.2201 27.91 20.2801 28.13 20.3301C28.71 20.4801 29.25 20.6201 29.78 20.7801C29.9 20.8201 30 20.9301 30.09 21.0501C30.13 21.1001 30.17 21.1501 30.22 21.1901L30.24 21.2101L30.21 21.2301C30.21 21.2301 30.12 21.3001 30.07 21.3301C29.95 21.4201 29.83 21.5101 29.7 21.5901L32.62 21.9201V22.1201L31.88 22.2501C32.22 22.3601 32.56 22.3901 32.9 22.4101C33.5 22.4601 34.06 22.5001 34.58 22.9601L34.65 23.0201L33.75 22.8801L33.73 22.9301C33.81 22.9601 33.89 23.0001 33.96 23.0301C34.15 23.1101 34.35 23.1901 34.55 23.2601C34.91 23.3901 35.25 23.5401 35.36 24.0201C35.4 24.1801 35.59 24.3401 35.8 24.4801C36.05 24.6501 36.31 24.8201 36.57 24.9801C36.88 25.1801 37.2 25.3801 37.51 25.6001C37.63 25.6801 37.75 25.9701 37.69 26.0801C37.49 26.4401 37.25 26.7901 37.03 27.1301C36.94 27.2601 36.86 27.3901 36.77 27.5201C36.74 27.5701 36.71 27.6201 36.68 27.6801C36.66 27.7101 36.65 27.7401 36.63 27.7701L36.61 27.8001L36.58 27.7701C35.72 26.8801 34.86 26.5501 33.87 26.7301C32.98 26.8901 32.42 27.3901 32.21 28.2201C32.01 28.9801 32.34 29.7201 33.09 30.2601C33.72 30.7101 34.46 30.8601 35.57 30.7801H35.61L35.02 32.6101L34.99 32.5901C34.24 32.1701 33.84 32.0401 33.69 32.0401L33.74 32.0601Z" fill="url(#paint15_linear_95_13385)"/>
<path d="M23.97 29.3401V29.3201C23.84 29.0401 23.95 28.7101 24.24 28.4601C24.38 28.3401 24.54 28.2401 24.7 28.1401C24.85 28.0501 25 27.9501 25.14 27.8401C25.26 27.7401 25.38 27.5301 25.36 27.3901C25.24 26.4001 25.52 25.8701 26.35 25.5101C26.78 25.3201 27.24 25.1901 27.68 25.0701C27.85 25.0201 28.02 24.9701 28.19 24.9201C28.84 24.7201 29.49 24.5301 30.13 24.3401C30.4 24.2601 30.68 24.1801 30.95 24.1001H31L30.99 24.1301C30.78 24.8401 30.22 25.3501 29.37 25.6001C29.04 25.7001 28.7 25.7801 28.38 25.8601C28.04 25.9401 27.69 26.0301 27.35 26.1301C26.78 26.3001 26.4 26.6101 26.21 27.0701C26.26 27.0701 26.3 27.0801 26.34 27.0901C26.44 27.1001 26.53 27.1201 26.62 27.1301C26.72 27.1501 26.83 27.1801 26.93 27.2101C26.96 27.2101 27 27.2301 27.04 27.2401C27.03 27.1101 27.04 27.0201 27.1 26.9701C27.17 26.8901 27.29 26.8801 27.4 26.8801C27.48 26.8801 27.56 26.8801 27.61 26.8501C27.78 26.7501 27.97 26.6801 28.17 26.6101C28.26 26.5801 28.35 26.5501 28.44 26.5101L28.5 26.4901L28.47 26.5501C28.17 27.2301 27.65 27.5901 26.84 27.6701C26.65 27.6901 26.35 27.8601 26.32 28.0001C26.28 28.1701 26.49 28.4301 26.61 28.5801C26.67 28.6601 26.77 28.7201 26.91 28.8001C26.98 28.8401 27.06 28.8901 27.16 28.9501L27.22 28.9901L23.98 29.3401H23.97ZM30.91 24.1701C30.65 24.2501 30.4 24.3201 30.14 24.4001C29.51 24.5901 28.85 24.7801 28.2 24.9801C28.03 25.0301 27.86 25.0801 27.69 25.1301C27.25 25.2501 26.79 25.3801 26.37 25.5701C25.55 25.9301 25.29 26.4201 25.41 27.3901C25.43 27.5501 25.3 27.7701 25.17 27.8801C25.03 28.0001 24.88 28.0901 24.73 28.1901C24.58 28.2901 24.42 28.3901 24.28 28.5001C24.02 28.7201 23.91 29.0301 24.01 29.2801L27.05 28.9501C26.99 28.9101 26.93 28.8701 26.87 28.8401C26.73 28.7601 26.63 28.7001 26.56 28.6101C26.39 28.3901 26.22 28.1601 26.26 27.9801C26.3 27.8001 26.63 27.6301 26.83 27.6101C27.59 27.5301 28.09 27.2001 28.39 26.5801C28.32 26.6101 28.25 26.6301 28.18 26.6601C27.98 26.7301 27.79 26.8001 27.63 26.8901C27.57 26.9301 27.48 26.9301 27.39 26.9301C27.28 26.9301 27.18 26.9301 27.13 27.0001C27.09 27.0501 27.07 27.1401 27.09 27.2701V27.3101H27.06C27.01 27.3001 26.96 27.2801 26.91 27.2701C26.8 27.2401 26.7 27.2201 26.6 27.1901C26.51 27.1701 26.43 27.1601 26.32 27.1501C26.27 27.1501 26.22 27.1401 26.16 27.1301H26.13L26.14 27.0901C26.34 26.5901 26.73 26.2601 27.33 26.0801C27.67 25.9801 28.02 25.8901 28.36 25.8101C28.69 25.7301 29.02 25.6501 29.35 25.5501C30.16 25.3101 30.7 24.8301 30.92 24.1601L30.91 24.1701Z" fill="url(#paint16_linear_95_13385)"/>
<path d="M27.2 30.86L27.22 30.73C27.36 29.93 27.78 29.38 28.47 29.1C28.77 28.98 28.86 28.83 28.85 28.51C28.83 27.47 29.21 26.72 30.01 26.23C30.47 25.95 30.94 25.65 31.39 25.37C31.59 25.24 31.79 25.12 31.99 24.99L32.04 24.96V25.01C32.01 25.62 31.68 26.13 31.02 26.58C30.27 27.1 29.88 27.82 29.83 28.77C29.79 29.58 29.76 29.62 28.94 29.8C28.35 29.93 27.69 30.11 27.27 30.75L27.2 30.86ZM31.97 25.06C31.79 25.17 31.6 25.29 31.42 25.41C30.97 25.69 30.51 25.99 30.04 26.27C29.25 26.75 28.88 27.48 28.9 28.5C28.9 28.84 28.8 29.01 28.49 29.14C27.86 29.4 27.46 29.9 27.3 30.6C27.73 30.04 28.36 29.86 28.93 29.74C29.72 29.57 29.74 29.55 29.78 28.77C29.82 27.82 30.23 27.07 30.99 26.54C31.61 26.11 31.93 25.63 31.98 25.06H31.97Z" fill="url(#paint17_linear_95_13385)"/>
<path d="M24.74 25.9399L24.77 25.8699C25.05 25.1399 25.65 24.7799 26.28 24.3899C26.8 24.0699 27.33 23.7499 27.68 23.1999L27.73 23.1299V23.2099C27.8 24.1699 27.54 24.6299 26.71 24.9999C26.27 25.1999 25.83 25.4099 25.4 25.6199C25.2 25.7099 25.01 25.8099 24.81 25.8999L24.75 25.9299L24.74 25.9399ZM27.68 23.2999C27.32 23.8099 26.81 24.1299 26.31 24.4399C25.71 24.8099 25.14 25.1599 24.85 25.8299C25.03 25.7499 25.2 25.6599 25.38 25.5799C25.81 25.3699 26.25 25.1599 26.69 24.9599C27.47 24.6099 27.72 24.1899 27.68 23.3099V23.2999Z" fill="url(#paint18_linear_95_13385)"/>
<path d="M31.71 28.0701L31.68 27.9601C31.43 26.8801 31.66 26.3301 32.5 25.9901C32.89 25.8301 33.31 25.7001 33.71 25.5701C33.89 25.5101 34.07 25.4601 34.25 25.4001L34.33 25.3701L34.28 25.4401C34 25.8501 33.58 26.1101 33.17 26.3601C32.58 26.7301 31.96 27.1001 31.73 27.9501L31.7 28.0601L31.71 28.0701ZM34.19 25.4901C34.04 25.5401 33.88 25.5901 33.73 25.6401C33.33 25.7701 32.92 25.9001 32.53 26.0501C31.75 26.3601 31.52 26.8701 31.72 27.8501C31.98 27.0501 32.57 26.6801 33.15 26.3301C33.55 26.0901 33.92 25.8501 34.19 25.4901Z" fill="url(#paint19_linear_95_13385)"/>
<path d="M28.83 30.5201L28.89 30.4101C29.19 29.8301 29.68 29.8401 30.17 29.8501C30.33 29.8501 30.5 29.8501 30.65 29.8401H30.74L30.67 29.8901C30.41 30.1101 30.09 30.1501 29.77 30.1901C29.48 30.2301 29.17 30.2601 28.93 30.4601L28.83 30.5401V30.5201ZM29.97 29.9001C29.59 29.9001 29.24 29.9501 29 30.3301C29.24 30.1901 29.51 30.1501 29.77 30.1201C30.05 30.0901 30.32 30.0501 30.56 29.9001C30.43 29.9001 30.3 29.9001 30.17 29.9001C30.1 29.9001 30.04 29.9001 29.97 29.9001Z" fill="url(#paint20_linear_95_13385)"/>
<path d="M26 14.12C27.59 12.66 27.13 9.99001 25.19 9.08001C24.1 8.54001 22.71 8.76001 21.83 9.61001C20.26 11.09 20.67 13.7 22.63 14.62C23.72 15.15 25.11 14.96 26 14.13V14.12ZM26 14.12C24.76 15.28 22.75 15.25 21.6 13.98C20.43 12.74 20.52 10.7 21.79 9.56001C23.03 8.42001 25.05 8.49001 26.2 9.73001C27.38 10.98 27.26 12.98 26 14.12Z" fill="#731F2E"/>
<path d="M24.13 27.0601L23.83 27.3201L23.33 27.5201L22.87 27.6601L22.52 27.8501L22.22 28.1601L22.39 28.1301L23.17 27.9801L23.57 27.8401L23.86 27.6801L24.04 27.4001L24.13 27.0601Z" fill="#C0902E"/>
<path d="M24.67 9.24995C24.67 9.24995 24.66 9.24995 24.65 9.24995C24.62 9.23995 24.61 9.20995 24.63 9.17995C24.67 9.09995 24.69 9.05995 24.69 9.05995C24.7 9.02995 24.73 9.01995 24.76 9.03995C24.79 9.04995 24.8 9.07995 24.78 9.10995C24.78 9.10995 24.76 9.14995 24.73 9.22995C24.73 9.24995 24.7 9.25995 24.68 9.25995L24.67 9.24995Z" fill="#671C1F"/>
<path d="M22.91 14.03C22.91 14.03 22.91 14.03 22.9 14.03C22.87 14.03 22.86 13.99 22.87 13.97C22.89 13.9 22.92 13.82 22.95 13.73C22.95 13.7 22.99 13.69 23.01 13.7C23.04 13.7 23.05 13.74 23.04 13.76C23.01 13.85 22.99 13.93 22.96 14C22.96 14.02 22.93 14.04 22.91 14.04V14.03ZM23.06 13.54C23.06 13.54 23.05 13.54 23.04 13.54C23.01 13.54 23 13.5 23.01 13.48C23.03 13.4 23.06 13.32 23.09 13.24C23.09 13.21 23.13 13.2 23.15 13.21C23.18 13.21 23.19 13.25 23.18 13.27C23.15 13.36 23.13 13.44 23.1 13.51C23.1 13.53 23.07 13.55 23.05 13.55L23.06 13.54ZM23.22 13.06C23.22 13.06 23.21 13.06 23.2 13.06C23.17 13.06 23.16 13.02 23.17 12.99C23.2 12.91 23.22 12.83 23.25 12.75C23.25 12.72 23.29 12.71 23.32 12.72C23.35 12.72 23.36 12.76 23.35 12.79C23.32 12.87 23.29 12.95 23.27 13.03C23.27 13.05 23.24 13.07 23.22 13.07V13.06ZM23.38 12.58C23.38 12.58 23.37 12.58 23.36 12.58C23.33 12.58 23.32 12.54 23.33 12.51C23.36 12.43 23.38 12.35 23.41 12.27C23.41 12.24 23.45 12.23 23.48 12.24C23.51 12.24 23.52 12.28 23.51 12.31C23.48 12.39 23.45 12.47 23.43 12.55C23.43 12.57 23.4 12.58 23.38 12.58ZM23.55 12.1C23.55 12.1 23.54 12.1 23.53 12.1C23.5 12.1 23.49 12.06 23.5 12.03C23.52 11.96 23.55 11.89 23.57 11.82V11.79C23.57 11.79 23.62 11.75 23.65 11.76C23.68 11.76 23.69 11.8 23.68 11.83V11.86C23.64 11.93 23.62 12 23.6 12.07C23.6 12.09 23.57 12.1 23.55 12.1ZM23.72 11.62C23.72 11.62 23.71 11.62 23.7 11.62C23.67 11.62 23.66 11.58 23.67 11.55C23.7 11.47 23.73 11.39 23.76 11.31C23.76 11.28 23.8 11.27 23.83 11.28C23.86 11.28 23.87 11.32 23.86 11.35C23.83 11.43 23.8 11.51 23.77 11.59C23.77 11.61 23.74 11.62 23.72 11.62ZM23.9 11.14C23.9 11.14 23.89 11.14 23.88 11.14C23.85 11.13 23.84 11.1 23.85 11.07C23.88 10.99 23.91 10.91 23.94 10.83C23.95 10.8 23.98 10.79 24.01 10.8C24.04 10.81 24.05 10.84 24.04 10.87C24.01 10.95 23.98 11.03 23.95 11.11C23.95 11.13 23.92 11.14 23.9 11.14ZM24.08 10.66C24.08 10.66 24.07 10.66 24.06 10.66C24.03 10.65 24.02 10.62 24.03 10.59C24.06 10.51 24.09 10.43 24.12 10.35C24.13 10.32 24.16 10.31 24.19 10.32C24.22 10.33 24.23 10.36 24.22 10.39C24.19 10.47 24.16 10.54 24.13 10.63C24.13 10.65 24.1 10.66 24.08 10.66ZM24.27 10.19C24.27 10.19 24.26 10.19 24.25 10.19C24.22 10.18 24.21 10.15 24.22 10.12C24.25 10.04 24.29 9.95998 24.32 9.87998C24.33 9.84998 24.36 9.83998 24.39 9.84998C24.42 9.85998 24.43 9.88998 24.42 9.91998C24.39 9.98998 24.36 10.07 24.32 10.15C24.32 10.17 24.29 10.18 24.27 10.18V10.19ZM24.47 9.71998C24.47 9.71998 24.46 9.71998 24.45 9.71998C24.42 9.70998 24.41 9.67998 24.42 9.64998C24.46 9.55998 24.49 9.47998 24.52 9.41998C24.53 9.38998 24.56 9.37998 24.59 9.38998C24.62 9.39998 24.63 9.42998 24.62 9.45998C24.59 9.52998 24.56 9.60998 24.52 9.68998C24.52 9.70998 24.49 9.71998 24.47 9.71998Z" fill="#671C1F"/>
<path d="M22.8 14.3999C22.8 14.3999 22.8 14.3999 22.79 14.3999C22.76 14.3999 22.75 14.3599 22.75 14.3399C22.75 14.3399 22.76 14.2999 22.79 14.2199C22.79 14.1899 22.83 14.1799 22.85 14.1799C22.88 14.1799 22.89 14.2199 22.89 14.2399C22.87 14.3199 22.86 14.3599 22.86 14.3599C22.86 14.3799 22.83 14.3999 22.81 14.3999H22.8Z" fill="#671C1F"/>
<path d="M25.3 9.48994C25.3 9.48994 25.29 9.48994 25.28 9.48994C25.25 9.47994 25.24 9.44994 25.26 9.41994C25.3 9.33994 25.32 9.29994 25.32 9.29994C25.33 9.26994 25.36 9.25994 25.39 9.27994C25.42 9.28994 25.43 9.31994 25.41 9.34994C25.41 9.34994 25.39 9.38994 25.35 9.46994C25.35 9.48994 25.32 9.49994 25.3 9.49994V9.48994Z" fill="#671C1F"/>
<path d="M23.52 14.27C23.52 14.27 23.52 14.27 23.51 14.27C23.48 14.27 23.47 14.23 23.47 14.21C23.49 14.14 23.51 14.06 23.54 13.96C23.54 13.93 23.58 13.92 23.6 13.93C23.63 13.93 23.64 13.97 23.63 13.99C23.6 14.08 23.58 14.16 23.56 14.23C23.56 14.25 23.53 14.27 23.51 14.27H23.52ZM23.66 13.78C23.66 13.78 23.66 13.78 23.65 13.78C23.62 13.78 23.61 13.74 23.62 13.72C23.64 13.64 23.67 13.56 23.7 13.48C23.7 13.45 23.74 13.44 23.76 13.45C23.79 13.45 23.8 13.49 23.79 13.51C23.76 13.6 23.74 13.68 23.71 13.75C23.71 13.77 23.68 13.79 23.66 13.79V13.78ZM23.81 13.29C23.81 13.29 23.8 13.29 23.79 13.29C23.76 13.29 23.75 13.25 23.76 13.23C23.79 13.15 23.81 13.07 23.84 12.99C23.84 12.96 23.88 12.95 23.9 12.96C23.93 12.96 23.94 13 23.93 13.02C23.9 13.1 23.88 13.18 23.85 13.26C23.85 13.28 23.82 13.3 23.8 13.3L23.81 13.29ZM23.97 12.81C23.97 12.81 23.96 12.81 23.95 12.81C23.92 12.81 23.91 12.77 23.92 12.74C23.95 12.66 23.97 12.58 24 12.5C24 12.47 24.04 12.46 24.07 12.47C24.1 12.47 24.11 12.51 24.1 12.54C24.07 12.62 24.04 12.7 24.02 12.78C24.02 12.8 23.99 12.82 23.97 12.82V12.81ZM24.14 12.33C24.14 12.33 24.13 12.33 24.12 12.33C24.09 12.33 24.08 12.29 24.09 12.26C24.12 12.18 24.15 12.1 24.17 12.02C24.17 11.99 24.21 11.98 24.24 11.99C24.27 11.99 24.28 12.03 24.27 12.06C24.24 12.14 24.21 12.22 24.19 12.3C24.19 12.32 24.16 12.33 24.14 12.33ZM24.31 11.85C24.31 11.85 24.3 11.85 24.29 11.85C24.26 11.85 24.25 11.81 24.26 11.78C24.29 11.7 24.32 11.62 24.35 11.54C24.36 11.51 24.39 11.5 24.42 11.51C24.45 11.52 24.46 11.55 24.45 11.58C24.42 11.66 24.39 11.74 24.36 11.82C24.36 11.84 24.33 11.85 24.31 11.85ZM24.49 11.37C24.49 11.37 24.48 11.37 24.47 11.37C24.44 11.36 24.43 11.33 24.44 11.3C24.47 11.22 24.5 11.14 24.53 11.06C24.54 11.03 24.57 11.02 24.6 11.03C24.63 11.04 24.64 11.07 24.63 11.1C24.6 11.18 24.57 11.26 24.54 11.34C24.54 11.36 24.51 11.37 24.49 11.37ZM24.68 10.9C24.68 10.9 24.67 10.9 24.66 10.9C24.63 10.89 24.62 10.86 24.63 10.83C24.66 10.75 24.7 10.67 24.73 10.59C24.74 10.56 24.77 10.55 24.8 10.56C24.83 10.57 24.84 10.6 24.83 10.63C24.8 10.71 24.77 10.78 24.73 10.87C24.73 10.89 24.7 10.9 24.68 10.9ZM24.88 10.43C24.88 10.43 24.87 10.43 24.86 10.43C24.83 10.42 24.82 10.39 24.83 10.36C24.87 10.28 24.9 10.2 24.93 10.13C24.94 10.1 24.97 10.09 25 10.1C25.03 10.11 25.04 10.14 25.03 10.17C25 10.24 24.96 10.32 24.93 10.4C24.93 10.42 24.9 10.43 24.88 10.43ZM25.08 9.95997C25.08 9.95997 25.07 9.95997 25.06 9.95997C25.03 9.94997 25.02 9.91997 25.03 9.88997C25.07 9.79997 25.1 9.72997 25.14 9.65997C25.15 9.62997 25.18 9.61997 25.21 9.62997C25.24 9.63997 25.25 9.66997 25.24 9.69997C25.21 9.76997 25.17 9.84997 25.13 9.92997C25.13 9.94997 25.1 9.95997 25.08 9.95997Z" fill="#671C1F"/>
<path d="M23.42 14.6399C23.42 14.6399 23.42 14.6399 23.41 14.6399C23.38 14.6399 23.37 14.6099 23.37 14.5799C23.37 14.5799 23.37 14.5399 23.4 14.4499C23.4 14.4199 23.44 14.4099 23.46 14.4099C23.49 14.4099 23.5 14.4499 23.5 14.4699C23.48 14.5499 23.47 14.5899 23.47 14.5899C23.47 14.6099 23.44 14.6299 23.42 14.6299V14.6399Z" fill="#671C1F"/>
<path d="M24.96 9.16991C24.62 9.75991 23.57 12.4199 23.07 14.4799C23.1 14.4899 23.13 14.4999 23.17 14.5099C23.67 12.4199 24.73 9.72991 25.06 9.19991C25.03 9.18991 25 9.16991 24.96 9.15991V9.16991Z" fill="#671C1F"/>
<path d="M23.78 14.6997C23.78 14.6997 23.75 14.6997 23.74 14.6797L23.6 14.4897C23.6 14.4897 23.59 14.4398 23.6 14.4198C23.62 14.3998 23.65 14.4098 23.67 14.4198L23.81 14.6097C23.81 14.6097 23.82 14.6597 23.81 14.6797C23.81 14.6797 23.79 14.6897 23.78 14.6897V14.6997Z" fill="#671C1F"/>
<path d="M23.77 14.47C23.77 14.47 23.73 14.47 23.72 14.44L23.62 14.26C23.62 14.26 23.62 14.2 23.64 14.19C23.66 14.18 23.7 14.19 23.71 14.21L23.81 14.39C23.81 14.39 23.81 14.45 23.79 14.46H23.77V14.47Z" fill="#671C1F"/>
<path d="M23.86 14.3198C23.86 14.3198 23.82 14.3098 23.81 14.2898L23.72 14.0598C23.72 14.0598 23.72 13.9998 23.75 13.9898C23.78 13.9798 23.81 13.9898 23.82 14.0198L23.91 14.2498C23.91 14.2498 23.91 14.3098 23.88 14.3198C23.88 14.3198 23.87 14.3198 23.86 14.3198Z" fill="#671C1F"/>
<path d="M23.92 14.01C23.92 14.01 23.88 14 23.87 13.97L23.81 13.76C23.81 13.76 23.81 13.7 23.85 13.7C23.88 13.7 23.91 13.7 23.91 13.74L23.97 13.95C23.97 13.95 23.97 14.01 23.93 14.01C23.93 14.01 23.93 14.01 23.92 14.01Z" fill="#671C1F"/>
<path d="M23.99 13.7399C23.99 13.7399 23.95 13.7199 23.94 13.6999L23.88 13.4499C23.88 13.4499 23.88 13.3899 23.92 13.3899C23.95 13.3899 23.98 13.3899 23.98 13.4299L24.04 13.6799C24.04 13.6799 24.04 13.7399 24 13.7399C24 13.7399 24 13.7399 23.99 13.7399Z" fill="#671C1F"/>
<path d="M24.08 13.4398C24.08 13.4398 24.03 13.4198 24.03 13.3898L24.01 13.1398C24.01 13.1398 24.03 13.0898 24.06 13.0798C24.09 13.0798 24.11 13.0998 24.12 13.1298L24.14 13.3798C24.14 13.3798 24.12 13.4298 24.09 13.4398H24.08Z" fill="#671C1F"/>
<path d="M24.19 13.0099C24.19 13.0099 24.14 12.9899 24.14 12.9599L24.12 12.6999C24.12 12.6999 24.14 12.6499 24.17 12.6399C24.2 12.6399 24.22 12.6599 24.23 12.6899L24.25 12.9499C24.25 12.9499 24.23 12.9999 24.2 13.0099H24.19Z" fill="#671C1F"/>
<path d="M24.3 12.62C24.3 12.62 24.25 12.6 24.25 12.57V12.31C24.25 12.31 24.28 12.26 24.31 12.26C24.31 12.26 24.36 12.28 24.36 12.31V12.57C24.36 12.57 24.33 12.62 24.3 12.62Z" fill="#671C1F"/>
<path d="M24.45 12.2199C24.42 12.2199 24.4 12.1899 24.4 12.1699V11.9099C24.4 11.9099 24.44 11.8599 24.47 11.8599C24.5 11.8599 24.52 11.8899 24.52 11.9099V12.1699C24.52 12.1699 24.48 12.2199 24.45 12.2199Z" fill="#671C1F"/>
<path d="M24.61 11.7999C24.58 11.7999 24.56 11.7699 24.56 11.7399L24.58 11.4799C24.58 11.4799 24.61 11.4299 24.64 11.4299C24.67 11.4299 24.69 11.4599 24.69 11.4899L24.67 11.7499C24.67 11.7499 24.65 11.7999 24.62 11.7999H24.61Z" fill="#671C1F"/>
<path d="M24.81 11.37C24.78 11.37 24.76 11.34 24.76 11.31L24.78 11.05C24.78 11.05 24.81 11 24.84 11C24.87 11 24.89 11.03 24.89 11.06L24.87 11.32C24.87 11.32 24.85 11.37 24.82 11.37H24.81Z" fill="#671C1F"/>
<path d="M24.97 10.9999C24.97 10.9999 24.92 10.9799 24.92 10.9499V10.6899C24.92 10.6899 24.94 10.6399 24.96 10.6399C24.99 10.6399 25.01 10.6599 25.01 10.6899V10.9499C25.01 10.9499 24.99 10.9999 24.97 10.9999Z" fill="#671C1F"/>
<path d="M25.1 10.6998C25.1 10.6998 25.05 10.6798 25.05 10.6498V10.3898C25.05 10.3898 25.07 10.3398 25.1 10.3398C25.13 10.3398 25.15 10.3598 25.15 10.3898V10.6498C25.15 10.6498 25.13 10.6998 25.1 10.6998Z" fill="#671C1F"/>
<path d="M25.21 10.35C25.21 10.35 25.16 10.33 25.16 10.3L25.14 10.04C25.14 10.04 25.16 9.98998 25.19 9.97998C25.22 9.97998 25.24 9.99998 25.25 10.03L25.27 10.29C25.27 10.29 25.25 10.34 25.22 10.35H25.21Z" fill="#671C1F"/>
<path d="M25.33 10.13C25.33 10.13 25.28 10.11 25.28 10.08L25.26 9.83002C25.26 9.83002 25.28 9.78002 25.31 9.77002C25.34 9.77002 25.36 9.79002 25.37 9.82002L25.39 10.07C25.39 10.07 25.37 10.12 25.34 10.13H25.33Z" fill="#671C1F"/>
<path d="M25.43 9.91988C25.43 9.91988 25.38 9.89988 25.38 9.86988L25.36 9.68988C25.36 9.68988 25.38 9.63988 25.41 9.62988C25.44 9.62988 25.46 9.64988 25.47 9.67988L25.49 9.85988C25.49 9.85988 25.47 9.90988 25.44 9.91988H25.43Z" fill="#671C1F"/>
<path d="M25.5 9.72999C25.5 9.72999 25.45 9.70999 25.45 9.67999V9.53999C25.45 9.53999 25.47 9.48999 25.5 9.48999C25.53 9.48999 25.55 9.50999 25.55 9.53999V9.67999C25.55 9.67999 25.53 9.72999 25.5 9.72999Z" fill="#671C1F"/>
<path d="M25.59 9.60988C25.59 9.60988 25.54 9.58988 25.54 9.55988L25.52 9.43988C25.52 9.43988 25.54 9.38988 25.56 9.37988C25.59 9.37988 25.61 9.39988 25.62 9.41988L25.64 9.53988C25.64 9.53988 25.62 9.58988 25.6 9.59988L25.59 9.60988Z" fill="#671C1F"/>
<path d="M24.05 14.7298C24.05 14.7298 24.02 14.7298 24.01 14.7098L23.87 14.5298C23.87 14.5298 23.86 14.4798 23.87 14.4598C23.89 14.4398 23.92 14.4498 23.94 14.4598L24.08 14.6398C24.08 14.6398 24.09 14.6898 24.08 14.7098C24.08 14.7098 24.06 14.7198 24.05 14.7198V14.7298Z" fill="#671C1F"/>
<path d="M24.05 14.51C24.05 14.51 24.02 14.51 24.01 14.48L23.92 14.31C23.92 14.31 23.92 14.26 23.94 14.24C23.96 14.23 23.99 14.24 24.01 14.26L24.1 14.43C24.1 14.43 24.1 14.48 24.08 14.5H24.06L24.05 14.51Z" fill="#671C1F"/>
<path d="M24.13 14.3599C24.13 14.3599 24.09 14.3499 24.08 14.3299L23.99 14.1099C23.99 14.1099 23.99 14.0599 24.02 14.0499C24.05 14.0399 24.07 14.0499 24.08 14.0799L24.17 14.2999C24.17 14.2999 24.17 14.3499 24.14 14.3599C24.14 14.3599 24.13 14.3599 24.12 14.3599H24.13Z" fill="#671C1F"/>
<path d="M24.19 14.06C24.19 14.06 24.15 14.05 24.14 14.02L24.08 13.82C24.08 13.82 24.08 13.77 24.11 13.76C24.14 13.76 24.16 13.76 24.17 13.79L24.23 13.99C24.23 13.99 24.23 14.04 24.2 14.05C24.2 14.05 24.2 14.05 24.19 14.05V14.06Z" fill="#671C1F"/>
<path d="M24.25 13.8C24.25 13.8 24.21 13.79 24.2 13.76L24.14 13.52C24.14 13.52 24.14 13.47 24.18 13.46C24.21 13.46 24.23 13.46 24.24 13.5L24.3 13.74C24.3 13.74 24.3 13.79 24.26 13.8C24.26 13.8 24.26 13.8 24.25 13.8Z" fill="#671C1F"/>
<path d="M24.34 13.5099C24.34 13.5099 24.29 13.4899 24.29 13.4599L24.27 13.2199C24.27 13.2199 24.29 13.1699 24.32 13.1699C24.35 13.1699 24.37 13.1899 24.37 13.2199L24.39 13.4599C24.39 13.4599 24.37 13.5099 24.34 13.5099Z" fill="#671C1F"/>
<path d="M24.44 13.1C24.44 13.1 24.39 13.08 24.39 13.05L24.37 12.8C24.37 12.8 24.39 12.75 24.42 12.75C24.45 12.75 24.47 12.77 24.47 12.8L24.49 13.05C24.49 13.05 24.47 13.1 24.44 13.1Z" fill="#671C1F"/>
<path d="M24.55 12.7201C24.55 12.7201 24.5 12.7001 24.5 12.6701V12.4201C24.5 12.4201 24.52 12.3701 24.55 12.3701C24.55 12.3701 24.6 12.3901 24.6 12.4201V12.6701C24.6 12.6701 24.58 12.7201 24.55 12.7201Z" fill="#671C1F"/>
<path d="M24.69 12.32C24.66 12.32 24.64 12.3 24.64 12.27V12.02C24.64 12.02 24.68 11.97 24.7 11.97C24.73 11.97 24.75 11.99 24.75 12.02V12.27C24.75 12.27 24.71 12.32 24.69 12.32Z" fill="#671C1F"/>
<path d="M24.84 11.9201C24.81 11.9201 24.79 11.8901 24.79 11.8701L24.81 11.6201C24.81 11.6201 24.84 11.5701 24.86 11.5701C24.89 11.5701 24.91 11.6001 24.91 11.6201L24.89 11.8701C24.89 11.8701 24.87 11.9201 24.84 11.9201Z" fill="#671C1F"/>
<path d="M25.03 11.4999C25 11.4999 24.98 11.4699 24.98 11.4499L25 11.1999C25 11.1999 25.03 11.1499 25.05 11.1499C25.08 11.1499 25.1 11.1799 25.1 11.1999L25.08 11.4499C25.08 11.4499 25.06 11.4999 25.03 11.4999Z" fill="#671C1F"/>
<path d="M25.18 11.15C25.18 11.15 25.13 11.13 25.13 11.1V10.85C25.13 10.85 25.14 10.8 25.17 10.8C25.2 10.8 25.22 10.82 25.22 10.85V11.1C25.22 11.1 25.21 11.15 25.18 11.15Z" fill="#671C1F"/>
<path d="M25.3 10.85C25.3 10.85 25.25 10.83 25.25 10.8V10.55C25.25 10.55 25.27 10.5 25.3 10.5C25.3 10.5 25.35 10.52 25.35 10.55V10.8C25.35 10.8 25.33 10.85 25.3 10.85Z" fill="#671C1F"/>
<path d="M25.41 10.5199C25.41 10.5199 25.36 10.4999 25.36 10.4699L25.34 10.2199C25.34 10.2199 25.36 10.1699 25.39 10.1699C25.42 10.1699 25.44 10.1899 25.44 10.2199L25.46 10.4699C25.46 10.4699 25.44 10.5199 25.41 10.5199Z" fill="#671C1F"/>
<path d="M25.52 10.3C25.52 10.3 25.47 10.28 25.47 10.26L25.45 10.02C25.45 10.02 25.47 9.96997 25.49 9.96997C25.52 9.96997 25.54 9.98997 25.54 10.01L25.56 10.25C25.56 10.25 25.54 10.3 25.52 10.3Z" fill="#671C1F"/>
<path d="M25.61 10.1001C25.61 10.1001 25.56 10.0801 25.56 10.0601L25.54 9.89008C25.54 9.89008 25.56 9.84008 25.58 9.83008C25.61 9.83008 25.63 9.85008 25.64 9.87008L25.66 10.0401C25.66 10.0401 25.64 10.0901 25.62 10.1001H25.61Z" fill="#671C1F"/>
<path d="M25.68 9.90992C25.68 9.90992 25.63 9.88992 25.63 9.85992V9.71992C25.63 9.71992 25.65 9.66992 25.68 9.66992C25.68 9.66992 25.73 9.68992 25.73 9.71992V9.85992C25.73 9.85992 25.71 9.90992 25.68 9.90992Z" fill="#671C1F"/>
<path d="M25.77 9.80008C25.77 9.80008 25.72 9.78008 25.72 9.76008L25.7 9.64008C25.7 9.64008 25.72 9.59008 25.74 9.58008C25.77 9.58008 25.79 9.60008 25.8 9.62008L25.82 9.74008C25.82 9.74008 25.8 9.79008 25.78 9.80008H25.77Z" fill="#671C1F"/>
<path d="M22.45 14.2598C22.45 14.2598 22.42 14.2598 22.41 14.2398L22.27 14.0498C22.27 14.0498 22.26 13.9998 22.27 13.9798C22.29 13.9598 22.32 13.9698 22.34 13.9798L22.48 14.1698C22.48 14.1698 22.49 14.2198 22.48 14.2398C22.48 14.2398 22.46 14.2498 22.45 14.2498V14.2598Z" fill="#671C1F"/>
<path d="M22.45 14.0298C22.45 14.0298 22.41 14.0298 22.4 13.9998L22.3 13.8198C22.3 13.8198 22.3 13.7598 22.32 13.7498C22.34 13.7398 22.38 13.7498 22.39 13.7698L22.49 13.9498C22.49 13.9498 22.49 14.0098 22.47 14.0198H22.45V14.0298Z" fill="#671C1F"/>
<path d="M22.53 13.8799C22.53 13.8799 22.49 13.8699 22.48 13.8499L22.39 13.6199C22.39 13.6199 22.39 13.5599 22.42 13.5499C22.45 13.5399 22.48 13.5499 22.49 13.5799L22.58 13.8099C22.58 13.8099 22.58 13.8699 22.55 13.8799C22.55 13.8799 22.54 13.8799 22.53 13.8799Z" fill="#671C1F"/>
<path d="M22.59 13.57C22.59 13.57 22.55 13.56 22.54 13.53L22.48 13.32C22.48 13.32 22.48 13.26 22.52 13.26C22.55 13.26 22.58 13.26 22.58 13.3L22.64 13.51C22.64 13.51 22.64 13.57 22.6 13.57C22.6 13.57 22.6 13.57 22.59 13.57Z" fill="#671C1F"/>
<path d="M22.66 13.3C22.66 13.3 22.62 13.28 22.61 13.26L22.55 13.01C22.55 13.01 22.55 12.95 22.59 12.95C22.62 12.95 22.65 12.95 22.65 12.99L22.71 13.24C22.71 13.24 22.71 13.3 22.67 13.3C22.67 13.3 22.67 13.3 22.66 13.3Z" fill="#671C1F"/>
<path d="M22.75 12.9999C22.75 12.9999 22.7 12.9799 22.7 12.9499L22.68 12.6999C22.68 12.6999 22.7 12.6499 22.73 12.6399C22.76 12.6399 22.78 12.6599 22.79 12.6899L22.81 12.9399C22.81 12.9399 22.79 12.9899 22.76 12.9999H22.75Z" fill="#671C1F"/>
<path d="M22.86 12.57C22.86 12.57 22.81 12.55 22.81 12.52L22.79 12.26C22.79 12.26 22.81 12.21 22.84 12.2C22.87 12.2 22.89 12.22 22.9 12.25L22.92 12.51C22.92 12.51 22.9 12.56 22.87 12.57H22.86Z" fill="#671C1F"/>
<path d="M22.97 12.1801C22.97 12.1801 22.92 12.1601 22.92 12.1301V11.8701C22.92 11.8701 22.95 11.8201 22.98 11.8201C23.01 11.8201 23.03 11.8401 23.03 11.8701V12.1301C23.03 12.1301 23 12.1801 22.97 12.1801Z" fill="#671C1F"/>
<path d="M23.12 11.7799C23.09 11.7799 23.07 11.7499 23.07 11.7299V11.4699C23.07 11.4699 23.11 11.4199 23.14 11.4199C23.17 11.4199 23.19 11.4499 23.19 11.4699V11.7299C23.19 11.7299 23.15 11.7799 23.12 11.7799Z" fill="#671C1F"/>
<path d="M23.29 11.36C23.26 11.36 23.24 11.33 23.24 11.3L23.26 11.04C23.26 11.04 23.29 10.99 23.32 10.99C23.35 10.99 23.37 11.02 23.37 11.05L23.35 11.31C23.35 11.31 23.33 11.36 23.3 11.36H23.29Z" fill="#671C1F"/>
<path d="M23.48 10.9301C23.45 10.9301 23.43 10.9001 23.43 10.8701L23.45 10.6101C23.45 10.6101 23.48 10.5601 23.51 10.5601C23.54 10.5601 23.56 10.5901 23.56 10.6201L23.54 10.8801C23.54 10.8801 23.52 10.9301 23.49 10.9301H23.48Z" fill="#671C1F"/>
<path d="M23.64 10.56C23.64 10.56 23.59 10.54 23.59 10.51V10.25C23.59 10.25 23.61 10.2 23.63 10.2C23.66 10.2 23.68 10.22 23.68 10.25V10.51C23.68 10.51 23.66 10.56 23.64 10.56Z" fill="#671C1F"/>
<path d="M23.77 10.2599C23.77 10.2599 23.72 10.2399 23.72 10.2099V9.9499C23.72 9.9499 23.74 9.8999 23.77 9.8999C23.8 9.8999 23.82 9.9199 23.82 9.9499V10.2099C23.82 10.2099 23.8 10.2599 23.77 10.2599Z" fill="#671C1F"/>
<path d="M23.89 9.91004C23.89 9.91004 23.84 9.89004 23.84 9.86004L23.82 9.60004C23.82 9.60004 23.84 9.55004 23.87 9.54004C23.9 9.54004 23.92 9.56004 23.93 9.59004L23.95 9.85004C23.95 9.85004 23.93 9.90004 23.9 9.91004H23.89Z" fill="#671C1F"/>
<path d="M24 9.69008C24 9.69008 23.95 9.67008 23.95 9.64008L23.93 9.39008C23.93 9.39008 23.95 9.34008 23.98 9.33008C24.01 9.33008 24.03 9.35008 24.04 9.38008L24.06 9.63008C24.06 9.63008 24.04 9.68008 24.01 9.69008H24Z" fill="#671C1F"/>
<path d="M24.1 9.47994C24.1 9.47994 24.05 9.45994 24.05 9.42994L24.03 9.24994C24.03 9.24994 24.05 9.19994 24.08 9.18994C24.11 9.18994 24.13 9.20994 24.14 9.23994L24.16 9.41994C24.16 9.41994 24.14 9.46994 24.11 9.47994H24.1Z" fill="#671C1F"/>
<path d="M24.17 9.29005C24.17 9.29005 24.12 9.27005 24.12 9.24005V9.10005C24.12 9.10005 24.14 9.05005 24.17 9.05005C24.2 9.05005 24.22 9.07005 24.22 9.10005V9.24005C24.22 9.24005 24.2 9.29005 24.17 9.29005Z" fill="#671C1F"/>
<path d="M24.26 9.16994C24.26 9.16994 24.21 9.14994 24.21 9.11994L24.19 8.99994C24.19 8.99994 24.21 8.94994 24.23 8.93994C24.26 8.93994 24.28 8.95994 24.29 8.97994L24.31 9.09994C24.31 9.09994 24.29 9.14994 24.27 9.15994L24.26 9.16994Z" fill="#671C1F"/>
<path d="M22.67 14.3399C22.67 14.3399 22.63 14.3299 22.63 14.3099L22.56 14.1699C22.56 14.1699 22.56 14.1199 22.58 14.0999C22.6 14.0899 22.63 14.0999 22.65 14.1199L22.72 14.2599C22.72 14.2599 22.72 14.3099 22.7 14.3299C22.7 14.3299 22.69 14.3299 22.68 14.3299L22.67 14.3399Z" fill="#671C1F"/>
<path d="M22.73 14.1199C22.73 14.1199 22.7 14.1199 22.69 14.0899L22.6 13.9199C22.6 13.9199 22.6 13.8699 22.62 13.8499C22.64 13.8399 22.67 13.8499 22.69 13.8699L22.78 14.0399C22.78 14.0399 22.78 14.0899 22.76 14.1099H22.74L22.73 14.1199Z" fill="#671C1F"/>
<path d="M22.8 13.92C22.8 13.92 22.76 13.91 22.75 13.89L22.66 13.67C22.66 13.67 22.66 13.62 22.69 13.61C22.72 13.6 22.74 13.61 22.75 13.64L22.84 13.86C22.84 13.86 22.84 13.91 22.81 13.92C22.81 13.92 22.8 13.92 22.79 13.92H22.8Z" fill="#671C1F"/>
<path d="M22.86 13.6201C22.86 13.6201 22.82 13.6101 22.81 13.5801L22.75 13.3801C22.75 13.3801 22.75 13.3301 22.78 13.3201C22.81 13.3201 22.83 13.3201 22.84 13.3501L22.9 13.5501C22.9 13.5501 22.9 13.6001 22.87 13.6101C22.87 13.6101 22.87 13.6101 22.86 13.6101V13.6201Z" fill="#671C1F"/>
<path d="M22.92 13.36C22.92 13.36 22.88 13.35 22.87 13.32L22.81 13.08C22.81 13.08 22.81 13.03 22.85 13.02C22.88 13.02 22.9 13.02 22.91 13.06L22.97 13.3C22.97 13.3 22.97 13.35 22.93 13.36C22.93 13.36 22.93 13.36 22.92 13.36Z" fill="#671C1F"/>
<path d="M23.01 13.07C23.01 13.07 22.96 13.05 22.96 13.02L22.94 12.78C22.94 12.78 22.96 12.73 22.99 12.73C23.02 12.73 23.04 12.75 23.04 12.78L23.06 13.02C23.06 13.02 23.04 13.07 23.01 13.07Z" fill="#671C1F"/>
<path d="M23.11 12.6601C23.11 12.6601 23.06 12.6401 23.06 12.6101L23.04 12.3601C23.04 12.3601 23.06 12.3101 23.09 12.3101C23.12 12.3101 23.14 12.3301 23.14 12.3601L23.16 12.6101C23.16 12.6101 23.14 12.6601 23.11 12.6601Z" fill="#671C1F"/>
<path d="M23.22 12.2799C23.22 12.2799 23.17 12.2599 23.17 12.2299V11.9799C23.17 11.9799 23.19 11.9299 23.22 11.9299C23.22 11.9299 23.27 11.9499 23.27 11.9799V12.2299C23.27 12.2299 23.25 12.2799 23.22 12.2799Z" fill="#671C1F"/>
<path d="M23.36 11.88C23.33 11.88 23.31 11.86 23.31 11.83V11.58C23.31 11.58 23.35 11.53 23.37 11.53C23.4 11.53 23.42 11.55 23.42 11.58V11.83C23.42 11.83 23.38 11.88 23.36 11.88Z" fill="#671C1F"/>
<path d="M23.51 11.4799C23.48 11.4799 23.46 11.4499 23.46 11.4299L23.48 11.1799C23.48 11.1799 23.51 11.1299 23.53 11.1299C23.56 11.1299 23.58 11.1599 23.58 11.1799L23.56 11.4299C23.56 11.4299 23.54 11.4799 23.51 11.4799Z" fill="#671C1F"/>
<path d="M23.7 11.06C23.67 11.06 23.65 11.03 23.65 11.01L23.67 10.76C23.67 10.76 23.7 10.71 23.72 10.71C23.75 10.71 23.77 10.74 23.77 10.76L23.75 11.01C23.75 11.01 23.73 11.06 23.7 11.06Z" fill="#671C1F"/>
<path d="M23.85 10.7099C23.85 10.7099 23.8 10.6899 23.8 10.6599V10.4099C23.8 10.4099 23.81 10.3599 23.84 10.3599C23.87 10.3599 23.89 10.3799 23.89 10.4099V10.6599C23.89 10.6599 23.88 10.7099 23.85 10.7099Z" fill="#671C1F"/>
<path d="M23.97 10.4101C23.97 10.4101 23.92 10.3901 23.92 10.3601V10.1101C23.92 10.1101 23.94 10.0601 23.97 10.0601C23.97 10.0601 24.02 10.0801 24.02 10.1101V10.3601C24.02 10.3601 24 10.4101 23.97 10.4101Z" fill="#671C1F"/>
<path d="M24.08 10.08C24.08 10.08 24.03 10.06 24.03 10.03L24.01 9.77998C24.01 9.77998 24.03 9.72998 24.06 9.72998C24.09 9.72998 24.11 9.74998 24.11 9.77998L24.13 10.03C24.13 10.03 24.11 10.08 24.08 10.08Z" fill="#671C1F"/>
<path d="M24.19 9.86003C24.19 9.86003 24.14 9.84003 24.14 9.82003L24.12 9.58003C24.12 9.58003 24.14 9.53003 24.16 9.53003C24.19 9.53003 24.21 9.55003 24.21 9.57003L24.23 9.81003C24.23 9.81003 24.21 9.86003 24.19 9.86003Z" fill="#671C1F"/>
<path d="M24.31 9.65989C24.31 9.65989 24.26 9.63989 24.26 9.61989L24.24 9.44989C24.24 9.44989 24.26 9.39989 24.28 9.38989C24.31 9.38989 24.33 9.40989 24.34 9.42989L24.36 9.59989C24.36 9.59989 24.34 9.64989 24.32 9.65989H24.31Z" fill="#671C1F"/>
<path d="M24.39 9.43995C24.39 9.43995 24.34 9.41995 24.34 9.38995V9.24995C24.34 9.24995 24.36 9.19995 24.39 9.19995C24.39 9.19995 24.44 9.21995 24.44 9.24995V9.38995C24.44 9.38995 24.42 9.43995 24.39 9.43995Z" fill="#671C1F"/>
<path d="M24.49 9.24002C24.49 9.24002 24.44 9.22002 24.44 9.20002L24.42 9.08002C24.42 9.08002 24.44 9.03002 24.46 9.02002C24.49 9.02002 24.51 9.04002 24.52 9.06002L24.54 9.18002C24.54 9.18002 24.52 9.23002 24.5 9.24002H24.49Z" fill="#671C1F"/>
<mask id="mask2_95_13385" style="mask-type:luminance" maskUnits="userSpaceOnUse" x="0" y="31" width="29" height="3">
<path d="M0.98 32.5801C1.07 32.6501 1.12 32.7501 1.1 32.8901C1.07 33.1101 0.89 33.2701 0.57 33.2701H0L0.24 31.9101H0.76C1.03 31.9101 1.2 32.0701 1.16 32.3101C1.14 32.4301 1.08 32.5201 0.99 32.5801H0.98ZM0.66 32.7301H0.45L0.41 32.9601H0.62C0.7 32.9601 0.75 32.9101 0.76 32.8501C0.77 32.7801 0.74 32.7401 0.66 32.7401V32.7301ZM0.54 32.2201L0.5 32.4301H0.67C0.74 32.4301 0.79 32.3901 0.81 32.3201C0.82 32.2501 0.78 32.2101 0.71 32.2101H0.54V32.2201ZM1.99 33.0701H1.54L1.45 33.2701H1.07L1.76 31.9101H2.18L2.39 33.2701H2.02L2 33.0701H1.99ZM1.96 32.7701L1.91 32.3001L1.69 32.7701H1.96ZM2.72 31.9101H2.99L3.34 32.6201L3.47 31.9101H3.81L3.57 33.2701H3.3L2.95 32.5601L2.82 33.2701H2.47L2.71 31.9101H2.72ZM5.25 32.6301C5.18 33.0401 4.88 33.3001 4.47 33.3001C4.06 33.3001 3.79 32.9801 3.86 32.5701C3.93 32.1701 4.26 31.8801 4.66 31.8801C4.93 31.8801 5.13 32.0101 5.23 32.2001L4.91 32.3701C4.86 32.2701 4.76 32.2201 4.63 32.2201C4.42 32.2201 4.25 32.3701 4.21 32.5901C4.17 32.8001 4.29 32.9701 4.51 32.9701C4.69 32.9701 4.8 32.9001 4.86 32.7901H4.55L4.6 32.4901H5.28L5.26 32.6301H5.25ZM6.17 32.9301L6.11 33.2701H5.3L5.54 31.9101H5.89L5.71 32.9301H6.18H6.17ZM7.09 33.0701H6.64L6.55 33.2701H6.17L6.86 31.9101H7.28L7.49 33.2701H7.12L7.1 33.0701H7.09ZM7.06 32.7701L7.01 32.3001L6.79 32.7701H7.06ZM8.91 32.6101C8.84 32.9901 8.54 33.2701 8.13 33.2701H7.58L7.82 31.9101H8.37C8.72 31.9101 8.98 32.2201 8.91 32.6101ZM8.31 32.2501H8.11L7.99 32.9401H8.18C8.38 32.9401 8.53 32.8001 8.57 32.5901C8.6 32.3801 8.5 32.2501 8.31 32.2501ZM9.48 32.2401L9.45 32.4301H9.92L9.86 32.7501H9.4L9.37 32.9501H9.89L9.83 33.2801H8.96L9.2 31.9201H10.06L10 32.2401H9.49H9.48ZM9.96 32.9601L10.27 32.8001C10.3 32.9101 10.38 32.9701 10.52 32.9701C10.64 32.9701 10.69 32.9301 10.7 32.8801C10.72 32.8001 10.6 32.7701 10.47 32.7201C10.26 32.6501 10.1 32.5301 10.14 32.2801C10.18 32.0201 10.41 31.8901 10.66 31.8901C10.89 31.8901 11.06 32.0001 11.13 32.2001L10.83 32.3601C10.79 32.2701 10.72 32.2201 10.62 32.2201C10.53 32.2201 10.49 32.2601 10.48 32.3101C10.46 32.3801 10.53 32.4101 10.69 32.4701C10.88 32.5401 11.09 32.6201 11.04 32.9201C10.99 33.1801 10.78 33.3101 10.48 33.3101C10.18 33.3101 10.01 33.1701 9.95 32.9701L9.96 32.9601ZM12.43 31.9101L12.19 33.2701H11.85L11.94 32.7501H11.56L11.47 33.2701H11.12L11.36 31.9101H11.71L11.62 32.4101H12L12.09 31.9101H12.43ZM14.01 32.4001C13.97 32.6701 13.77 32.8601 13.44 32.8601H13.26L13.19 33.2701H12.84L13.08 31.9101H13.59C13.86 31.9101 14.05 32.1101 14 32.4001H14.01ZM13.54 32.2401H13.38L13.33 32.5301H13.5C13.59 32.5301 13.66 32.4701 13.67 32.3801C13.69 32.2901 13.64 32.2401 13.54 32.2401ZM14.89 32.7701L15.08 33.2601H14.73L14.57 32.8201H14.42L14.34 33.2601H13.99L14.23 31.9001H14.76C15.03 31.9001 15.22 32.1101 15.18 32.3901C15.15 32.5601 15.04 32.7001 14.89 32.7701ZM14.47 32.5301H14.67C14.76 32.5301 14.82 32.4701 14.84 32.3801C14.86 32.2901 14.81 32.2301 14.71 32.2301H14.52L14.47 32.5301ZM15.73 32.2301L15.7 32.4201H16.17L16.11 32.7401H15.65L15.62 32.9401H16.14L16.08 33.2701H15.21L15.45 31.9101H16.31L16.25 32.2301H15.74H15.73ZM17.62 33.2601H17.28L17.41 32.5301L16.99 33.0801H16.96L16.73 32.5201L16.6 33.2601H16.25L16.49 31.9001H16.84L17.06 32.4801L17.51 31.9001H17.88L17.64 33.2601H17.62ZM18.42 31.9001L18.18 33.2601H17.83L18.07 31.9001H18.42ZM18.92 32.2201L18.89 32.4101H19.36L19.3 32.7301H18.84L18.81 32.9301H19.33L19.27 33.2601H18.4L18.64 31.9001H19.5L19.44 32.2201H18.93H18.92ZM20.32 32.7601L20.51 33.2501H20.16L20 32.8101H19.85L19.77 33.2501H19.42L19.66 31.8901H20.19C20.46 31.8901 20.65 32.1001 20.61 32.3801C20.58 32.5501 20.47 32.6901 20.32 32.7601ZM19.9 32.5201H20.1C20.19 32.5201 20.25 32.4601 20.27 32.3701C20.29 32.2801 20.24 32.2201 20.14 32.2201H19.95L19.9 32.5201ZM21.94 32.9201L21.88 33.2601H21.07L21.31 31.9001H21.66L21.48 32.9201H21.95H21.94ZM22.54 32.2201L22.51 32.4101H22.98L22.92 32.7301H22.46L22.43 32.9301H22.95L22.89 33.2601H22.02L22.26 31.9001H23.12L23.06 32.2201H22.55H22.54ZM23.88 33.0601H23.43L23.34 33.2601H22.96L23.65 31.9001H24.07L24.28 33.2601H23.91L23.89 33.0601H23.88ZM23.85 32.7601L23.8 32.2901L23.58 32.7601H23.85ZM25.78 32.6101C25.71 33.0201 25.41 33.2801 25 33.2801C24.59 33.2801 24.32 32.9601 24.39 32.5501C24.46 32.1501 24.79 31.8601 25.19 31.8601C25.46 31.8601 25.66 31.9901 25.76 32.1801L25.44 32.3501C25.39 32.2501 25.29 32.2001 25.16 32.2001C24.95 32.2001 24.78 32.3501 24.74 32.5701C24.7 32.7801 24.82 32.9501 25.04 32.9501C25.22 32.9501 25.33 32.8801 25.39 32.7701H25.08L25.13 32.4701H25.81L25.79 32.6101H25.78ZM25.88 32.8001L26.04 31.8901H26.39L26.24 32.7701C26.22 32.8701 26.26 32.9401 26.4 32.9401C26.54 32.9401 26.6 32.8701 26.62 32.7701L26.77 31.8901H27.12L26.96 32.8001C26.9 33.1101 26.67 33.2701 26.37 33.2701C26.04 33.2701 25.84 33.0701 25.89 32.8001H25.88ZM27.6 32.2101L27.57 32.4001H28.04L27.98 32.7201H27.52L27.49 32.9201H28.01L27.95 33.2501H27.08L27.32 31.8901H28.18L28.12 32.2101H27.61H27.6Z" fill="white"/>
</mask>
<g mask="url(#mask2_95_13385)">
<path d="M27.38 31.9202H27.04V33.2802H27.38V31.9202Z" fill="#0E733A"/>
<path d="M27.76 31.9202H27.38V33.2802H27.76V31.9202Z" fill="#0E743B"/>
<path d="M28.14 31.9202H27.76V33.2802H28.14V31.9202Z" fill="#0D753B"/>
<path d="M25.86 31.9202H25.8V33.3002H25.86V31.9202Z" fill="#0C6F39"/>
<path d="M26.24 31.9202H25.86V33.3002H26.24V31.9202Z" fill="#0B7039"/>
<path d="M26.62 31.9202H26.24V33.3002H26.62V31.9202Z" fill="#0C713A"/>
<path d="M27 31.9202H26.62V33.3002H27V31.9202Z" fill="#0F723A"/>
<path d="M27.08 31.9202H27V33.3002H27.08V31.9202Z" fill="#0E733A"/>
<path d="M24.34 31.8901H24.29V33.3001H24.34V31.8901Z" fill="#0E6B37"/>
<path d="M24.72 31.8901H24.34V33.3001H24.72V31.8901Z" fill="#0E6C37"/>
<path d="M25.1 31.8901H24.72V33.3001H25.1V31.8901Z" fill="#0D6D38"/>
<path d="M25.48 31.8901H25.1V33.3001H25.48V31.8901Z" fill="#0D6E38"/>
<path d="M25.77 31.8901H25.48V33.3001H25.77V31.8901Z" fill="#0C6F39"/>
<path d="M23.58 32.3103H23.55V32.7803H23.58V32.3103Z" fill="#116936"/>
<path d="M23.82 32.3103H23.58V32.7803H23.82V32.3103Z" fill="#0E6A36"/>
<path d="M23.2 31.9202H22.93V33.2802H23.2V31.9202Z" fill="#116835"/>
<path d="M23.58 31.9202H23.2V33.2802H23.58V31.9202Z" fill="#116936"/>
<path d="M23.96 31.9202H23.58V33.2802H23.96V31.9202Z" fill="#0E6A36"/>
<path d="M24.25 31.9202H23.96V33.2802H24.25V31.9202Z" fill="#0E6B37"/>
<path d="M22.06 31.9202H21.99V33.2802H22.06V31.9202Z" fill="#146533"/>
<path d="M22.43 31.9202H22.05V33.2802H22.43V31.9202Z" fill="#146634"/>
<path d="M22.81 31.9202H22.43V33.2802H22.81V31.9202Z" fill="#146734"/>
<path d="M23.09 31.9202H22.82V33.2802H23.09V31.9202Z" fill="#116835"/>
<path d="M21.3 31.9202H21.05V33.2802H21.3V31.9202Z" fill="#126333"/>
<path d="M21.67 31.9202H21.29V33.2802H21.67V31.9202Z" fill="#146433"/>
<path d="M21.92 31.9202H21.67V33.2802H21.92V31.9202Z" fill="#146533"/>
<path d="M20.15 32.2402H19.88V32.5502H20.15V32.2402Z" fill="#146031"/>
<path d="M20.26 32.2402H20.15V32.5502H20.26V32.2402Z" fill="#126132"/>
<path d="M19.78 31.9202H19.41V33.2802H19.78V31.9202Z" fill="#165F30"/>
<path d="M20.15 31.9202H19.77V33.2802H20.15V31.9202Z" fill="#146031"/>
<path d="M20.53 31.9202H20.15V33.2802H20.53V31.9202Z" fill="#126132"/>
<path d="M20.64 31.9202H20.53V33.2802H20.64V31.9202Z" fill="#126232"/>
<path d="M18.63 31.9202H18.37V33.2802H18.63V31.9202Z" fill="#195C2E"/>
<path d="M19.01 31.9202H18.63V33.2802H19.01V31.9202Z" fill="#175D2F"/>
<path d="M19.39 31.9202H19.01V33.2802H19.39V31.9202Z" fill="#165E30"/>
<path d="M19.47 31.9202H19.39V33.2802H19.47V31.9202Z" fill="#165F30"/>
<path d="M17.87 31.9202H17.81V33.2802H17.87V31.9202Z" fill="#195A2D"/>
<path d="M18.25 31.9202H17.87V33.2802H18.25V31.9202Z" fill="#195B2E"/>
<path d="M18.39 31.9202H18.25V33.2802H18.39V31.9202Z" fill="#195C2E"/>
<path d="M16.35 31.9202H16.21V33.2802H16.35V31.9202Z" fill="#19562B"/>
<path d="M16.73 31.9202H16.35V33.2802H16.73V31.9202Z" fill="#19572C"/>
<path d="M17.11 31.9202H16.73V33.2802H17.11V31.9202Z" fill="#1A582C"/>
<path d="M17.49 31.9202H17.11V33.2802H17.49V31.9202Z" fill="#18592D"/>
<path d="M17.83 31.9202H17.49V33.2802H17.83V31.9202Z" fill="#195A2D"/>
<path d="M15.21 31.9202H15.18V33.2802H15.21V31.9202Z" fill="#1B5329"/>
<path d="M15.59 31.9202H15.21V33.2802H15.59V31.9202Z" fill="#1B5429"/>
<path d="M15.97 31.9202H15.59V33.2802H15.97V31.9202Z" fill="#1A552A"/>
<path d="M16.28 31.9202H15.97V33.2802H16.28V31.9202Z" fill="#19562B"/>
<path d="M14.83 32.2402H14.45V32.5502H14.83V32.2402Z" fill="#1C5228"/>
<path d="M14.07 31.9202H13.98V33.2802H14.07V31.9202Z" fill="#1D4F26"/>
<path d="M14.45 31.9202H14.07V33.2802H14.45V31.9202Z" fill="#1D5027"/>
<path d="M14.83 31.9202H14.45V33.2802H14.83V31.9202Z" fill="#1C5228"/>
<path d="M15.21 31.9202H14.83V33.2802H15.21V31.9202Z" fill="#1B5329"/>
<path d="M13.66 32.2502H13.31V32.5402H13.66V32.2502Z" fill="#1D4E26"/>
<path d="M12.93 31.9202H12.83V33.2802H12.93V31.9202Z" fill="#1D4C24"/>
<path d="M13.31 31.9202H12.93V33.2802H13.31V31.9202Z" fill="#1E4D25"/>
<path d="M13.69 31.9202H13.31V33.2802H13.69V31.9202Z" fill="#1D4E26"/>
<path d="M14.03 31.9202H13.69V33.2802H14.03V31.9202Z" fill="#1D4F26"/>
<path d="M11.41 31.9202H11.1V33.2802H11.41V31.9202Z" fill="#1C4821"/>
<path d="M11.79 31.9202H11.41V33.2802H11.79V31.9202Z" fill="#1D4922"/>
<path d="M12.17 31.9202H11.79V33.2802H12.17V31.9202Z" fill="#1D4A23"/>
<path d="M12.41 31.9202H12.17V33.2802H12.41V31.9202Z" fill="#1D4B24"/>
<path d="M10.26 31.8901H9.94V33.3001H10.26V31.8901Z" fill="#1C451F"/>
<path d="M10.65 31.8901H10.27V33.3001H10.65V31.8901Z" fill="#1C4520"/>
<path d="M11.03 31.8901H10.65V33.3001H11.03V31.8901Z" fill="#1D4721"/>
<path d="M11.11 31.8901H11.03V33.3001H11.11V31.8901Z" fill="#1C4821"/>
<path d="M9.11999 31.9202H8.92999V33.2802H9.11999V31.9202Z" fill="#1A411E"/>
<path d="M9.51 31.9202H9.13V33.2802H9.51V31.9202Z" fill="#1B421E"/>
<path d="M9.89001 31.9202H9.51001V33.2802H9.89001V31.9202Z" fill="#1B441F"/>
<path d="M10.04 31.9202H9.89001V33.2802H10.04V31.9202Z" fill="#1C451F"/>
<path d="M8.36999 32.2603H7.98999V32.9503H8.36999V32.2603Z" fill="#1B3F1D"/>
<path d="M8.59 32.2603H8.37V32.9503H8.59V32.2603Z" fill="#1B401E"/>
<path d="M7.6 31.9202H7.56V33.2802H7.6V31.9202Z" fill="#1B3D1D"/>
<path d="M7.98998 31.9202H7.60999V33.2802H7.98998V31.9202Z" fill="#1A3E1D"/>
<path d="M8.36999 31.9202H7.98999V33.2802H8.36999V31.9202Z" fill="#1B3F1D"/>
<path d="M8.75 31.9202H8.37V33.2802H8.75V31.9202Z" fill="#1B401E"/>
<path d="M8.96 31.9202H8.75V33.2802H8.96V31.9202Z" fill="#1A411E"/>
<path d="M6.84001 32.3103H6.76001V32.7803H6.84001V32.3103Z" fill="#1A3B1C"/>
<path d="M7.03003 32.3103H6.84003V32.7803H7.03003V32.3103Z" fill="#1B3C1C"/>
<path d="M6.46996 31.9202H6.14996V33.2802H6.46996V31.9202Z" fill="#1A3A1C"/>
<path d="M6.84002 31.9202H6.46002V33.2802H6.84002V31.9202Z" fill="#1A3B1C"/>
<path d="M7.22003 31.9202H6.84003V33.2802H7.22003V31.9202Z" fill="#1B3C1C"/>
<path d="M7.45997 31.9202H7.21997V33.2802H7.45997V31.9202Z" fill="#1B3D1D"/>
<path d="M5.32003 31.9202H5.28003V33.2802H5.32003V31.9202Z" fill="#18371B"/>
<path d="M5.70001 31.9202H5.32001V33.2802H5.70001V31.9202Z" fill="#19381C"/>
<path d="M6.08001 31.9202H5.70001V33.2802H6.08001V31.9202Z" fill="#19391C"/>
<path d="M6.15002 31.9202H6.08002V33.2802H6.15002V31.9202Z" fill="#1A3A1C"/>
<path d="M3.81003 31.8901H3.78003V33.3001H3.81003V31.8901Z" fill="#18331A"/>
<path d="M4.17999 31.8901H3.79999V33.3001H4.17999V31.8901Z" fill="#18341A"/>
<path d="M4.55999 31.8901H4.17999V33.3001H4.55999V31.8901Z" fill="#18351B"/>
<path d="M4.94 31.8901H4.56V33.3001H4.94V31.8901Z" fill="#18361B"/>
<path d="M5.25 31.8901H4.94V33.3001H5.25V31.8901Z" fill="#18371B"/>
<path d="M2.66997 31.9202H2.46997V33.2802H2.66997V31.9202Z" fill="#183019"/>
<path d="M3.03997 31.9202H2.65997V33.2802H3.03997V31.9202Z" fill="#183119"/>
<path d="M3.41998 31.9202H3.03998V33.2802H3.41998V31.9202Z" fill="#183219"/>
<path d="M3.78998 31.9202H3.41998V33.2802H3.78998V31.9202Z" fill="#18331A"/>
<path d="M1.89998 32.3103H1.66998V32.7803H1.89998V32.3103Z" fill="#182E18"/>
<path d="M1.93996 32.3103H1.89996V32.7803H1.93996V32.3103Z" fill="#172F19"/>
<path d="M1.13999 31.9202H1.04999V33.2802H1.13999V31.9202Z" fill="#172D18"/>
<path d="M1.52001 31.9202H1.14001V33.2802H1.52001V31.9202Z" fill="#172E18"/>
<path d="M1.90002 31.9202H1.52002V33.2802H1.90002V31.9202Z" fill="#182E18"/>
<path d="M2.27996 31.9202H1.89996V33.2802H2.27996V31.9202Z" fill="#172F19"/>
<path d="M2.37003 31.9202H2.28003V33.2802H2.37003V31.9202Z" fill="#183019"/>
<path d="M0.75999 32.2302H0.48999V32.4402H0.75999V32.2302Z" fill="#162C18"/>
<path d="M0.81001 32.2302H0.76001V32.4402H0.81001V32.2302Z" fill="#172D18"/>
<path d="M0.760024 32.7402H0.400024V32.9702H0.760024V32.7402Z" fill="#162C18"/>
<path d="M0.38 31.9202H0V33.2802H0.38V31.9202Z" fill="#172B18"/>
<path d="M0.760005 31.9202H0.380005V33.2802H0.760005V31.9202Z" fill="#162C18"/>
<path d="M1.14 31.9202H0.76001V33.2802H1.14V31.9202Z" fill="#172D18"/>
<path d="M1.19001 31.9202H1.14001V33.2802H1.19001V31.9202Z" fill="#172E18"/>
</g>
<path d="M28.45 33.2799L28.49 33.0499L29.03 32.5699C29.14 32.4699 29.2 32.3899 29.21 32.3299C29.21 32.2899 29.21 32.2499 29.19 32.2299C29.17 32.1999 29.13 32.1899 29.09 32.1899C29 32.1899 28.92 32.2399 28.86 32.3399L28.62 32.1899C28.68 32.0899 28.75 32.0199 28.84 31.9699C28.93 31.9199 29.03 31.8899 29.13 31.8899C29.26 31.8899 29.36 31.9299 29.44 32.0099C29.52 32.0899 29.55 32.1999 29.53 32.3299C29.51 32.4699 29.41 32.6199 29.25 32.7599L28.99 32.9899H29.45L29.4 33.2899H28.47L28.45 33.2799Z" fill="#ED1C24"/>
<path d="M30.49 33.1199C30.37 33.2499 30.22 33.3099 30.05 33.3099C29.88 33.3099 29.75 33.2499 29.67 33.1199C29.59 32.9899 29.57 32.8199 29.6 32.5999C29.63 32.3799 29.71 32.2099 29.83 32.0799C29.95 31.9499 30.1 31.8899 30.27 31.8899C30.44 31.8899 30.57 31.9499 30.65 32.0799C30.73 32.2099 30.75 32.3799 30.72 32.5999C30.69 32.8199 30.61 32.9899 30.49 33.1199ZM29.92 32.5999C29.88 32.8699 29.94 33.0099 30.1 33.0099C30.26 33.0099 30.37 32.8699 30.41 32.5999C30.45 32.3299 30.39 32.1899 30.23 32.1899C30.07 32.1899 29.96 32.3299 29.92 32.5999Z" fill="#ED1C24"/>
<path d="M30.67 33.2799L30.71 33.0499L31.25 32.5699C31.36 32.4699 31.42 32.3899 31.43 32.3299C31.43 32.2899 31.43 32.2499 31.41 32.2299C31.39 32.1999 31.35 32.1899 31.31 32.1899C31.22 32.1899 31.14 32.2399 31.08 32.3399L30.84 32.1899C30.9 32.0899 30.97 32.0199 31.06 31.9699C31.15 31.9199 31.25 31.8899 31.35 31.8899C31.48 31.8899 31.58 31.9299 31.66 32.0099C31.74 32.0899 31.77 32.1999 31.75 32.3299C31.73 32.4699 31.63 32.6199 31.47 32.7599L31.21 32.9899H31.67L31.62 33.2899H30.69L30.67 33.2799Z" fill="#ED1C24"/>
<path d="M32.85 32.7699L32.8 33.0599H32.66L32.63 33.2799H32.31L32.34 33.0599H31.72L31.77 32.7699L32.34 31.9099H32.68L32.11 32.7699H32.4L32.45 32.4799H32.77L32.72 32.7699H32.86H32.85Z" fill="#ED1C24"/>
<path d="M22.18 28.22L22.22 28.16C22.46 27.8 22.84 27.66 23.21 27.53C23.52 27.42 23.85 27.3 24.09 27.05L24.15 26.99V27.07C24.06 27.6 23.87 27.82 23.38 27.93C23.12 27.99 22.86 28.05 22.6 28.12C22.48 28.15 22.37 28.18 22.25 28.21L22.18 28.23V28.22ZM24.07 27.15C23.82 27.37 23.52 27.48 23.22 27.59C22.87 27.72 22.53 27.84 22.3 28.14C22.39 28.12 22.48 28.09 22.58 28.07C22.84 28.01 23.1 27.94 23.36 27.88C23.81 27.78 23.99 27.6 24.07 27.15Z" fill="url(#paint21_linear_95_13385)"/>
<path d="M26.35 22.53L26.1 23.37L25.98 23.67L25.58 24.09L25.04 24.41L23.94 24.66L22.99 24.92L21.9 25.13L21.67 25.25L22 24.75L22.8 24.17L23.76 23.79L24.74 23.46L25.49 23.1L26.29 22.48L26.35 22.53Z" fill="#C0902E"/>
<path d="M21.6 25.2601L21.64 25.2001C22.22 24.3001 23.13 23.9801 24.09 23.6401C24.87 23.3601 25.69 23.0701 26.31 22.4301L26.37 22.3701V22.4501C26.17 23.7601 25.7 24.2901 24.49 24.5601C23.84 24.7001 23.19 24.8701 22.55 25.0201C22.26 25.0901 21.97 25.1601 21.68 25.2301L21.61 25.2501L21.6 25.2601ZM26.29 22.5301C25.66 23.1301 24.87 23.4201 24.1 23.6901C23.17 24.0201 22.3 24.3401 21.72 25.1701C21.99 25.1001 22.26 25.0401 22.52 24.9701C23.16 24.8101 23.81 24.6501 24.46 24.5101C25.62 24.2501 26.08 23.7501 26.28 22.5301H26.29Z" fill="url(#paint22_linear_95_13385)"/>
</g>
</g>
</g>
<defs>
<linearGradient id="paint0_linear_95_13385" x1="2.49" y1="13.1498" x2="17.35" y2="13.1498" gradientUnits="userSpaceOnUse">
<stop stop-color="#C32026"/>
<stop offset="1" stop-color="#ED1C24"/>
</linearGradient>
<linearGradient id="paint1_linear_95_13385" x1="15.44" y1="25.7999" x2="25.02" y2="25.7999" gradientUnits="userSpaceOnUse">
<stop stop-color="#C32026"/>
<stop offset="1" stop-color="#ED1C24"/>
</linearGradient>
<linearGradient id="paint2_linear_95_13385" x1="0.359984" y1="25.69" x2="7.37998" y2="25.69" gradientUnits="userSpaceOnUse">
<stop stop-color="#C32026"/>
<stop offset="1" stop-color="#ED1C24"/>
</linearGradient>
<linearGradient id="paint3_linear_95_13385" x1="4.56" y1="25.7899" x2="16.46" y2="25.7899" gradientUnits="userSpaceOnUse">
<stop stop-color="#C32026"/>
<stop offset="1" stop-color="#ED1C24"/>
</linearGradient>
<linearGradient id="paint4_linear_95_13385" x1="28.92" y1="13.1401" x2="39.03" y2="13.1401" gradientUnits="userSpaceOnUse">
<stop stop-color="#C32026"/>
<stop offset="1" stop-color="#ED1C24"/>
</linearGradient>
<linearGradient id="paint5_linear_95_13385" x1="15.95" y1="13.1401" x2="30.78" y2="13.1401" gradientUnits="userSpaceOnUse">
<stop stop-color="#C32026"/>
<stop offset="1" stop-color="#ED1C24"/>
</linearGradient>
<linearGradient id="paint6_linear_95_13385" x1="1.05002" y1="13.14" x2="39.12" y2="13.14" gradientUnits="userSpaceOnUse">
<stop stop-color="#FDC20F"/>
<stop offset="0.21" stop-color="#FFD860"/>
<stop offset="0.42" stop-color="#BC832B"/>
<stop offset="0.61" stop-color="#F4CC55"/>
<stop offset="0.81" stop-color="#BC7F2B"/>
<stop offset="1" stop-color="#E5B822"/>
</linearGradient>
<linearGradient id="paint7_linear_95_13385" x1="0.580022" y1="13.15" x2="39.03" y2="13.15" gradientUnits="userSpaceOnUse">
<stop stop-color="#FDC20F"/>
<stop offset="0.21" stop-color="#FFD860"/>
<stop offset="0.42" stop-color="#BC832B"/>
<stop offset="0.61" stop-color="#F4CC55"/>
<stop offset="0.81" stop-color="#BC7F2B"/>
<stop offset="1" stop-color="#E5B822"/>
</linearGradient>
<linearGradient id="paint8_linear_95_13385" x1="0.759987" y1="15.21" x2="37.62" y2="15.21" gradientUnits="userSpaceOnUse">
<stop stop-color="#FDC20F"/>
<stop offset="0.21" stop-color="#FFD860"/>
<stop offset="0.42" stop-color="#BC832B"/>
<stop offset="0.61" stop-color="#F4CC55"/>
<stop offset="0.81" stop-color="#BC7F2B"/>
<stop offset="1" stop-color="#E5B822"/>
</linearGradient>
<linearGradient id="paint9_linear_95_13385" x1="0.939975" y1="10.5901" x2="37.39" y2="10.5901" gradientUnits="userSpaceOnUse">
<stop stop-color="#FDC20F"/>
<stop offset="0.21" stop-color="#FFD860"/>
<stop offset="0.42" stop-color="#BC832B"/>
<stop offset="0.61" stop-color="#F4CC55"/>
<stop offset="0.81" stop-color="#BC7F2B"/>
<stop offset="1" stop-color="#E5B822"/>
</linearGradient>
<linearGradient id="paint10_linear_95_13385" x1="0.379967" y1="13.15" x2="38.82" y2="13.15" gradientUnits="userSpaceOnUse">
<stop stop-color="#FDC20F"/>
<stop offset="0.21" stop-color="#FFD860"/>
<stop offset="0.42" stop-color="#BC832B"/>
<stop offset="0.61" stop-color="#F4CC55"/>
<stop offset="0.81" stop-color="#BC7F2B"/>
<stop offset="1" stop-color="#E5B822"/>
</linearGradient>
<linearGradient id="paint11_linear_95_13385" x1="1.48" y1="25.87" x2="38.05" y2="25.87" gradientUnits="userSpaceOnUse">
<stop stop-color="#FDC20F"/>
<stop offset="0.21" stop-color="#FFD860"/>
<stop offset="0.42" stop-color="#BC832B"/>
<stop offset="0.61" stop-color="#F4CC55"/>
<stop offset="0.81" stop-color="#BC7F2B"/>
<stop offset="1" stop-color="#E5B822"/>
</linearGradient>
<linearGradient id="paint12_linear_95_13385" x1="0.63003" y1="25.8001" x2="38.86" y2="25.8001" gradientUnits="userSpaceOnUse">
<stop stop-color="#FDC20F"/>
<stop offset="0.21" stop-color="#FFD860"/>
<stop offset="0.42" stop-color="#BC832B"/>
<stop offset="0.61" stop-color="#F4CC55"/>
<stop offset="0.81" stop-color="#BC7F2B"/>
<stop offset="1" stop-color="#E5B822"/>
</linearGradient>
<linearGradient id="paint13_linear_95_13385" x1="0.319978" y1="25.6799" x2="38.12" y2="25.6799" gradientUnits="userSpaceOnUse">
<stop stop-color="#FDC20F"/>
<stop offset="0.21" stop-color="#FFD860"/>
<stop offset="0.42" stop-color="#BC832B"/>
<stop offset="0.61" stop-color="#F4CC55"/>
<stop offset="0.81" stop-color="#BC7F2B"/>
<stop offset="1" stop-color="#E5B822"/>
</linearGradient>
<linearGradient id="paint14_linear_95_13385" x1="1.12" y1="25.8001" x2="37.77" y2="25.8001" gradientUnits="userSpaceOnUse">
<stop stop-color="#FDC20F"/>
<stop offset="0.21" stop-color="#FFD860"/>
<stop offset="0.42" stop-color="#BC832B"/>
<stop offset="0.61" stop-color="#F4CC55"/>
<stop offset="0.81" stop-color="#BC7F2B"/>
<stop offset="1" stop-color="#E5B822"/>
</linearGradient>
<linearGradient id="paint15_linear_95_13385" x1="25.16" y1="26.3501" x2="38.45" y2="26.3501" gradientUnits="userSpaceOnUse">
<stop stop-color="#F2A956"/>
<stop offset="0.29" stop-color="#231F20"/>
<stop offset="0.55" stop-color="#F2A956"/>
<stop offset="0.81" stop-color="#231F20"/>
<stop offset="1" stop-color="#F2A956"/>
</linearGradient>
<linearGradient id="paint16_linear_95_13385" x1="23.92" y1="26.7101" x2="31" y2="26.7101" gradientUnits="userSpaceOnUse">
<stop stop-color="#F2A956"/>
<stop offset="0.29" stop-color="#231F20"/>
<stop offset="0.55" stop-color="#F2A956"/>
<stop offset="0.81" stop-color="#231F20"/>
<stop offset="1" stop-color="#F2A956"/>
</linearGradient>
<linearGradient id="paint17_linear_95_13385" x1="27.2" y1="27.91" x2="32.03" y2="27.91" gradientUnits="userSpaceOnUse">
<stop stop-color="#F2A956"/>
<stop offset="0.29" stop-color="#231F20"/>
<stop offset="0.55" stop-color="#F2A956"/>
<stop offset="0.81" stop-color="#231F20"/>
<stop offset="1" stop-color="#F2A956"/>
</linearGradient>
<linearGradient id="paint18_linear_95_13385" x1="24.74" y1="24.5299" x2="27.74" y2="24.5299" gradientUnits="userSpaceOnUse">
<stop stop-color="#F2A956"/>
<stop offset="0.29" stop-color="#231F20"/>
<stop offset="0.55" stop-color="#F2A956"/>
<stop offset="0.81" stop-color="#231F20"/>
<stop offset="1" stop-color="#F2A956"/>
</linearGradient>
<linearGradient id="paint19_linear_95_13385" x1="31.59" y1="26.7301" x2="34.34" y2="26.7301" gradientUnits="userSpaceOnUse">
<stop stop-color="#F2A956"/>
<stop offset="0.29" stop-color="#231F20"/>
<stop offset="0.55" stop-color="#F2A956"/>
<stop offset="0.81" stop-color="#231F20"/>
<stop offset="1" stop-color="#F2A956"/>
</linearGradient>
<linearGradient id="paint20_linear_95_13385" x1="28.83" y1="30.1701" x2="30.74" y2="30.1701" gradientUnits="userSpaceOnUse">
<stop stop-color="#F2A956"/>
<stop offset="0.29" stop-color="#231F20"/>
<stop offset="0.55" stop-color="#F2A956"/>
<stop offset="0.81" stop-color="#231F20"/>
<stop offset="1" stop-color="#F2A956"/>
</linearGradient>
<linearGradient id="paint21_linear_95_13385" x1="22.18" y1="27.6" x2="24.15" y2="27.6" gradientUnits="userSpaceOnUse">
<stop stop-color="#F2A956"/>
<stop offset="0.29" stop-color="#231F20"/>
<stop offset="0.55" stop-color="#F2A956"/>
<stop offset="0.81" stop-color="#231F20"/>
<stop offset="1" stop-color="#F2A956"/>
</linearGradient>
<linearGradient id="paint22_linear_95_13385" x1="21.6" y1="23.8201" x2="26.37" y2="23.8201" gradientUnits="userSpaceOnUse">
<stop stop-color="#F2A956"/>
<stop offset="0.29" stop-color="#231F20"/>
<stop offset="0.55" stop-color="#F2A956"/>
<stop offset="0.81" stop-color="#231F20"/>
<stop offset="1" stop-color="#F2A956"/>
</linearGradient>
<clipPath id="clip0_95_13385">
<rect width="40" height="28" fill="white" transform="translate(0 6)"/>
</clipPath>
</defs>
</svg>
