<svg width="40" height="40" viewBox="0 0 40 40" fill="none" xmlns="http://www.w3.org/2000/svg">
<g clip-path="url(#clip0_95_13218)">
<path d="M28.8805 40V38.0461H34.9701V32.1835H37.001V39.999L28.8805 40ZM3.00002 40V32.1835H5.03025V38.0451H11.1196V39.999L3.00002 40ZM32.9395 36.0919H22.7911V32.1835H20.7612V30.2293H19.2388V28.2761H21.2687V30.2297H22.7911V28.2765H20.7612V26.3229H26.8509V24.3687H19.2385V26.3229H17.2093V24.3687H18.7317V20.4617H20.7612V22.4159H26.8509V20.9498H22.7911V11.1808H32.9402V20.9498H28.8805V22.903H26.8502V24.3684H28.8805V26.3226H32.9399V36.0916L32.9395 36.0919ZM24.8203 34.1381H30.91V28.2765H24.8203V34.1381ZM24.8203 18.9966H30.9107V13.135H24.8203V18.9966ZM10.9741 36.0922V34.2081H9.08901V36.0906H7.05911V34.1387H9.01661V32.3242H10.9744V28.5562H9.08901V32.1835H7.05911V28.2771H9.01661V26.672H10.9744V24.7895H7.05946V22.903H16.8462V24.7875H12.9319V30.4391H14.8877V32.3216H12.9319V34.2041H16.8462V32.3216H18.802V34.2041H20.7578V36.0866L10.9741 36.0922ZM26.8506 32.1835V30.2293H28.8808V32.1835H26.8506ZM15.1787 30.2303V26.3233H17.2086V30.2306L15.1787 30.2303ZM28.8801 24.3691V22.4155H32.9395V24.3691H28.8801ZM17.2076 20.9498H7.05946V11.1808H17.2086V13.1347H19.2385V15.0882H17.2086V20.9498H17.2076ZM9.08935 18.9966H15.1787V13.135H9.08969L9.08935 18.9966ZM19.2385 18.9966V15.0889H21.2684V18.9963L19.2385 18.9966ZM26.8502 17.0424V15.0889H28.8801V17.0424H26.8502ZM11.1192 17.0424V15.0889H13.1488V17.0424H11.1192ZM34.9694 15.0889V9.2273H28.8805V7.27344H37.001V15.0889H34.9694ZM2.99933 15.0889V7.27344H11.1196V9.2273H5.02991V15.0889H2.99933ZM19.2378 13.135V11.1812H21.2677V13.135H19.2378Z" fill="#12703C"/>
<path d="M18.8425 27.4708L17.9847 26.6451H13.7551C13.2203 26.6446 12.7076 26.4399 12.3294 26.076C11.9513 25.712 11.7385 25.2186 11.7379 24.7038V20.3337C11.7384 19.8189 11.9511 19.3254 12.3293 18.9614C12.7075 18.5974 13.2203 18.3926 13.7551 18.3921H18.2952C18.8301 18.3926 19.3428 18.5974 19.721 18.9614C20.0992 19.3254 20.3119 19.8189 20.3124 20.3337V24.5129L23.3854 27.4708H18.8425ZM16.9571 23.4158V21.6218H15.0929V23.4158H16.9571Z" fill="white"/>
<path d="M23.7838 26.7643V24.5997H22.4737V26.7643H20.8676L19.0549 25.0195V18.4637H24.1138C24.9442 18.4601 25.7437 18.7666 26.3441 19.3187C26.6584 19.6002 26.9077 19.9421 27.0761 20.3223C27.2444 20.7024 27.328 21.1124 27.3213 21.5256C27.3296 22.0291 27.1968 22.5255 26.937 22.9626C27.1144 23.3035 27.2055 23.68 27.2029 24.0613V26.7646L23.7838 26.7643Z" fill="white"/>
<path d="M25.4671 22.934C25.704 22.7787 25.8958 22.5678 26.0245 22.3213C26.1532 22.0748 26.2146 21.8008 26.2028 21.5251C26.2098 21.2593 26.1578 20.9951 26.0503 20.7502C25.9427 20.5053 25.782 20.2853 25.579 20.105C25.1873 19.738 24.6608 19.5349 24.1142 19.5399H20.1735V24.5735L21.3312 25.6878H21.3558V23.5232H24.1142C24.3268 23.5159 24.5356 23.5792 24.7054 23.7026C24.7649 23.7435 24.8138 23.7972 24.848 23.8595C24.8821 23.9217 24.9008 23.9908 24.9023 24.0612V25.6878H26.0844V24.0612C26.0889 23.8384 26.0347 23.6182 25.9267 23.421C25.8188 23.2239 25.6606 23.0563 25.4671 22.934ZM24.1142 22.4347H21.3558V20.6298H24.1142C24.7185 20.6298 25.0207 20.9287 25.0207 21.5264C25.0205 22.1319 24.7183 22.4346 24.1142 22.4343V22.4347Z" fill="#D6001C"/>
<path d="M7.53606 2.61005C7.69915 2.48355 7.82733 2.3203 7.90926 2.13475C7.99119 1.9492 8.02434 1.74708 8.00578 1.54626C8.01507 1.34598 7.98294 1.14593 7.91126 0.957708C7.83958 0.76948 7.72977 0.59682 7.58821 0.449768C7.41419 0.293235 7.20877 0.172604 6.98455 0.095251C6.76034 0.017898 6.52206 -0.0145447 6.28436 -5.56158e-05H3.19354V5.26408H6.32519C6.77934 5.28582 7.22572 5.1446 7.57792 4.86776C7.73984 4.72119 7.86596 4.54187 7.94719 4.34273C8.02841 4.14358 8.06272 3.92957 8.04765 3.71612C8.06338 3.50548 8.02493 3.29436 7.9357 3.10144C7.84647 2.90852 7.70921 2.73974 7.53606 2.61005ZM4.133 0.932289H6.43979C6.52575 0.921304 6.61318 0.929732 6.69517 0.956881C6.77717 0.98403 6.85147 1.02916 6.91222 1.08871C6.97296 1.14827 7.01848 1.22062 7.04517 1.30003C7.07186 1.37944 7.07898 1.46374 7.06599 1.54626C7.06599 1.96306 6.85725 2.17146 6.43979 2.17146H4.133V0.932289ZM6.48165 4.33206H4.133V3.0929H6.48165C6.89912 3.0929 7.10785 3.3013 7.10785 3.71809C7.12079 3.80059 7.11361 3.88485 7.0869 3.96422C7.06018 4.04359 7.01466 4.1159 6.95392 4.17542C6.89319 4.23493 6.8189 4.28004 6.73694 4.30717C6.65498 4.3343 6.56758 4.34304 6.48165 4.33206Z" fill="#D6001C"/>
<path d="M12.1078 -5.54873e-05H10.6986C10.195 -0.0258632 9.70139 0.141744 9.3261 0.465955C9.15649 0.625913 9.02378 0.818456 8.93658 1.03104C8.84938 1.24363 8.80966 1.4715 8.81999 1.69984V5.26408H9.76015V3.56419H13.0483V5.26408H13.9877V1.69984C13.998 1.47148 13.9582 1.24359 13.8709 1.031C13.7837 0.818417 13.6509 0.625896 13.4813 0.465955C13.1057 0.141558 12.6117 -0.0260566 12.1078 -5.54873e-05ZM13.0472 2.63184H9.76015V1.69984C9.75077 1.5943 9.7645 1.48804 9.80043 1.38792C9.83636 1.2878 9.89371 1.19604 9.96876 1.11857C10.1809 0.973266 10.4406 0.907062 10.6996 0.932289H12.1088C12.3678 0.907093 12.6275 0.973293 12.8396 1.11857C12.9147 1.19608 12.972 1.28783 13.008 1.38794C13.044 1.48804 13.0578 1.59428 13.0486 1.69984L13.0472 2.63184Z" fill="#D6001C"/>
<path d="M18.0468 -0.000138958H16.4812C16.2548 -0.00801385 16.029 0.0271686 15.8167 0.103392C15.6045 0.179616 15.4099 0.295394 15.2442 0.444081C15.087 0.584323 14.9625 0.75507 14.8788 0.945046C14.7952 1.13502 14.7544 1.3399 14.7591 1.54618V5.264H15.6985V1.54618C15.6985 1.13686 15.9595 0.932205 16.4815 0.932205H18.0468C18.5688 0.932205 18.8298 1.13686 18.8298 1.54618V5.264H19.7693V1.54618C19.7739 1.33988 19.733 1.13498 19.6493 0.945005C19.5656 0.755032 19.441 0.584307 19.2838 0.444081C19.1181 0.295394 18.9235 0.179616 18.7113 0.103392C18.499 0.0271686 18.2732 -0.00801385 18.0468 -0.000138958Z" fill="#D6001C"/>
<path d="M22.8906 3.09262H24.9271V4.33179H22.7349C22.4426 4.34801 22.155 4.25581 21.9313 4.07417C21.8355 3.99057 21.7598 3.88794 21.7093 3.77337C21.6588 3.65881 21.6348 3.53505 21.6389 3.41067V1.85345C21.6348 1.72907 21.6588 1.60532 21.7093 1.49075C21.7598 1.37619 21.8355 1.27356 21.9313 1.18996C22.1551 1.00835 22.4426 0.916149 22.7349 0.932338H25.7097V-6.52258e-06H22.7349C22.4676 -0.00705915 22.2016 0.0373389 21.9524 0.130576C21.7033 0.223814 21.4759 0.364027 21.2838 0.542967C21.0967 0.709953 20.9481 0.91287 20.8477 1.13861C20.7472 1.36436 20.6971 1.60789 20.7005 1.85345V3.41067C20.6971 3.65624 20.7472 3.89977 20.8477 4.12551C20.9481 4.35126 21.0967 4.55419 21.2838 4.72118C21.476 4.9001 21.7033 5.04029 21.9524 5.13353C22.2016 5.22677 22.4676 5.27117 22.7349 5.26413H25.8665V2.16985H22.8917L22.8906 3.09262Z" fill="#D6001C"/>
<path d="M27.6816 3.71783V0H26.7421V3.71783C26.7375 3.92413 26.7784 4.12904 26.8621 4.31902C26.9458 4.50899 27.0704 4.67971 27.2277 4.81992C27.3934 4.96861 27.5879 5.08439 27.8002 5.16061C28.0124 5.23683 28.2382 5.27202 28.4646 5.26414H31.1265V4.3318H28.4646C27.9426 4.3318 27.6816 4.12714 27.6816 3.71783Z" fill="#D6001C"/>
<path d="M36.4026 0.465912C36.0273 0.141732 35.5337 -0.0258698 35.0302 -9.8634e-05H33.621C33.1174 -0.0258698 32.6238 0.141732 32.2485 0.465912C32.0789 0.625869 31.9462 0.818413 31.859 1.031C31.7718 1.24359 31.7321 1.47146 31.7424 1.6998V5.26404H32.6819V3.56414H35.97V5.26404H36.9095V1.6998C36.9197 1.47141 36.8799 1.24351 36.7926 1.03092C36.7052 0.818329 36.5724 0.625812 36.4026 0.465912ZM35.9696 2.6318H32.6815V1.6998C32.6722 1.59426 32.6859 1.488 32.7218 1.38788C32.7577 1.28775 32.8151 1.19599 32.8901 1.11852C33.1023 0.97325 33.362 0.90705 33.621 0.932245H35.0302C35.2891 0.907101 35.5487 0.973301 35.7607 1.11852C35.8357 1.19603 35.893 1.28779 35.929 1.3879C35.965 1.488 35.9788 1.59424 35.9696 1.6998V2.6318Z" fill="#D6001C"/>
<path d="M16.8826 21.6213H15.0932V23.4157H16.8826V21.6213Z" fill="#12703D"/>
<path d="M19.1623 24.9279C19.1831 24.8547 19.1937 24.7792 19.1938 24.7033V20.3332C19.1938 20.2196 19.1706 20.1072 19.1254 20.0022C19.0803 19.8973 19.0141 19.8019 18.9307 19.7216C18.8472 19.6413 18.7481 19.5776 18.6391 19.5341C18.5301 19.4906 18.4132 19.4683 18.2952 19.4683H13.7551C13.5167 19.4683 13.2882 19.5594 13.1196 19.7216C12.9511 19.8838 12.8564 20.1038 12.8564 20.3332V24.7033C12.8564 24.9327 12.9511 25.1528 13.1196 25.315C13.2882 25.4772 13.5167 25.5683 13.7551 25.5683H18.2952C18.3425 25.5679 18.3896 25.564 18.4363 25.5564L19.3057 26.3933H20.685L19.1623 24.9279ZM18.0756 24.2621C18.0756 24.3234 18.0503 24.3822 18.0053 24.4256C17.9602 24.4689 17.8991 24.4933 17.8354 24.4933H14.2121C14.1484 24.4933 14.0873 24.4689 14.0423 24.4256C13.9972 24.3822 13.9719 24.3234 13.9719 24.2621V20.7748C13.9719 20.7135 13.9972 20.6547 14.0423 20.6113C14.0873 20.568 14.1484 20.5436 14.2121 20.5436H17.8354C17.8991 20.5436 17.9602 20.568 18.0053 20.6113C18.0503 20.6547 18.0756 20.7135 18.0756 20.7748V24.2621Z" fill="#D6001C"/>
</g>
<defs>
<clipPath id="clip0_95_13218">
<rect width="34" height="40" fill="white" transform="translate(3)"/>
</clipPath>
</defs>
</svg>
