<svg width="40" height="40" viewBox="0 0 40 40" fill="none" xmlns="http://www.w3.org/2000/svg">
<path d="M13.8929 31.6928C4.78321 29.9819 4.78321 20.6824 5.92193 16.2466C-1.73026 28.6036 7.44022 34.386 12.982 35.7326L12.2988 38.109L21.1807 35.7326L14.8039 28.8412C14.6521 29.4749 14.2573 30.9324 13.8929 31.6928Z" fill="#1B3F1E"/>
<path d="M13.7039 31.2176C5.68736 29.8868 5.27741 20.6824 5.96064 16.2466C3.4099 27.8432 10.2118 31.5344 13.9316 31.9305L14.8426 29.0789L21.2194 35.7326L21.2194 35.2574L14.6149 28.3659L13.7039 31.2176Z" fill="#3DAE72"/>
<path d="M26.6464 7.92932C36.1205 10.5908 35.3007 19.6526 33.7065 23.8508C41.9052 12.0642 32.7955 4.84007 28.0129 4.12716L28.9239 1.51318L19.8141 3.17663L25.7355 10.7809L26.6464 7.92932Z" fill="#3DAE72"/>
<path d="M27.1405 8.64211C34.7927 10.9234 34.732 19.7317 33.7451 23.8507C37.0246 13.2047 30.7844 8.87975 26.685 7.92921L25.7741 10.7808L19.8528 3.17651L19.3973 3.41415L26.0018 11.969C26.3814 11.0977 26.9583 9.02233 27.1405 8.64211Z" fill="#1B3F1E"/>
<rect width="11.8143" height="20.8619" rx="1.89949" transform="matrix(-1 0 0 1 33.3406 17.9365)" fill="#1B3F1E" fill-opacity="0.1"/>
<path fill-rule="evenodd" clip-rule="evenodd" d="M31.4411 17.9365C32.4902 17.9365 33.3406 18.787 33.3406 19.836V36.8989C33.3406 37.9479 32.4902 38.7984 31.4411 38.7984H23.4258C22.3767 38.7984 21.5263 37.9479 21.5263 36.8989V19.836C21.5263 18.787 22.3767 17.9365 23.4258 17.9365H31.4411ZM30.5728 19.8331C31.0973 19.8331 31.5226 20.2583 31.5226 20.7828V35.9521C31.5226 36.4767 31.0973 36.9019 30.5728 36.9019H24.2932C23.7686 36.9019 23.3434 36.4767 23.3434 35.9521V20.7828C23.3434 20.2583 23.7686 19.8331 24.2932 19.8331H30.5728Z" fill="#3DAE72"/>
<rect width="3.63518" height="1.4224" rx="0.7112" transform="matrix(-1 0 0 1 29.251 20.7812)" fill="#1B3F1E"/>
<path fill-rule="evenodd" clip-rule="evenodd" d="M27.4242 32.1411C29.1758 32.1411 30.5957 30.6595 30.5957 28.8319C30.5957 27.0043 29.1758 25.5227 27.4242 25.5227C25.6727 25.5227 24.2528 27.0043 24.2528 28.8319C24.2528 30.6595 25.6727 32.1411 27.4242 32.1411ZM29.211 27.9083C29.306 27.7926 29.2931 27.6185 29.1823 27.5194C29.0715 27.4203 28.9047 27.4337 28.8097 27.5493L27.1769 29.537L26.0192 28.4096C25.9125 28.3057 25.7453 28.3117 25.6457 28.4231C25.5461 28.5344 25.5519 28.7089 25.6586 28.8128L27.2193 30.3328L29.211 27.9083Z" fill="#3DAE72"/>
<path d="M21.1281 11.5582L10.9779 1.03296L4.25354 8.09331L14.4038 18.6185L21.1281 11.5582Z" fill="#1B3F1E"/>
<path d="M14.0271 17.0183L5.79604 8.48615L11.3657 2.63764L19.5988 11.1762L14.0271 17.0183ZM6.49026 8.47989L14.0305 16.2891L18.8973 11.1707L11.357 3.36151L6.49026 8.47989Z" fill="white"/>
<path d="M17.7618 11.5074L11.045 4.54248L10.6367 4.97126L17.3534 11.9362L17.7618 11.5074Z" fill="white"/>
<path d="M22.369 16.057L12.1925 5.29736L5.31834 12.376L15.4948 23.1356L22.369 16.057Z" fill="#3DAE72"/>
<path d="M15.1067 21.5085L6.85416 12.777L12.5478 6.91296L20.8019 15.6442L15.1067 21.5085ZM7.55542 12.7916L15.1091 20.7798L20.0929 15.6399L12.5392 7.65179L7.55542 12.7916Z" fill="white"/>
<path d="M18.962 15.9721L12.2279 8.85205L11.8104 9.28194L18.5445 16.402L18.962 15.9721Z" fill="white"/>
<mask id="path-15-inside-1_95_14373" fill="white">
<path fill-rule="evenodd" clip-rule="evenodd" d="M13.429 13.6065L13.2642 13.4282L12.959 13.7352L13.1237 13.9135L12.5192 14.5339C12.3003 14.8375 12.3417 15.2978 12.6322 15.6123C12.9507 15.957 13.448 15.9959 13.743 15.6992C13.8249 15.6168 13.8826 15.5172 13.9164 15.4089L13.3957 14.8453C13.5317 14.993 13.5397 15.2155 13.4135 15.3425C13.287 15.4697 13.0739 15.453 12.9374 15.3053C12.8009 15.1575 12.7927 14.9347 12.9192 14.8075L12.9955 14.7307L13.4019 14.3219L13.4533 14.2702L14.1124 14.9836L14.4176 14.6766L13.7585 13.9632L14.14 13.5794C14.3507 13.3675 14.3371 12.996 14.1096 12.7498C13.8821 12.5036 13.5269 12.4758 13.3162 12.6877L13.3146 12.6893L13.2399 12.7645L13.5694 13.1212L13.6457 13.0444C13.6878 13.002 13.7589 13.0076 13.8044 13.0568C13.8499 13.1061 13.8526 13.1804 13.8105 13.2227L13.429 13.6065Z"/>
</mask>
<path d="M13.429 13.6065L12.5815 14.459L13.3985 15.3433L14.246 14.4908L13.429 13.6065ZM13.2642 13.4282L14.1117 12.5757L13.2947 11.6914L12.4472 12.5439L13.2642 13.4282ZM12.959 13.7352L12.142 12.8509L11.2945 13.7034L12.1115 14.5877L12.959 13.7352ZM13.1237 13.9135L13.9491 14.7893L14.7802 13.9366L13.9712 13.061L13.1237 13.9135ZM12.5192 14.5339L11.6938 13.6581L11.6312 13.7223L11.5784 13.7956L12.5192 14.5339ZM13.9164 15.4089L15.0358 15.7891L15.2547 15.0876L14.7639 14.5564L13.9164 15.4089ZM13.3957 14.8453L14.2432 13.9928L12.5468 15.6963L13.3957 14.8453ZM12.9192 14.8075L13.7362 15.6918L13.7362 15.6918L12.9192 14.8075ZM12.9955 14.7307L12.1785 13.8464L12.1784 13.8465L12.9955 14.7307ZM13.4019 14.3219L14.2189 15.2062L14.219 15.2062L13.4019 14.3219ZM13.4533 14.2702L14.3008 13.4177L13.4837 12.5334L12.6362 13.386L13.4533 14.2702ZM14.1124 14.9836L13.2649 15.8361L14.0819 16.7204L14.9294 15.8679L14.1124 14.9836ZM14.4176 14.6766L15.2346 15.5609L16.0821 14.7084L15.2651 13.8241L14.4176 14.6766ZM13.7585 13.9632L12.9415 13.0789L12.094 13.9314L12.911 14.8157L13.7585 13.9632ZM14.14 13.5794L14.957 14.4637L14.957 14.4637L14.14 13.5794ZM13.3162 12.6877L12.4991 11.8034L12.4973 11.8053L13.3162 12.6877ZM13.3146 12.6893L14.1316 13.5736L14.1335 13.5717L13.3146 12.6893ZM13.2399 12.7645L12.4228 11.8802L11.5754 12.7327L12.3924 13.617L13.2399 12.7645ZM13.5694 13.1212L12.7219 13.9736L13.5389 14.8579L14.3864 14.0055L13.5694 13.1212ZM13.8105 13.2227L12.9935 12.3384L12.9934 12.3385L13.8105 13.2227ZM12.4167 14.2807L12.5815 14.459L14.2764 12.754L14.1117 12.5757L12.4167 14.2807ZM13.776 14.6195L14.0812 14.3125L12.4472 12.5439L12.142 12.8509L13.776 14.6195ZM13.9712 13.061L13.8065 12.8827L12.1115 14.5877L12.2762 14.766L13.9712 13.061ZM11.5784 13.7956C10.9597 14.6538 11.1563 15.7846 11.7847 16.4648L13.4797 14.7598C13.5143 14.7972 13.547 14.8576 13.5554 14.9411C13.5637 15.024 13.5478 15.1503 13.4599 15.2722L11.5784 13.7956ZM11.7847 16.4648C12.4649 17.201 13.7092 17.4393 14.56 16.5835L12.926 14.8149C13.0458 14.6944 13.1887 14.6639 13.2845 14.6714C13.3774 14.6787 13.4421 14.7191 13.4797 14.7598L11.7847 16.4648ZM14.56 16.5835C14.787 16.3552 14.945 16.08 15.0358 15.7891L12.7971 15.0286C12.8203 14.9543 12.8629 14.8784 12.926 14.8149L14.56 16.5835ZM14.7639 14.5564L14.2432 13.9928L12.5482 15.6978L13.0689 16.2614L14.7639 14.5564ZM12.5468 15.6963C12.3222 15.4523 12.1676 14.8896 12.5965 14.4582L14.2305 16.2268C14.9119 15.5414 14.7413 14.5337 14.2446 13.9943L12.5468 15.6963ZM12.5965 14.4582C13.0259 14.0263 13.5597 14.209 13.7849 14.4528L12.0899 16.1578C12.5881 16.697 13.5482 16.9131 14.2305 16.2268L12.5965 14.4582ZM13.7849 14.4528C14.0101 14.6965 14.1656 15.2599 13.7362 15.6918L12.1022 13.9232C11.4199 14.6095 11.5917 15.6185 12.0899 16.1578L13.7849 14.4528ZM13.7362 15.6918L13.8125 15.615L12.1784 13.8465L12.1021 13.9232L13.7362 15.6918ZM12.6362 13.386L12.5848 13.4377L14.219 15.2062L14.2703 15.1545L12.6362 13.386ZM14.9599 14.1311L14.3008 13.4177L12.6058 15.1227L13.2649 15.8361L14.9599 14.1311ZM13.6006 13.7923L13.2954 14.0993L14.9294 15.8679L15.2346 15.5609L13.6006 13.7923ZM12.911 14.8157L13.5701 15.5291L15.2651 13.8241L14.606 13.1107L12.911 14.8157ZM13.323 12.6951L12.9415 13.0789L14.5755 14.8475L14.957 14.4637L13.323 12.6951ZM13.2621 13.6023C13.179 13.5124 13.1186 13.3817 13.1128 13.2244C13.1069 13.0643 13.161 12.8581 13.323 12.6951L14.957 14.4637C15.7235 13.6927 15.5463 12.535 14.9571 11.8973L13.2621 13.6023ZM14.1332 13.572C13.9712 13.7349 13.7717 13.7838 13.6185 13.7718C13.4682 13.76 13.3452 13.6922 13.2621 13.6023L14.9571 11.8973C14.3679 11.2596 13.2657 11.0324 12.4991 11.8034L14.1332 13.572ZM14.1335 13.5717L14.135 13.5701L12.4973 11.8053L12.4957 11.8069L14.1335 13.5717ZM14.0569 13.6488L14.1316 13.5736L12.4976 11.805L12.4228 11.8802L14.0569 13.6488ZM12.8287 12.1601L12.7524 12.2368L14.3864 14.0055L14.4627 13.9287L12.8287 12.1601ZM14.6519 12.2043C14.2447 11.7636 13.4266 11.5586 12.8287 12.1601L14.4627 13.9287C13.949 14.4454 13.2731 14.2516 12.9569 13.9093L14.6519 12.2043ZM14.6275 14.107C15.2254 13.5056 15.0591 12.6451 14.6519 12.2043L12.9569 13.9093C12.6407 13.5671 12.4798 12.8551 12.9935 12.3384L14.6275 14.107ZM14.246 14.4908L14.6275 14.107L12.9934 12.3385L12.6119 12.7222L14.246 14.4908ZM13.8125 15.615L14.2189 15.2062L12.5849 13.4376L12.1785 13.8464L13.8125 15.615ZM14.4169 12.2687L14.0873 11.912L12.3924 13.617L12.7219 13.9736L14.4169 12.2687ZM13.3445 15.4097L13.9491 14.7893L12.2984 13.0377L11.6938 13.6581L13.3445 15.4097Z" fill="white" mask="url(#path-15-inside-1_95_14373)"/>
</svg>
