<svg width="40" height="40" viewBox="0 0 40 40" fill="none" xmlns="http://www.w3.org/2000/svg">
<rect x="-1" y="1" width="16" height="30" rx="2" transform="matrix(-1 0 0 1 29 6)" fill="#1B3F1E" fill-opacity="0.1" stroke="#3DAE72" stroke-width="2"/>
<rect width="6" height="2" rx="1" transform="matrix(-1 0 0 1 25 9)" fill="#1B3F1E"/>
<path fill-rule="evenodd" clip-rule="evenodd" d="M22 29C20.3431 29 19 27.6569 19 26C19 24.3431 20.3431 23 22 23C23.6569 23 25 24.3431 25 26C25 27.6569 23.6569 29 22 29ZM24 30C26.7614 30 29 32.2386 29 35C29 35.5523 28.5523 36 28 36H16C15.4477 36 15 35.5523 15 35C15 32.2386 17.2386 30 20 30H24Z" fill="#1B3F1E"/>
<path d="M9 19.5C4.02944 19.5 0 15.5825 0 10.75C0 5.91751 4.02944 2 9 2C13.9706 2 18 5.91751 18 10.75C18 13.3429 16.8399 15.6725 14.9968 17.2747L17.1 23L11.1123 19.2577C10.4348 19.4161 9.72748 19.5 9 19.5Z" fill="#D7BD7C"/>
<path fill-rule="evenodd" clip-rule="evenodd" d="M7.80001 9.21429H7.20001V10.5H7.80001V13.0714H7.82128C7.96685 14.1618 8.84207 15 9.90001 15C11.0598 15 12 13.9926 12 12.75C12 12.4049 11.9275 12.078 11.7979 11.7857L9.90175 11.7857C10.398 11.7867 10.8 12.2181 10.8 12.75C10.8 13.2826 10.3971 13.7143 9.90002 13.7143C9.40297 13.7143 9.00002 13.2826 9.00002 12.75L9.00002 12.4286L9.00002 10.7165L9.00001 10.5H11.4V9.21429H9.00001V7.60714C9.00001 6.71955 8.32842 6 7.5 6C6.67157 6 6 6.71954 6 7.60714L6.00001 7.61363V7.92857H7.19997V7.60715C7.19997 7.42963 7.33428 7.28571 7.49997 7.28571C7.66565 7.28571 7.79997 7.42962 7.79997 7.60714L7.80001 9.21429Z" fill="#1B3F1E"/>
</svg>
