<svg width="40" height="40" viewBox="0 0 40 40" fill="none" xmlns="http://www.w3.org/2000/svg">
<rect x="15" y="3" width="16" height="30" rx="2" fill="#1B3F1E" fill-opacity="0.1" stroke="#3DAE72" stroke-width="2"/>
<rect x="20" y="5" width="6" height="2" rx="1" fill="#1B3F1E"/>
<path fill-rule="evenodd" clip-rule="evenodd" d="M21.5 15H21V16H21.5V18H21.5177C21.639 18.8481 22.3684 19.5 23.25 19.5C24.2165 19.5 25 18.7165 25 17.75C25 17.4816 24.9396 17.2273 24.8316 17L23.2515 17C23.665 17.0008 24 17.3363 24 17.75C24 18.1642 23.6642 18.5 23.25 18.5C22.8358 18.5 22.5 18.1642 22.5 17.75L22.5 17.5L22.5 16.1684L22.5 16H24.5V15H22.5V13.75C22.5 13.0596 21.9403 12.5 21.25 12.5C20.5596 12.5 20 13.0596 20 13.75L20 13.755V14H21V13.75C21 13.6119 21.1119 13.5 21.25 13.5C21.388 13.5 21.5 13.6119 21.5 13.75L21.5 15Z" fill="#1B3F1E"/>
<path fill-rule="evenodd" clip-rule="evenodd" d="M27 31L23 24L19 31H21V38H25V31H27Z" fill="#1B3F1E"/>
<path fill-rule="evenodd" clip-rule="evenodd" d="M33 30C34.049 29.8742 34.8622 28.9812 34.8622 27.8983C34.8622 26.8154 34.049 25.9224 33 25.7966V30ZM33 23.5238C33.3776 23.874 33.8832 24.088 34.4388 24.088C35.6079 24.088 36.5557 23.1403 36.5557 21.9712C36.5557 20.8021 35.6079 19.8543 34.4388 19.8543C33.8832 19.8543 33.3776 20.0684 33 20.4185V23.5238ZM33 11.6695C33.3776 12.0196 33.8832 12.2337 34.4388 12.2337C35.6079 12.2337 36.5557 11.2859 36.5557 10.1168C36.5557 8.94774 35.6079 8 34.4388 8C33.8832 8 33.3776 8.21404 33 8.56416V11.6695ZM37.4024 16.044C37.4024 17.2131 36.4547 18.1608 35.2856 18.1608C34.1165 18.1608 33.1687 17.2131 33.1687 16.044C33.1687 14.8749 34.1165 13.9272 35.2856 13.9272C36.4547 13.9272 37.4024 14.8749 37.4024 16.044Z" fill="#D7BD7C"/>
<path d="M11.5 4C10.6716 4 10 4.67157 10 5.5V9L7.00001 17.191C7.00001 20.2942 5.88992 23.2951 3.87035 25.6513L2 28C2 28 9.48968 36.6575 11 38C11 38 16 38 16 36C16 35.4477 15.5417 34.9903 15.0305 34.7814C14.0659 34.3872 13 33.4601 13 32V5.5C13 4.67157 12.3284 4 11.5 4Z" fill="#D7BD7C"/>
</svg>
