<svg width="40" height="40" viewBox="0 0 40 40" fill="none" xmlns="http://www.w3.org/2000/svg">
<path d="M11.1932 10.9335H10.1793L7.71834 7.05123H7.68741C7.69657 7.18208 7.70459 7.32069 7.71147 7.46707C7.72063 7.61344 7.72751 7.76425 7.73209 7.91949C7.73897 8.07474 7.74469 8.2322 7.74928 8.39188V10.9335H7V6.06986H8.00706L10.4645 9.92548H10.4886C10.484 9.81238 10.4783 9.68263 10.4714 9.53626C10.4645 9.38989 10.4577 9.23908 10.4508 9.08383C10.4462 8.92637 10.4428 8.77445 10.4405 8.62808V6.06986H11.1932V10.9335Z" fill="#1B3F1E"/>
<path d="M15.3589 10.9335H12.513V6.06986H15.3589V6.74185H13.3379V8.06254H15.2317V8.7312H13.3379V10.2582H15.3589V10.9335Z" fill="#1B3F1E"/>
<path d="M22.3877 6.06986L21.0747 10.9335H20.1742L19.3356 8.01929C19.3149 7.94833 19.292 7.86405 19.2668 7.76647C19.2416 7.66888 19.2164 7.56908 19.1912 7.46707C19.1683 7.36505 19.1477 7.2719 19.1293 7.18762C19.1133 7.10113 19.1018 7.0346 19.095 6.98802C19.0904 7.0346 19.0801 7.10002 19.064 7.1843C19.048 7.26857 19.0285 7.36172 19.0056 7.46374C18.985 7.56354 18.9621 7.66334 18.9369 7.76314C18.9117 7.86072 18.8887 7.94722 18.8681 8.02262L18.0432 10.9335H17.1462L15.8366 6.06986H16.665L17.3902 8.92083C17.4131 9.01175 17.436 9.11045 17.4589 9.2169C17.4841 9.32114 17.5071 9.42648 17.5277 9.53293C17.5506 9.63939 17.5712 9.74362 17.5895 9.84564C17.6079 9.94544 17.6228 10.0364 17.6342 10.1184C17.6457 10.0342 17.6606 9.94101 17.6789 9.83899C17.6972 9.73475 17.7167 9.62941 17.7373 9.52295C17.7603 9.41428 17.7832 9.31005 17.8061 9.21025C17.8313 9.11045 17.8565 9.02063 17.8817 8.94079L18.6997 6.06986H19.504L20.3392 8.95077C20.3644 9.03282 20.3884 9.12486 20.4114 9.22688C20.4366 9.3289 20.4606 9.43313 20.4835 9.53959C20.5065 9.64604 20.5271 9.74917 20.5454 9.84897C20.5637 9.94877 20.5786 10.0386 20.5901 10.1184C20.6061 10.0098 20.6267 9.88556 20.652 9.74584C20.6772 9.60612 20.7058 9.46418 20.7379 9.32003C20.77 9.17587 20.802 9.0428 20.8341 8.92083L21.5559 6.06986H22.3877Z" fill="#1B3F1E"/>
<path d="M26 9.60945C26 9.89776 25.9267 10.1462 25.78 10.3546C25.6357 10.5631 25.4272 10.7228 25.1545 10.8337C24.8841 10.9446 24.561 11 24.1852 11C24.0019 11 23.8266 10.99 23.6594 10.9701C23.4921 10.9501 23.334 10.9213 23.1851 10.8836C23.0384 10.8436 22.9044 10.796 22.7829 10.7405V9.98869C22.9869 10.0752 23.2148 10.1539 23.4669 10.2249C23.7189 10.2936 23.9756 10.328 24.2368 10.328C24.4499 10.328 24.6263 10.3014 24.7661 10.2482C24.9082 10.1927 25.0136 10.1151 25.0823 10.0153C25.151 9.91328 25.1854 9.79463 25.1854 9.65935C25.1854 9.51519 25.1453 9.39321 25.0651 9.29341C24.9849 9.19361 24.8635 9.10268 24.7008 9.02063C24.5404 8.93635 24.3388 8.84653 24.0959 8.75116C23.9309 8.68685 23.7728 8.61366 23.6216 8.5316C23.4726 8.44955 23.3397 8.35307 23.2229 8.24218C23.106 8.13129 23.0132 8.00044 22.9445 7.84963C22.878 7.69661 22.8448 7.51697 22.8448 7.31071C22.8448 7.03571 22.9124 6.80062 23.0476 6.60546C23.1851 6.41029 23.3775 6.26059 23.625 6.15635C23.8748 6.05212 24.1658 6 24.498 6C24.7615 6 25.009 6.02661 25.2404 6.07984C25.4741 6.13307 25.7033 6.20847 25.9278 6.30605L25.6666 6.9481C25.4604 6.86605 25.2599 6.80062 25.0651 6.75183C24.8726 6.70304 24.6756 6.67864 24.474 6.67864C24.2998 6.67864 24.152 6.70415 24.0306 6.75516C23.9091 6.80617 23.8163 6.87824 23.7522 6.97139C23.6903 7.06232 23.6594 7.17099 23.6594 7.29741C23.6594 7.43934 23.6949 7.5591 23.7659 7.65669C23.8392 7.75205 23.9515 7.83965 24.1027 7.91949C24.2563 7.99933 24.4533 8.08805 24.6939 8.18563C24.9712 8.29652 25.206 8.41295 25.3985 8.53493C25.5933 8.65691 25.7422 8.80328 25.8453 8.97405C25.9484 9.1426 26 9.3544 26 9.60945Z" fill="#1B3F1E"/>
<path fill-rule="evenodd" clip-rule="evenodd" d="M9.24326 33.9999V34.9999C9.24326 36.6567 10.5864 37.9999 12.2433 37.9999H33C34.6569 37.9999 36 36.6567 36 34.9999V10.8604C36 9.2035 34.6569 7.86035 33 7.86035H32V30.9999C32 32.6567 30.6569 33.9999 29 33.9999H9.24326Z" fill="#1B3F1E"/>
<mask id="path-3-inside-1_95_13265" fill="white">
<path d="M3 4C3 2.89543 3.89543 2 5 2H28C29.1046 2 30 2.89543 30 4V30C30 31.1046 29.1046 32 28 32H5C3.89543 32 3 31.1046 3 30V4Z"/>
</mask>
<path d="M5 4H28V0H5V4ZM28 4V30H32V4H28ZM28 30H5V34H28V30ZM5 30V4H1V30H5ZM5 30H5H1C1 32.2091 2.79086 34 5 34V30ZM28 30V34C30.2091 34 32 32.2091 32 30H28ZM28 4H32C32 1.79086 30.2091 0 28 0V4ZM5 0C2.79086 0 1 1.79086 1 4H5V4V0Z" fill="#3DAE72" mask="url(#path-3-inside-1_95_13265)"/>
<rect x="7" y="14" width="19" height="2" rx="1" fill="#D7BD7C"/>
<rect x="7" y="18" width="19" height="2" rx="1" fill="#D7BD7C"/>
<rect x="7" y="22" width="19" height="2" rx="1" fill="#D7BD7C"/>
<rect x="7" y="26" width="19" height="2" rx="1" fill="#D7BD7C"/>
</svg>
