<svg width="36" height="36" viewBox="0 0 36 36" fill="none" xmlns="http://www.w3.org/2000/svg">
<circle cx="28.5" cy="27.5" r="5.5" fill="#1B3F1E"/>
<path fill-rule="evenodd" clip-rule="evenodd" d="M32 5L5 1V4L11.75 5H32Z" fill="#1B3F1E"/>
<path fill-rule="evenodd" clip-rule="evenodd" d="M21 27.5C21 31.6421 24.3579 35 28.5 35C32.6421 35 36 31.6421 36 27.5C36 23.3579 32.6421 20 28.5 20C24.3579 20 21 23.3579 21 27.5ZM29 27H32.5V28H29V31.5H28V28H24.5V27H28V23.5H29V27Z" fill="#D7BD7C"/>
<mask id="path-4-inside-1_95_12981" fill="white">
<path fill-rule="evenodd" clip-rule="evenodd" d="M0 6H32V18.6655C30.9169 18.236 29.736 18 28.5 18C23.2533 18 19 22.2533 19 27.5C19 27.6677 19.0043 27.8344 19.0129 28H0V6Z"/>
</mask>
<path fill-rule="evenodd" clip-rule="evenodd" d="M0 6H32V18.6655C30.9169 18.236 29.736 18 28.5 18C23.2533 18 19 22.2533 19 27.5C19 27.6677 19.0043 27.8344 19.0129 28H0V6Z" fill="#1B3F1E" fill-opacity="0.1"/>
<path d="M32 6H34V4H32V6ZM0 6V4H-2V6H0ZM32 18.6655L31.2628 20.5247L34 21.61V18.6655H32ZM19.0129 28V30H21.1193L21.0102 27.8964L19.0129 28ZM0 28H-2V30H0V28ZM32 4H0V8H32V4ZM34 18.6655V6H30V18.6655H34ZM32.7372 16.8063C31.4233 16.2854 29.9925 16 28.5 16V20C29.4795 20 30.4105 20.1867 31.2628 20.5247L32.7372 16.8063ZM28.5 16C22.1487 16 17 21.1487 17 27.5H21C21 23.3579 24.3579 20 28.5 20V16ZM17 27.5C17 27.7023 17.0052 27.9035 17.0156 28.1036L21.0102 27.8964C21.0035 27.7653 21 27.6332 21 27.5H17ZM0 30H19.0129V26H0V30ZM-2 6V28H2V6H-2Z" fill="#3DAE72" mask="url(#path-4-inside-1_95_12981)"/>
<path d="M0 13H10V21H0V13Z" fill="#1B3F1E"/>
<circle cx="5" cy="17" r="2" fill="#3DAE72"/>
</svg>
