<svg width="40" height="40" viewBox="0 0 40 40" fill="none" xmlns="http://www.w3.org/2000/svg">
<rect x="7" y="4" width="26" height="32" fill="#1B3F1E" fill-opacity="0.1"/>
<path fill-rule="evenodd" clip-rule="evenodd" d="M33 4H7V36H33V34H9V6H31V12H33V4Z" fill="#3DAE72"/>
<path d="M23.488 21.6C23.552 21.072 23.6 20.544 23.6 20C23.6 19.456 23.552 18.928 23.488 18.4H26.192C26.32 18.912 26.4 19.448 26.4 20C26.4 20.552 26.32 21.088 26.192 21.6M22.072 26.048C22.552 25.16 22.92 24.2 23.176 23.2H25.536C24.7609 24.5346 23.5313 25.5456 22.072 26.048ZM21.872 21.6H18.128C18.048 21.072 18 20.544 18 20C18 19.456 18.048 18.92 18.128 18.4H21.872C21.944 18.92 22 19.456 22 20C22 20.544 21.944 21.072 21.872 21.6ZM20 26.368C19.336 25.408 18.8 24.344 18.472 23.2H21.528C21.2 24.344 20.664 25.408 20 26.368ZM16.8 16.8H14.464C15.2311 15.4618 16.4598 14.4492 17.92 13.952C17.44 14.84 17.08 15.8 16.8 16.8ZM14.464 23.2H16.8C17.08 24.2 17.44 25.16 17.92 26.048C16.4629 25.5453 15.2359 24.5342 14.464 23.2ZM13.808 21.6C13.68 21.088 13.6 20.552 13.6 20C13.6 19.448 13.68 18.912 13.808 18.4H16.512C16.448 18.928 16.4 19.456 16.4 20C16.4 20.544 16.448 21.072 16.512 21.6M20 13.624C20.664 14.584 21.2 15.656 21.528 16.8H18.472C18.8 15.656 19.336 14.584 20 13.624ZM25.536 16.8H23.176C22.9256 15.8092 22.5549 14.8527 22.072 13.952C23.544 14.456 24.768 15.472 25.536 16.8ZM20 12C15.576 12 12 15.6 12 20C12 22.1217 12.8429 24.1566 14.3431 25.6569C15.086 26.3997 15.9679 26.989 16.9385 27.391C17.9091 27.7931 18.9494 28 20 28C22.1217 28 24.1566 27.1571 25.6569 25.6569C27.1571 24.1566 28 22.1217 28 20C28 18.9494 27.7931 17.9091 27.391 16.9385C26.989 15.9679 26.3997 15.086 25.6569 14.3431C24.914 13.6003 24.0321 13.011 23.0615 12.609C22.0909 12.2069 21.0506 12 20 12Z" fill="#1B3F1E"/>
</svg>
