<svg width="40" height="40" viewBox="0 0 40 40" fill="none" xmlns="http://www.w3.org/2000/svg">
<circle cx="20" cy="20" r="14" fill="#1B3F1E" fill-opacity="0.1" stroke="#3DAE72" stroke-width="2"/>
<path d="M10.3374 15H10C9.72386 15 9.5 14.7761 9.5 14.5V14.2361C9.5 14.0808 9.53698 13.9283 9.60126 13.787C9.77411 13.407 10 12.8293 10 12.5C10 12.1 10.3333 12 10.5 12H11.2639C11.4192 12 11.5717 12.037 11.713 12.1013C12.093 12.2741 12.6707 12.5 13 12.5C13.2757 12.5 13.4089 12.3416 13.465 12.1887C13.5087 12.0696 13.5295 11.941 13.5862 11.8275L13.6802 11.6396C13.85 11.3 14.279 11.186 14.595 11.3966C14.9982 11.6655 14.9346 12.2689 14.641 12.6546C14.5549 12.7677 14.5 12.8852 14.5 13V13.793C14.5 13.9256 14.5527 14.0527 14.6464 14.1464L14.75 14.25C15.0268 14.5268 15.5 14.3307 15.5 13.9393C15.5 13.6967 15.6967 13.5 15.9393 13.5H16.5986C16.8494 13.5 17.0836 13.6253 17.2227 13.834L17.5602 14.3402C17.7482 14.6223 17.5 15.1611 17.5 15.5C17.5 15.9308 16.7247 16.2017 16.834 16.6184C16.9279 16.9765 17 17.314 17 17.5C17 17.8414 16.5145 17.7215 16.165 17.5754C16.0548 17.5294 15.9379 17.5 15.8185 17.5C15.6146 17.5 15.419 17.581 15.2748 17.7252L15.1669 17.8331C15.0572 17.9428 14.9744 18.0767 14.9253 18.224L14.7678 18.6967C14.6199 19.1404 14.1403 19.3801 13.6967 19.2322L13.3701 19.1234C13.1578 19.0526 12.9256 19.1487 12.8255 19.349L12.7764 19.4472C12.6494 19.7012 12.8341 20 13.118 20C13.329 20 13.5 20.171 13.5 20.382V20.618C13.5 20.8521 13.6323 21.0661 13.8416 21.1708L14.5 21.5L15.3377 21.9188C15.4444 21.9722 15.5621 22 15.6815 22C15.8854 22 16.081 22.081 16.2252 22.2252L16.8041 22.8041C16.9323 22.9323 17.0233 23.0928 17.0669 23.2687C17.4149 24.6732 18 27.1253 18 27.5C18 27.7342 17.8858 27.9797 17.7576 28.1766C17.6129 28.3988 17.5 28.649 17.5 28.9142V29.5C17.5 29.6002 17.5105 29.7025 17.5235 29.8101C17.5731 30.2187 16.5 30.9117 16.5 30.5C16.5 30.2471 16.6059 29.7735 16.5 29.5C16.4357 29.3338 16.2898 29.2447 16.1689 29.1614C16.0411 29.0733 16 28.9192 16 28.7639V27.1231C16 27.0413 15.99 26.9599 15.9701 26.8806L15.5672 25.2687C15.5232 25.0929 15.4323 24.9323 15.3041 24.8041L14.2929 23.7929C14.1054 23.6054 14 23.351 14 23.0858V22.9142C14 22.649 13.8946 22.3946 13.7071 22.2071L13.1669 21.6669C13.0572 21.5572 12.9233 21.4744 12.776 21.4253L12.1025 21.2008C11.7427 21.0809 11.5 20.7442 11.5 20.365C11.5 20.1313 11.4072 19.9072 11.2419 19.7419L10.7929 19.2929C10.6054 19.1054 10.5 18.851 10.5 18.5858V18.1623C10.5 18.0548 10.5173 17.948 10.5513 17.846L10.9775 16.5674C10.9925 16.5225 11.0106 16.4788 11.0318 16.4364L11.3675 15.7649C11.4509 15.5981 11.4509 15.4019 11.3675 15.2351L11.2435 14.987C11.1237 14.7474 10.8044 14.6956 10.615 14.885C10.5414 14.9586 10.4415 15 10.3374 15Z" fill="#3DAE72"/>
<path d="M20.7071 10H21C21.1667 10 21.5 10.1 21.5 10.5C21.5 10.7761 21.2761 11 21 11H20.7929C20.6054 11 20.4125 11.0699 20.3381 11.242C20.2483 11.4497 20.2323 11.7323 20.5 12C20.9 12.4 20.6667 12.5 20.5 12.5H20.4142C20.149 12.5 19.8946 12.6054 19.7071 12.7929L19.6147 12.8853C19.5387 12.9613 19.4755 13.049 19.4274 13.1451L19.1118 13.7764C19.0433 13.9134 18.9032 14 18.75 14C18.5968 14 18.4567 13.9134 18.3882 13.7764L18.2048 13.4096C18.0759 13.1517 18.0759 12.8483 18.2048 12.5904C18.3811 12.2378 18.312 11.812 18.0332 11.5332L18 11.5C17.7014 11.2014 17.6274 10.7452 17.8162 10.3675L17.9801 10.0398C17.9933 10.0135 18.0106 9.98937 18.0315 9.96851L18.2185 9.78149C18.3224 9.67761 18.5 9.75118 18.5 9.89809C18.5 9.96055 18.5353 10.0176 18.5912 10.0456L19.1439 10.322C19.3075 10.4038 19.5 10.2848 19.5 10.1019C19.5 10.0367 19.5259 9.97408 19.5721 9.92794L19.6464 9.85355C19.8417 9.65829 20.1583 9.65829 20.3536 9.85355C20.4473 9.94732 20.5745 10 20.7071 10Z" fill="#3DAE72"/>
<path d="M25.5 12.5H26.5H28C28.366 12.5 29.8765 13.6165 30.7689 14.317C30.9206 14.436 31.0324 14.5973 31.0934 14.7802L32.3798 18.6393C32.4572 18.8717 32.4467 19.1243 32.3502 19.3495L31.2597 21.8939C31.1022 22.2616 30.7406 22.5 30.3406 22.5H28H23.7361C23.5808 22.5 23.4277 22.4639 23.2889 22.3944L21.6451 21.5726C21.549 21.5245 21.4613 21.4613 21.3853 21.3853L20.2929 20.2929C20.1054 20.1054 20 19.851 20 19.5858V18.4045C20 18.1811 20.1811 18 20.4045 18C20.4673 18 20.5292 17.9854 20.5854 17.9573L21.5 17.5L21.9472 17.2764C22.286 17.107 22.529 16.7499 22.4059 16.3917C22.3316 16.1756 22.2053 16 22 16C21.8836 16 21.8209 16.0282 21.7945 16.0723C21.6526 16.3092 21.8417 16.6583 21.6464 16.8536C21.5527 16.9473 21.4255 17 21.2929 17H21C20.7239 17 20.5 16.7761 20.5 16.5C20.5 16.2239 20.7239 16 21 16H21.0955C21.3189 16 21.5 15.8189 21.5 15.5955C21.5 15.5327 21.5146 15.4708 21.5427 15.4146L21.8382 14.8236C21.9374 14.6253 22.1401 14.5 22.3618 14.5C22.4527 14.5 22.5423 14.4788 22.6236 14.4382L22.9472 14.2764C23.286 14.107 23.5 13.7607 23.5 13.382V13C23.5 12.7703 23.2583 12.6209 23.0528 12.7236L22.8675 12.8162C22.6867 12.9066 22.6476 13.1476 22.7906 13.2906C22.9062 13.4062 22.9062 13.5938 22.7906 13.7094L22.6464 13.8536C22.5527 13.9473 22.4255 14 22.2929 14H22.2071C22.0745 14 21.9473 13.9473 21.8536 13.8536C21.6583 13.6583 21.6583 13.3417 21.8536 13.1464C21.9473 13.0527 22 12.9255 22 12.7929V12.5C22 12.2239 22.2239 12 22.5 12C22.6667 12 23 12.1 23 12.5V12.2581C23 12.0929 23.0656 11.9344 23.1825 11.8175C23.3721 11.6279 23.6618 11.5809 23.9016 11.7008L24.3549 11.9274C24.451 11.9755 24.5376 12.0401 24.6205 12.1086C24.8287 12.2804 25.1753 12.5 25.5 12.5Z" fill="#3DAE72"/>
<path d="M28 15.5C28 17.9853 25.9853 20 23.5 20C21.0147 20 19 17.9853 19 15.5C19 13.0147 21.0147 11 23.5 11C25.9853 11 28 13.0147 28 15.5Z" fill="#D7BD7C"/>
<path fill-rule="evenodd" clip-rule="evenodd" d="M26.4817 17.4912C26.3393 17.6198 26.1817 17.7349 26.0094 17.8338C24.9137 18.4625 23.5515 18.2478 22.6058 17.3998L22.127 17.6745L21.7149 16.9562L22.056 16.7605C22.0183 16.7033 21.9821 16.6445 21.9475 16.5841C21.9128 16.5238 21.8803 16.4629 21.8499 16.4014L21.5089 16.5971L21.0968 15.8788L21.5755 15.6041C21.3207 14.3598 21.8228 13.0754 22.9185 12.4468C23.0908 12.3479 23.2698 12.2699 23.4526 12.2119L24.0927 13.3274C23.9011 13.3582 23.7131 13.423 23.5366 13.5242C23.0131 13.8246 22.7154 14.3744 22.6931 14.9629L23.781 14.3387L24.1931 15.057L22.8602 15.8218C22.8879 15.8842 22.9191 15.9459 22.954 16.0066C22.9888 16.0673 23.0263 16.1254 23.0662 16.1809L24.3992 15.4161L24.8113 16.1344L23.7234 16.7586C24.2427 17.0363 24.8676 17.0568 25.3911 16.7564C25.5676 16.6552 25.7184 16.5256 25.8416 16.3757L26.4817 17.4912Z" fill="#1B3F1E"/>
<path fill-rule="evenodd" clip-rule="evenodd" d="M29.5 15.5C29.5 18.8137 26.8137 21.5 23.5 21.5C20.1863 21.5 17.5 18.8137 17.5 15.5C17.5 12.1863 20.1863 9.5 23.5 9.5C26.8137 9.5 29.5 12.1863 29.5 15.5ZM23.5 20C25.9853 20 28 17.9853 28 15.5C28 13.0147 25.9853 11 23.5 11C21.0147 11 19 13.0147 19 15.5C19 17.9853 21.0147 20 23.5 20Z" fill="#D7BD7C"/>
<path fill-rule="evenodd" clip-rule="evenodd" d="M38 22C38 25.866 34.866 29 31 29C27.134 29 24 25.866 24 22C24 18.134 27.134 15 31 15C34.866 15 38 18.134 38 22ZM31 27C33.7614 27 36 24.7614 36 22C36 19.2386 33.7614 17 31 17C28.2386 17 26 19.2386 26 22C26 24.7614 28.2386 27 31 27Z" fill="#D7BD7C"/>
<path d="M36 22C36 24.7614 33.7614 27 31 27C28.2386 27 26 24.7614 26 22C26 19.2386 28.2386 17 31 17C33.7614 17 36 19.2386 36 22Z" fill="#D7BD7C"/>
<path fill-rule="evenodd" clip-rule="evenodd" d="M28.6487 18.9554L29.6673 18.3654L30.3678 19.5747C30.6016 19.5215 30.8318 19.5151 31.0584 19.5557C31.4931 19.6334 31.8294 19.867 32.0671 20.2564L31.1398 20.7936C31.0419 20.6499 30.9054 20.5655 30.7302 20.5405C30.5556 20.5125 30.3799 20.5497 30.203 20.6521C30.0261 20.7546 29.9084 20.8794 29.85 21.0266C29.7922 21.1708 29.8045 21.3139 29.8868 21.456C29.9542 21.5725 30.0556 21.6403 30.1909 21.6594C30.3262 21.6786 30.5104 21.6497 30.7435 21.5727L31.314 21.3846C31.7512 21.2394 32.1172 21.2133 32.4121 21.3061C32.7088 21.3978 32.9554 21.6134 33.152 21.9529C33.4104 22.399 33.4656 22.8349 33.3176 23.2607C33.2331 23.5011 33.0891 23.7216 32.8858 23.9222L33.4985 24.9801L32.4799 25.5701L31.8908 24.553C31.5495 24.685 31.2249 24.727 30.9169 24.6789C30.4849 24.6101 30.1464 24.3726 29.9013 23.9663L30.8588 23.4117C30.9618 23.5602 31.1059 23.6428 31.2909 23.6596C31.4767 23.6732 31.6735 23.6199 31.8814 23.4995C32.0692 23.3907 32.1958 23.258 32.2611 23.1016C32.3263 22.9452 32.3184 22.7969 32.2372 22.6568C32.1686 22.5384 32.0669 22.4721 31.9321 22.4579C31.7961 22.4418 31.6007 22.4745 31.346 22.5562L30.7611 22.7447C30.3577 22.8808 30.0027 22.8966 29.6962 22.7921C29.3897 22.6876 29.1392 22.4676 28.9449 22.1321C28.7025 21.7136 28.651 21.2967 28.7903 20.8812C28.887 20.5921 29.0639 20.3371 29.321 20.1161L28.6487 18.9554Z" fill="#1B3F1E"/>
<path d="M3 24.0001C3 21.3077 5 20.0001 5 20.0001C5.27142 22.73 6.39381 24.2917 9.85073 24.2917C13.7463 24.0318 19.235 22.4844 22 21.5001L21.0781 19.1954C21.0468 19.1172 21.1204 19.0377 21.2008 19.0628L28.8813 21.463C28.9423 21.482 28.97 21.5526 28.9383 21.6081L25.0927 28.3378C25.0531 28.4072 24.9522 28.4044 24.9164 28.333L24 26.5001C14.4 30.1001 9 30.0001 6 28.5001C5 28.0001 3 26.5001 3 24.0001Z" fill="#1B3F1E"/>
</svg>
