<svg width="40" height="40" viewBox="0 0 40 40" fill="none" xmlns="http://www.w3.org/2000/svg">
<rect x="4" y="2" width="26" height="32" fill="#1B3F1E" fill-opacity="0.1"/>
<path fill-rule="evenodd" clip-rule="evenodd" d="M30 2H4V34H27V32H6V4H28V10H30V2Z" fill="#3DAE72"/>
<path d="M13 10C13 9.44772 13.4477 9 14 9H22C22.5523 9 23 9.44772 23 10C23 10.5523 22.5523 11 22 11H14C13.4477 11 13 10.5523 13 10Z" fill="#1B3F1E"/>
<path d="M11 10C11 10.5523 10.5523 11 10 11C9.44772 11 9 10.5523 9 10C9 9.44772 9.44772 9 10 9C10.5523 9 11 9.44772 11 10Z" fill="#1B3F1E"/>
<path d="M13 16C13 15.4477 13.4477 15 14 15H22C22.5523 15 23 15.4477 23 16C23 16.5523 22.5523 17 22 17H14C13.4477 17 13 16.5523 13 16Z" fill="#1B3F1E"/>
<path d="M11 16C11 16.5523 10.5523 17 10 17C9.44772 17 9 16.5523 9 16C9 15.4477 9.44772 15 10 15C10.5523 15 11 15.4477 11 16Z" fill="#1B3F1E"/>
<path d="M13 22C13 21.4477 13.4477 21 14 21H22C22.5523 21 23 21.4477 23 22C23 22.5523 22.5523 23 22 23H14C13.4477 23 13 22.5523 13 22Z" fill="#1B3F1E"/>
<path d="M11 22C11 22.5523 10.5523 23 10 23C9.44772 23 9 22.5523 9 22C9 21.4477 9.44772 21 10 21C10.5523 21 11 21.4477 11 22Z" fill="#1B3F1E"/>
<path d="M26 12V26H29V37L37 22H32.2L37 12H26Z" fill="#D7BD7C"/>
</svg>
