<svg width="40" height="40" viewBox="0 0 40 40" fill="none" xmlns="http://www.w3.org/2000/svg">
<rect x="2" y="14.5374" width="25.9824" height="17.9626" rx="2" fill="#1B3F1E"/>
<path d="M2 23H28V31C28 32.1046 27.1046 33 26 33H4C2.89543 33 2 32.1046 2 31V23Z" fill="#D7BD7C"/>
<rect x="4.99799" y="17.5312" width="3.9973" height="2.99377" rx="1" fill="#3DAE72"/>
<rect x="17.9892" y="17.5312" width="1" height="0.997922" fill="#3DAE72"/>
<rect x="4.99799" y="28.5083" width="8.99392" height="1.99584" rx="0.997922" fill="#3DAE72"/>
<rect x="19.9879" y="17.5312" width="1" height="0.997922" fill="#3DAE72"/>
<rect x="21.9865" y="17.5312" width="1" height="0.997922" fill="#3DAE72"/>
<rect x="23.9851" y="17.5312" width="1" height="0.997922" fill="#3DAE72"/>
<rect x="22.9858" y="28.5083" width="1.99865" height="1.99584" rx="0.997922" fill="#3DAE72"/>
<path fill-rule="evenodd" clip-rule="evenodd" d="M14.5836 8.06872C13.5166 7.78321 12.4195 8.4166 12.1333 9.48343L11.045 13.5393H25.9818C27.6387 13.5393 28.9818 14.8824 28.9818 16.5393V30.4977C28.9818 30.5043 28.9818 30.5109 28.9817 30.5175L31.1611 31.1007C32.2281 31.3862 33.3252 30.7528 33.6114 29.6859L37.2304 16.1987C37.5166 15.1319 36.8837 14.0356 35.8167 13.7501L14.5836 8.06872Z" fill="#1B3F1E" fill-opacity="0.1"/>
<path fill-rule="evenodd" clip-rule="evenodd" d="M23.4455 13.5394L11.8757 10.4436L11.045 13.5394H23.4455ZM28.487 14.8884C28.7997 15.3619 28.9818 15.9294 28.9818 16.5394V19.1532L35.9382 21.0146L36.9728 17.1589L28.487 14.8884Z" fill="#3DAE72"/>
</svg>
