<svg width="40" height="40" viewBox="0 0 40 40" fill="none" xmlns="http://www.w3.org/2000/svg">
<path d="M29.7988 18.8938C30.7864 17.429 31.7736 15.9635 32.7605 14.4973L35.2064 16.508C35.2067 16.5477 35.194 16.5865 35.1701 16.6183C35.1463 16.65 35.1127 16.6731 35.0745 16.6838L29.7988 18.8938Z" fill="#A8A9AD"/>
<path d="M6.74531 14.8596C7.53297 16.0459 8.3217 17.2312 9.11148 18.4153C7.71482 17.83 6.31816 17.2447 4.9215 16.6593C4.89038 16.6485 4.86342 16.6282 4.84436 16.6012C4.8253 16.5743 4.81509 16.5421 4.81516 16.5091C5.45748 15.9561 6.14659 15.4585 6.74531 14.8596Z" fill="#A8A9AD"/>
<path d="M29.4894 6.4836L18.2369 17.7583L25.7476 25.2838L37 14.0091L29.4894 6.4836Z" fill="#3DAE72"/>
<path d="M29.4302 10.2357L21.9812 17.6995L22.4414 18.1606L29.8904 10.6969L29.4302 10.2357Z" fill="white"/>
<path d="M19.9469 17.3391L26.1659 23.5715L35.285 14.4259L29.066 8.19458L19.9469 17.3391ZM34.5161 14.4227L26.1585 22.7979L20.7158 17.3519L29.0745 8.97669L34.5161 14.4227Z" fill="white"/>
<path d="M2.99998 13.1763L12.1684 26.2087L20.85 20.077L11.6816 7.04454L2.99998 13.1763Z" fill="#3DAE72"/>
<path d="M10.5699 11.1263L16.6393 19.7537L17.1712 19.3779L11.1018 10.7506L10.5699 11.1263Z" fill="white"/>
<path d="M11.8116 8.80615L4.62164 13.8835L12.0551 24.4505L19.2451 19.3732L11.8116 8.80615ZM11.6765 9.57228L18.4826 19.2528L12.1987 23.6961L5.39264 14.0145L11.6765 9.57228Z" fill="white"/>
<path d="M13.2079 5.5488L13.2079 26.6274H27.2497V5.5488H13.2079Z" fill="#1B3F1E"/>
<path d="M16.6535 9.1121V23.0654H17.5138V9.1121H16.6535Z" fill="white"/>
<path d="M14.415 24.6338H26.0427V7.54346H14.415V24.6338ZM25.31 8.26483V23.922H15.1477V8.26483H25.31Z" fill="white"/>
<path d="M17.7041 22.0093C17.0576 22.542 16.5035 23.1622 15.8888 23.7248C14.7648 24.752 13.713 25.8559 12.606 26.9044C11.2777 28.1596 9.9697 29.4361 8.65209 30.7009C7.46741 31.8379 6.26146 32.9514 5.10124 34.1107C4.9949 34.2172 4.90663 34.3238 4.80986 34.4304C4.67906 34.3121 4.73542 34.1554 4.73542 34.0169C4.73542 28.3141 4.73542 22.6113 4.73542 16.9085C4.73542 16.771 4.67374 16.6133 4.8173 16.5015C6.25615 17.1099 7.68861 17.73 9.13384 18.3236C10.176 18.803 11.2395 19.2335 12.2976 19.6725C12.5496 19.7706 12.7751 19.9251 13.0356 20.0007C13.3101 20.0989 13.5792 20.2117 13.8417 20.3385C15.0923 20.8489 16.3206 21.4115 17.5765 21.9091C17.6264 21.9319 17.6701 21.9663 17.7041 22.0093Z" fill="#D9C07F"/>
<path d="M35.2138 34.4369C34.5024 33.6708 33.7473 32.9516 32.9806 32.2387C31.8597 31.1902 30.7942 30.0842 29.6775 29.0314C28.4078 27.8338 27.149 26.6261 25.9012 25.4086C24.8633 24.3878 23.7999 23.3979 22.7492 22.3931C22.6428 22.294 22.5227 22.2077 22.4738 22.0606C22.5184 21.8528 22.7077 21.8241 22.8608 21.7623C23.4745 21.5151 24.0817 21.2497 24.6878 20.9823C25.3259 20.7159 25.964 20.457 26.5935 20.165C27.6623 19.7313 28.7204 19.2838 29.7743 18.8096C31.5939 18.0638 33.3975 17.2784 35.2064 16.5081C35.3415 16.6061 35.2872 16.751 35.2872 16.8757C35.2872 22.6048 35.2872 28.3338 35.2872 34.0629C35.2851 34.1897 35.3361 34.3315 35.2138 34.4369Z" fill="#D9C07F"/>
<path d="M35.2138 34.4369C30.4978 34.4369 25.7832 34.4369 21.07 34.4369H4.81523C4.78652 34.2451 4.93647 34.1524 5.04387 34.0437C6.70604 32.3666 8.4469 30.7693 10.1357 29.1198C11.1598 28.1204 12.203 27.139 13.2367 26.1491C14.7117 24.7362 16.1952 23.3318 17.6542 21.904C18.1753 21.4628 18.5922 20.8874 19.2834 20.6658C19.641 20.5381 20.0254 20.5045 20.3997 20.5683C20.7739 20.6322 21.1256 20.7912 21.4209 21.0302C21.7173 21.2532 21.9973 21.4971 22.2589 21.7601C22.3363 21.8659 22.4259 21.9621 22.5259 22.0467C23.399 22.9375 24.3284 23.7687 25.2206 24.6392C26.5872 25.9711 27.9697 27.2871 29.3447 28.6116C30.557 29.7837 31.7779 30.9377 32.9913 32.1044C33.6506 32.7438 34.3174 33.365 34.9607 34.016C35.0724 34.1386 35.2383 34.2291 35.2138 34.4369Z" fill="url(#paint0_linear_95_14343)"/>
<path fill-rule="evenodd" clip-rule="evenodd" d="M20.6109 17.3889L20.6109 17.7855L21.4202 17.7855L21.4202 17.3889L23.0388 17.3889L23.0388 17.3749C23.7251 17.2787 24.2528 16.7002 24.2528 16.001C24.2528 15.2344 23.6187 14.613 22.8365 14.613C22.6192 14.613 22.4135 14.6609 22.2295 14.7466L22.2295 15.9998C22.2301 15.6718 22.5016 15.4061 22.8365 15.4061C23.1717 15.4061 23.4434 15.6724 23.4434 16.001C23.4434 16.3295 23.1717 16.5958 22.8365 16.5958L22.6341 16.5958L21.5565 16.5958L21.4202 16.5958L21.4202 15.0096L20.6109 15.0096L20.6109 16.5958L19.5992 16.5958C19.0405 16.5958 18.5876 17.0397 18.5876 17.5872C18.5876 18.1347 19.0405 18.5786 19.5992 18.5786L19.6033 18.5786L19.8016 18.5786L19.8016 17.7855L19.5992 17.7855C19.4875 17.7855 19.3969 17.6967 19.3969 17.5872C19.3969 17.4777 19.4875 17.389 19.5992 17.389L20.6109 17.3889Z" fill="white"/>
<defs>
<linearGradient id="paint0_linear_95_14343" x1="20.014" y1="34.4369" x2="20.014" y2="20.5369" gradientUnits="userSpaceOnUse">
<stop stop-color="#BB904E"/>
<stop offset="1" stop-color="#F7F3B2"/>
</linearGradient>
</defs>
</svg>
