<svg width="40" height="40" viewBox="0 0 40 40" fill="none" xmlns="http://www.w3.org/2000/svg">
<rect x="4" y="16" width="13" height="22" rx="2" fill="#1B3F1E" fill-opacity="0.1"/>
<path fill-rule="evenodd" clip-rule="evenodd" d="M6 16C4.89543 16 4 16.8954 4 18V36C4 37.1046 4.89543 38 6 38H15C16.1046 38 17 37.1046 17 36V18C17 16.8954 16.1046 16 15 16H6ZM7 18C6.44772 18 6 18.4477 6 19V35C6 35.5523 6.44772 36 7 36H14C14.5523 36 15 35.5523 15 35V19C15 18.4477 14.5523 18 14 18H7Z" fill="#3DAE72"/>
<rect x="8.5" y="19" width="4" height="1.5" rx="0.75" fill="#1B3F1E"/>
<rect x="21" y="9" width="15" height="10" fill="#1B3F1E" fill-opacity="0.1"/>
<path d="M20 7L28.5 3L37 7V9H20V7Z" fill="#1B3F1E"/>
<rect x="21" y="10" width="2" height="9" fill="#3DAE72"/>
<rect x="25" y="10" width="2" height="9" fill="#3DAE72"/>
<rect x="34" y="10" width="2" height="9" fill="#3DAE72"/>
<rect x="30" y="10" width="2" height="9" fill="#3DAE72"/>
<rect x="20" y="20" width="17" height="3" fill="#3DAE72"/>
<rect x="25.5" y="3" width="6" height="6" rx="3" fill="#D7BD7C"/>
<path fill-rule="evenodd" clip-rule="evenodd" d="M27.9 5.42857H27.6V6H27.9V7.14286H27.9106C27.9834 7.62747 28.421 8 28.95 8C29.5299 8 30 7.55228 30 7C30 6.84663 29.9637 6.70132 29.899 6.57143L28.9509 6.57143C29.199 6.57187 29.4 6.76358 29.4 7C29.4 7.23669 29.1985 7.42857 28.95 7.42857C28.7015 7.42857 28.5 7.23669 28.5 7L28.5 6.85714L28.5 6.09623L28.5 6H29.7V5.42857H28.5V4.71429C28.5 4.3198 28.1642 4 27.75 4C27.3358 4 27 4.3198 27 4.71429L27 4.71717V4.85714H27.6V4.71429C27.6 4.63539 27.6671 4.57143 27.75 4.57143C27.8328 4.57143 27.9 4.63539 27.9 4.71429L27.9 5.42857Z" fill="#1B3F1E"/>
<path fill-rule="evenodd" clip-rule="evenodd" d="M9.50001 26.5H9.00001V27.5H9.50001V29.5H9.51773C9.63904 30.3481 10.3684 31 11.25 31C12.2165 31 13 30.2165 13 29.25C13 28.9816 12.9396 28.7273 12.8316 28.5L11.2515 28.5C11.665 28.5008 12 28.8363 12 29.25C12 29.6642 11.6642 30 11.25 30C10.8358 30 10.5 29.6642 10.5 29.25L10.5 29L10.5 27.6684L10.5 27.5H12.5V26.5H10.5V25.25C10.5 24.5596 9.94035 24 9.25 24C8.55964 24 8 24.5596 8 25.25L8.00001 25.255V25.5H8.99997V25.25C8.99997 25.1119 9.1119 25 9.24997 25C9.38804 25 9.49997 25.1119 9.49997 25.25L9.50001 26.5Z" fill="#1B3F1E"/>
<path fill-rule="evenodd" clip-rule="evenodd" d="M30.5 23L34 29H32V37H29H19V34H29V29H27L30.5 23Z" fill="#1B3F1E"/>
</svg>
