<svg width="40" height="40" viewBox="0 0 40 40" fill="none" xmlns="http://www.w3.org/2000/svg">
<rect x="7" y="4" width="26" height="32" fill="#1B3F1E" fill-opacity="0.1"/>
<path fill-rule="evenodd" clip-rule="evenodd" d="M33 4H7V36H33V34H9V6H31V12H33V4Z" fill="#3DAE72"/>
<path fill-rule="evenodd" clip-rule="evenodd" d="M20.5 13C23.7526 13 26.7251 14.2102 29 16.2089L27.7309 18.024C25.848 16.15 23.3022 15 20.5 15C17.6978 15 15.152 16.15 13.2691 18.024L12 16.2089C14.2749 14.2102 17.2474 13 20.5 13ZM20.5 27.3846C21.2154 27.3846 21.7953 26.7991 21.7953 26.0769C21.7953 25.3547 21.2154 24.7692 20.5 24.7692C19.7846 24.7692 19.2047 25.3547 19.2047 26.0769C19.2047 26.7991 19.7846 27.3846 20.5 27.3846ZM14.2576 19.4377L15.3117 20.9452C16.6589 19.7403 18.4868 19 20.5 19C22.5132 19 24.3411 19.7403 25.6883 20.9452L26.7424 19.4377C25.1166 17.8793 22.9189 16.9231 20.5 16.9231C18.0811 16.9231 15.8834 17.8793 14.2576 19.4377ZM20.5 20.8462C22.0879 20.8462 23.5089 21.5673 24.4594 22.7028L23.3618 24.2725C22.7282 23.5027 21.6826 23 20.5 23C19.3174 23 18.2718 23.5027 17.6382 24.2725L16.5406 22.7028C17.491 21.5673 18.9121 20.8462 20.5 20.8462Z" fill="#1B3F1E"/>
</svg>
