<svg width="40" height="40" viewBox="0 0 40 40" fill="none" xmlns="http://www.w3.org/2000/svg">
<rect width="13" height="22" rx="2" transform="matrix(-1 0 0 1 36 16)" fill="#1B3F1E" fill-opacity="0.1"/>
<path fill-rule="evenodd" clip-rule="evenodd" d="M34 16C35.1046 16 36 16.8954 36 18V36C36 37.1046 35.1046 38 34 38H25C23.8954 38 23 37.1046 23 36V18C23 16.8954 23.8954 16 25 16H34ZM33 18C33.5523 18 34 18.4477 34 19V35C34 35.5523 33.5523 36 33 36H26C25.4477 36 25 35.5523 25 35V19C25 18.4477 25.4477 18 26 18H33Z" fill="#3DAE72"/>
<rect width="4" height="1.5" rx="0.75" transform="matrix(-1 0 0 1 31.5 19)" fill="#1B3F1E"/>
<path fill-rule="evenodd" clip-rule="evenodd" d="M28.5 26.5H28V27.5H28.5V29.5H28.5177C28.639 30.3481 29.3684 31 30.25 31C31.2165 31 32 30.2165 32 29.25C32 28.9816 31.9396 28.7273 31.8316 28.5L30.2515 28.5C30.665 28.5008 31 28.8363 31 29.25C31 29.6642 30.6642 30 30.25 30C29.8358 30 29.5 29.6642 29.5 29.25L29.5 29L29.5 27.6684L29.5 27.5H31.5V26.5H29.5V25.25C29.5 24.5596 28.9403 24 28.25 24C27.5596 24 27 24.5596 27 25.25L27 25.255V25.5H28V25.25C28 25.1119 28.1119 25 28.25 25C28.388 25 28.5 25.1119 28.5 25.25L28.5 26.5Z" fill="#1B3F1E"/>
<rect width="13" height="22" rx="2" transform="matrix(-1 0 0 1 15 1)" fill="#1B3F1E" fill-opacity="0.1"/>
<path fill-rule="evenodd" clip-rule="evenodd" d="M13 1C14.1046 1 15 1.89543 15 3V21C15 22.1046 14.1046 23 13 23H4C2.89543 23 2 22.1046 2 21V3C2 1.89543 2.89543 1 4 1H13ZM12 3C12.5523 3 13 3.44772 13 4V20C13 20.5523 12.5523 21 12 21H5C4.44771 21 4 20.5523 4 20V4C4 3.44772 4.44771 3 5 3H12Z" fill="#3DAE72"/>
<rect width="4" height="1.5" rx="0.75" transform="matrix(-1 0 0 1 10.5 4)" fill="#1B3F1E"/>
<path fill-rule="evenodd" clip-rule="evenodd" d="M21 36.5L15 40L15 38L7 38L7 35L7 25L10 25L10 35L15 35L15 33L21 36.5Z" fill="#1B3F1E"/>
<path d="M7 9H18C18.5523 9 19 9.44772 19 10V18C19 18.5523 18.5523 19 18 19H7V9Z" fill="#D7BD7C"/>
<path d="M19 13H16C15.4477 13 15 13.4477 15 14C15 14.5523 15.4477 15 16 15H19V13Z" fill="#1B3F1E"/>
<path d="M8 9L15 6V9H8Z" fill="#1B3F1E"/>
<path d="M7 9L17 7V9H7Z" fill="#1B3F1E"/>
</svg>
