<svg width="40" height="40" viewBox="0 0 40 40" fill="none" xmlns="http://www.w3.org/2000/svg">
<rect width="13" height="22" rx="2" transform="matrix(-1 0 0 1 15 1)" fill="#1B3F1E" fill-opacity="0.1"/>
<path fill-rule="evenodd" clip-rule="evenodd" d="M13 1C14.1046 1 15 1.89543 15 3V21C15 22.1046 14.1046 23 13 23H4C2.89543 23 2 22.1046 2 21V3C2 1.89543 2.89543 1 4 1H13ZM12 3C12.5523 3 13 3.44772 13 4V20C13 20.5523 12.5523 21 12 21H5C4.44771 21 4 20.5523 4 20V4C4 3.44772 4.44771 3 5 3H12Z" fill="#3DAE72"/>
<rect width="4" height="1.5" rx="0.75" transform="matrix(-1 0 0 1 10.5 4)" fill="#1B3F1E"/>
<path fill-rule="evenodd" clip-rule="evenodd" d="M7.50001 11.5H7.00001V12.5H7.50001V14.5H7.51773C7.63904 15.3481 8.36839 16 9.25001 16C10.2165 16 11 15.2165 11 14.25C11 13.9816 10.9396 13.7273 10.8316 13.5L9.25146 13.5C9.66501 13.5008 10 13.8363 10 14.25C10 14.6642 9.66423 15 9.25002 15C8.8358 15 8.50002 14.6642 8.50002 14.25L8.50001 14L8.50002 12.6684L8.50001 12.5H10.5V11.5H8.50001V10.25C8.50001 9.55965 7.94035 9 7.25 9C6.55964 9 6 9.55964 6 10.25L6.00001 10.255V10.5H6.99997V10.25C6.99997 10.1119 7.1119 10 7.24997 10C7.38804 10 7.49997 10.1119 7.49997 10.25L7.50001 11.5Z" fill="#1B3F1E"/>
<rect width="13" height="22" rx="2" transform="matrix(-1 0 0 1 35 17)" fill="#1B3F1E" fill-opacity="0.1"/>
<path fill-rule="evenodd" clip-rule="evenodd" d="M33 17C34.1046 17 35 17.8954 35 19V37C35 38.1046 34.1046 39 33 39H24C22.8954 39 22 38.1046 22 37V19C22 17.8954 22.8954 17 24 17H33ZM32 19C32.5523 19 33 19.4477 33 20V36C33 36.5523 32.5523 37 32 37H25C24.4477 37 24 36.5523 24 36V20C24 19.4477 24.4477 19 25 19H32Z" fill="#3DAE72"/>
<rect width="4" height="1.5" rx="0.75" transform="matrix(-1 0 0 1 30.5 20)" fill="#1B3F1E"/>
<path fill-rule="evenodd" clip-rule="evenodd" d="M21 36.5L15 40L15 38L7 38L7 35L7 25L10 25L10 35L15 35L15 33L21 36.5Z" fill="#1B3F1E"/>
<path d="M28 26H39C39.5523 26 40 26.4477 40 27V35C40 35.5523 39.5523 36 39 36H28V26Z" fill="#D7BD7C"/>
<path d="M40 30H37C36.4477 30 36 30.4477 36 31C36 31.5523 36.4477 32 37 32H40V30Z" fill="#1B3F1E"/>
<path d="M29 26L36 23V26H29Z" fill="#1B3F1E"/>
<path d="M28 26L38 24V26H28Z" fill="#1B3F1E"/>
</svg>
