<svg width="40" height="40" viewBox="0 0 40 40" fill="none" xmlns="http://www.w3.org/2000/svg">
<rect x="7" y="4" width="26" height="32" fill="#1B3F1E" fill-opacity="0.1"/>
<path fill-rule="evenodd" clip-rule="evenodd" d="M33 4H7V36H33V34H9V6H31V12H33V4Z" fill="#3DAE72"/>
<path d="M24.9561 20.6609C25.0558 19.9138 24.9852 19.1538 24.7497 18.4378C24.5142 17.7217 24.1198 17.0682 23.5961 16.5261C23.0725 15.984 22.433 15.5673 21.7255 15.3072C21.0181 15.0471 20.261 14.9502 19.5109 15.024L19.6576 16.5168C20.1827 16.4652 20.7127 16.5329 21.2079 16.715C21.7031 16.8971 22.1507 17.1888 22.5173 17.5683C22.8839 17.9478 23.1599 18.4052 23.3248 18.9064C23.4896 19.4076 23.539 19.9396 23.4693 20.4626L24.9561 20.6609Z" fill="#D7BD7C"/>
<path d="M27.9097 21.1988C28.0932 19.9879 27.9962 18.7509 27.6262 17.5833C27.2562 16.4157 26.6231 15.3487 25.7756 14.4644C24.9281 13.5801 23.8888 12.9023 22.738 12.4831C21.5871 12.0639 20.3554 11.9146 19.1377 12.0466L19.3101 13.6373C20.2843 13.5317 21.2697 13.6511 22.1904 13.9865C23.1111 14.3218 23.9424 14.8641 24.6205 15.5715C25.2985 16.2789 25.805 17.1326 26.101 18.0666C26.397 19.0007 26.4746 19.9903 26.3277 20.9591L27.9097 21.1988Z" fill="#D7BD7C"/>
<path d="M25.6569 25.6569C24.1566 27.1571 22.1217 28 20 28C17.8783 28 15.8434 27.1571 14.3431 25.6569C12.8429 24.1566 12 22.1217 12 20C12 17.8783 12.8429 15.8434 14.3431 14.3431L20 20L25.6569 25.6569Z" fill="#1B3F1E"/>
<circle cx="20" cy="20" r="2" fill="#1B3F1E"/>
<path fill-rule="evenodd" clip-rule="evenodd" d="M16.0711 22.7072C16.4616 22.3167 17.0948 22.3167 17.4853 22.7072C17.8758 23.0977 17.8758 23.7309 17.4853 24.1214L14.3907 27.216L17 34.0001V34.0001H9V34.0001L11.7535 26.8411V26.8411C11.888 26.4912 12.2053 26.2491 12.5715 26.2067L16.0711 22.7072Z" fill="#1B3F1E"/>
</svg>
