<svg width="40" height="40" viewBox="0 0 40 40" fill="none" xmlns="http://www.w3.org/2000/svg">
<path fill-rule="evenodd" clip-rule="evenodd" d="M2.5 11L2 13H5H9H12L12.5 11H9.5H5.5H2.5Z" fill="#1B3F1E"/>
<path fill-rule="evenodd" clip-rule="evenodd" d="M2.5 27L2 29H5H9H12L12.5 27H9.5H5.5H2.5Z" fill="#D7BD7C"/>
<path d="M8.5 6L8 8H18L18.5 6H8.5Z" fill="#1B3F1E"/>
<path d="M8.5 32L8 34H18L18.5 32H8.5Z" fill="#1B3F1E"/>
<path fill-rule="evenodd" clip-rule="evenodd" d="M0.5 21L0 23H3H7H10L10.5 21H7.5H3.5H0.5Z" fill="#1B3F1E"/>
<path d="M4 18L4.5 16H11.5L11 18H4Z" fill="#D7BD7C"/>
<path d="M8.31564 28L12.7601 12H38.6844L34.2399 28H8.31564Z" fill="#1B3F1E" fill-opacity="0.1" stroke="#3DAE72" stroke-width="2"/>
<path fill-rule="evenodd" clip-rule="evenodd" d="M11.0364 14.4689L11.7026 12.0707C12.2529 11.416 13.0779 11 14 11C15.6569 11 17 12.3431 17 14C17 15.6569 15.6569 17 14 17C12.5026 17 11.2615 15.903 11.0364 14.4689ZM35.2974 27.9293C34.7471 28.584 33.9221 29 33 29C31.3431 29 30 27.6569 30 26C30 24.3431 31.3431 23 33 23C34.4974 23 35.7385 24.097 35.9636 25.5311L35.2974 27.9293ZM11 29C12.6569 29 14 27.6569 14 26C14 24.3431 12.6569 23 11 23C9.34315 23 8 24.3431 8 26C8 27.6569 9.34315 29 11 29ZM36 11C34.3431 11 33 12.3431 33 14C33 15.6569 34.3431 17 36 17C37.6569 17 39 15.6569 39 14C39 12.3431 37.6569 11 36 11Z" fill="#3DAE72"/>
<path fill-rule="evenodd" clip-rule="evenodd" d="M22 18.5H21.5V19.5H22V21.5H22.0177C22.139 22.3481 22.8684 23 23.75 23C24.7165 23 25.5 22.2165 25.5 21.25C25.5 20.9816 25.4396 20.7273 25.3316 20.5L23.7515 20.5C24.165 20.5008 24.5 20.8363 24.5 21.25C24.5 21.6642 24.1642 22 23.75 22C23.3358 22 23 21.6642 23 21.25L23 21L23 19.6684L23 19.5H25V18.5H23V17.25C23 16.5596 22.4403 16 21.75 16C21.0596 16 20.5 16.5596 20.5 17.25L20.5 17.255V17.5H21.5V17.25C21.5 17.1119 21.6119 17 21.75 17C21.888 17 22 17.1119 22 17.25L22 18.5Z" fill="#1B3F1E"/>
</svg>
