<svg width="40" height="40" viewBox="0 0 40 40" fill="none" xmlns="http://www.w3.org/2000/svg">
<rect x="7" y="4" width="26" height="32" fill="#1B3F1E" fill-opacity="0.1"/>
<path fill-rule="evenodd" clip-rule="evenodd" d="M33 4H7V36H33V34H9V6H31V12H33V4Z" fill="#3DAE72"/>
<rect x="14" y="12" width="12" height="16" rx="4" fill="#1B3F1E"/>
<rect x="17" y="11" width="2" height="3" fill="#1B3F1E"/>
<rect x="21" y="11" width="2" height="3" fill="#1B3F1E"/>
<rect x="16" y="9" width="8" height="2" fill="#1B3F1E"/>
<rect width="10" height="2" transform="matrix(1 0 0 -1 15 30)" fill="#1B3F1E"/>
<path d="M19.8665 15.2916L19.4503 15L19.371 15.5596C19.2448 16.4432 18.7285 17.2643 18.159 17.8412C17.0442 18.9712 16.8 20.1993 17.1452 21.2131C17.4756 22.1832 18.3139 22.8475 19.1649 22.9583L19.3617 22.9838C18.8748 22.6358 18.5623 21.8229 18.6714 21.2154C18.779 20.6183 19.1464 20.0591 19.852 19.5432L20.2077 19.2837L20.3405 19.749C20.4188 20.024 20.5542 20.2449 20.692 20.4693C20.7581 20.5774 20.8251 20.6867 20.8865 20.8029C21.099 21.2065 21.1551 21.6553 21.018 22.1006C20.8932 22.5053 20.687 22.8235 20.4036 23L20.724 22.9583C21.5228 22.8544 22.1091 22.535 22.49 22.0009C22.8675 21.4714 23 20.7898 23 20.0642C23 19.3883 22.7625 18.6916 22.4824 18.1119C22.154 17.433 21.7256 16.8692 21.2578 16.3227C21.1769 16.5119 21.1832 16.5884 21.0167 16.8923C20.8006 16.2211 20.3948 15.6563 19.8665 15.2916Z" fill="#D7BD7C"/>
</svg>
