<svg width="40" height="40" viewBox="0 0 40 40" fill="none" xmlns="http://www.w3.org/2000/svg">
<rect x="7" y="4" width="26" height="32" fill="#1B3F1E" fill-opacity="0.1"/>
<path fill-rule="evenodd" clip-rule="evenodd" d="M33 4H7V36H33V34H9V6H31V12H33V4Z" fill="#3DAE72"/>
<circle cx="18.5" cy="22.5" r="4.5" fill="#D9C07F"/>
<path d="M20 28C18.1479 28 16.5184 27.3613 15.1114 26.0839C13.7038 24.8059 13 23.0769 13 20.8968C13 19.5253 13.525 18.0382 14.575 16.4357C15.625 14.8331 17.2146 13.1006 19.3438 11.2382C19.4313 11.166 19.5333 11.1083 19.65 11.065C19.7667 11.0217 19.8833 11 20 11C20.1167 11 20.2333 11.0217 20.35 11.065C20.4667 11.1083 20.5687 11.166 20.6562 11.2382C22.7854 13.1006 24.375 14.8331 25.425 16.4357C26.475 18.0382 27 19.5253 27 20.8968C27 23.0769 26.2962 24.8059 24.8886 26.0839C23.4816 27.3613 21.8521 28 20 28ZM20.2406 25.4013C20.4156 25.3868 20.5652 25.3184 20.6895 25.196C20.8132 25.073 20.875 24.9248 20.875 24.7516C20.875 24.5495 20.8094 24.3872 20.6781 24.2648C20.5469 24.1418 20.3792 24.0875 20.175 24.1019C19.5771 24.1452 18.9427 23.9829 18.2719 23.6151C17.601 23.2466 17.1781 22.5788 17.0031 21.6115C16.974 21.4527 16.8973 21.3227 16.773 21.2217C16.6493 21.1206 16.5073 21.0701 16.3469 21.0701C16.1427 21.0701 15.975 21.1457 15.8438 21.297C15.7125 21.4489 15.6687 21.6259 15.7125 21.828C15.9604 23.1418 16.5438 24.0803 17.4625 24.6433C18.3813 25.2064 19.3073 25.459 20.2406 25.4013Z" fill="#1B3F1E"/>
</svg>
